<?xml version="1.0" encoding="utf-8"?>
<!-- Generator: Adobe Illustrator 18.0.0, SVG Export Plug-In . SVG Version: 6.00 Build 0)  -->
<!DOCTYPE svg PUBLIC "-//W3C//DTD SVG 1.1//EN" "http://www.w3.org/Graphics/SVG/1.1/DTD/svg11.dtd">
<svg version="1.1" id="Layer_1" xmlns="http://www.w3.org/2000/svg" xmlns:xlink="http://www.w3.org/1999/xlink" x="0px" y="0px"
	 viewBox="-380 -171 960 408.1" enable-background="new -380 -171 960 408.1" xml:space="preserve">
<g>
	<g>
		<path d="M-111.2,70.8c-9.8,24.1-29.7,46.5-59.6,67.1c-29.9,20.7-58.3,31-85,31c-42.9,0-64.4-23.6-64.4-70.7
			c0-30.5,7.9-60.4,23.6-90c15.7-29.5,36.5-53.6,62.2-72.1c25.7-18.5,52-27.8,79-27.8c20.4,0,30.6,7.7,30.6,23
			c0,10.1-4.4,18.7-13.1,25.8s-18.3,10.7-28.6,10.7c-3.7,0-7-0.5-9.9-1.6c-3.2,4.5-4.8,8.7-4.8,12.7c0,4,1.9,7.2,5.5,9.7
			c3.7,2.5,8.5,3.8,14.3,3.8c12.5,0,24.4-3.7,36-11.1c11.5-7.4,19.4-16.5,23.6-27.4c2.1-5.8,3.2-11.1,3.2-15.9
			c0-13-6.5-23.6-19.5-32c-13-8.3-31.7-12.5-56-12.5c-24.4,0-49.1,6.6-74.1,19.9c-25,13.3-45.9,30.1-62.6,50.7
			c-16.7,20.5-29.9,42.8-39.7,66.7c-9.8,24-14.7,46.9-14.7,68.9c0,58,31.1,87,93.4,87c26.8,0,53-5.3,78.7-15.7
			c25.7-10.5,47-24.5,63.9-42.1c17-17.6,25.4-32.4,25.4-44.3C-103.6,78.9-106.1,74.2-111.2,70.8z M270.2-15.8
			c2.1-4.8,5.6-9.4,10.5-13.9c4.9-4.5,10-6.8,15.3-6.8h1.6c5-3.2,7.5-6.8,7.5-10.9s-1.5-7.5-4.3-10.1c-2.9-2.6-7.3-4-13.1-4
			c-5.8,0-11.9,3.5-18.3,10.5c-6.3,7-9.5,14-9.5,20.8C259.9-23.2,263.3-18.4,270.2-15.8z M562.6,71.6c-0.8,0-1.7,1-2.8,2.8
			c-10.6,20.1-20,35.6-28.4,46.3c-8.3,10.7-18.4,20.4-30.2,29c-11.8,8.6-23.3,12.9-34.4,12.9c-18.8,0-28.2-11.1-28.2-33.4
			c0-10.3,2.5-22.3,7.6-35.7c5.3,2.9,13.5,4.4,24.6,4.4c19.1,0,35.6-4.5,49.7-13.5c14-9,21.1-20.9,21.1-35.8
			c0-8.7-3.6-16.2-10.7-22.4c-7.2-6.2-16.7-9.3-28.6-9.3c-26.5,0-49.7,11.5-69.5,34.6c-9.4,10.9-16.4,22.2-21.4,33.9
			c-3.1,5.2-6.6,11-10.6,17.5c-4.9,8.1-9.4,14.7-13.5,19.9c-4.1,5.2-9.3,10.1-15.5,14.7c-6.2,4.6-11,7.1-14.5,7.3
			c-5.3,0-7.9-3.8-7.9-11.5c0-7.7,2.2-17.7,6.6-30c4.3-12.3,8.3-22.1,11.9-29.4c3.6-7.3,9-18.1,16.3-32.4
			c7.3-14.3,12.9-22.9,16.9-25.8h-4l-20.3-0.4c-9.5,0-18.9,6.6-28.2,19.9c-1.1,0.3-2.7,0.4-4.8,0.4c-7.4,0-13.7-2-18.9-6.2
			c-5.2-4.1-7.8-9.7-7.8-16.9c0-3.2,0.3-5.6,0.8-7.2c-3.7-3.7-8.5-5.6-14.3-5.6c-5.8,0-10.4,2.1-13.7,6.4c-3.3,4.2-5,9-5,14.3
			c0,10.6,4.8,18.3,14.3,23c-0.3,0.8-2.3,4.8-6.2,11.9c-3.8,7.2-7.4,14.6-10.7,22.4c-0.3,0.7-0.5,1.3-0.8,2c-0.5,0.8-1,1.6-1.6,2.6
			c-3.6,5.8-7.8,12.7-12.7,20.7c-4.9,7.9-9.3,14.5-13.3,19.7c-4,5.2-9.1,10.1-15.3,14.7c-6.2,4.6-11,6.9-14.5,6.9
			c-5,0-7.5-3.8-7.5-11.5s2.2-17.6,6.6-29.8c4.4-12.2,8.3-21.9,11.7-29c3.4-7.1,8.7-17.7,15.7-31.8c7-14,12.6-22.6,16.9-25.8h-4
			L243.6,16c-11.4,0-21.7,8-31,23.8c-9.7,17.2-17.1,33.6-22.5,49.5c-20.7,36.6-37.9,55-51.7,55c-4.8,0-7.2-3.4-7.2-10.3
			c0-13.2,6.4-34.4,19.1-63.4c12.7-29,23.4-47.1,32.2-54.2h-4L158.6,16c-5.3,0-11,2.3-17.1,6.8c-6.1,4.5-10.6,9.8-13.5,15.9
			c-2.4-8.5-7.3-14.6-14.7-18.5c-7.4-3.8-15.4-5.8-23.8-5.8c-18,0-34.6,6.7-49.7,20.1C24.7,47.8,13.2,64,5.1,83.1
			c-0.2,0.5-0.4,1-0.6,1.5C1.2,89.9-2.6,96-6.8,103c-4.9,7.9-9.2,14.4-12.9,19.3c-3.7,4.9-9.6,10.6-17.7,17.3
			c-8.1,6.6-15,9.9-20.9,9.9c-5.8,0-8.7-4-8.7-11.9c-0.3-5.6,1.1-15,4-28.2c2.9-13.2,6-24.5,9.1-33.8l6.4-18.3
			c15.6-14.8,33.2-34.5,52.8-59C24.9-26.2,39.4-48.1,49-67.4c6.1-11.1,9.1-22,9.1-32.6c0-13.8-7.6-20.7-22.6-20.7
			c-15.1,0-29.2,7.7-42.1,23c-6.6,7.7-12.6,15.2-18.1,22.6c-5.4,7.4-11.1,17.3-16.9,29.8c-5.8,12.4-10.5,22.4-13.9,30
			C-59-7.7-63.1,2.9-67.8,16.4C-72.6,29.9-75.7,38.8-77,43c-17.8,49.6-26.6,84.2-26.6,104.1c0,20.1,7.4,30.2,22.2,30.2
			c19.3,0,38.1-10.1,56.4-30.2c5.4-6,11.8-14.8,19.2-26c-0.9,6.2-1.4,12.4-1.4,18.5c0,24.4,8.9,36.5,26.6,36.5
			c25.7,0,53.6-26.7,83.8-80.2c-5.6,15.9-8.4,32.1-8.4,48.5c0,22,7.2,33,21.4,33c18.2,0,39.9-18.8,65.3-56.2
			c-1.4,8.6-2.2,17-2.2,25.2c0,20.7,7.4,31,22.2,31c8.5,0,17.9-4.1,28.2-12.3c10.3-8.2,19.5-17.8,27.6-28.8
			c6.9-9.4,14.5-20.9,22.6-34.2c2.9-3.4,12.8-21.7,29.6-55c3.2,1.3,6.2,2,9.1,2c9.3,0,18.5-3.7,27.8-11.1
			c-11.4,17.7-20,36.1-25.8,55.2c-5.8,19-8.8,36.1-8.8,51.2c0,22.2,7.6,33.4,22.7,33.4c8.5,0,17.9-4.2,28.4-12.5
			c10.5-8.4,19.4-17.6,26.8-27.6c3.8-5.2,8.2-11.6,13.1-19.1c-0.2,2.6-0.4,5.3-0.4,8c0,17.7,5.2,30.9,15.5,39.5
			c10.3,8.6,23.9,12.9,40.7,12.9c16.8,0,33.6-6.1,50.3-18.3c6.6-5,13.4-11.8,20.3-20.3c6.9-8.5,12.4-15.9,16.5-22.2
			c4.1-6.4,8.3-13.1,12.5-20.3c4.2-7.2,6.3-13.3,6.3-18.5C565,74.2,564.2,71.6,562.6,71.6z M474.8,47.7
			c12.7-12.7,24.2-19.1,34.6-19.1c7.4,0,11.1,3.8,11.1,11.5c-1.1,11.4-7.1,22-18.1,31.8c-11,9.8-21.5,14.7-31.6,14.7
			c-10.1,0-15.1-2.6-15.1-8C455.8,70.8,462.1,60.5,474.8,47.7z M37.8-110.7h2.8c3.4,0,5.2,2.6,5.2,7.7c0,5.2-3.7,16.1-11.1,32.8
			C21.4-43-3.4-8-39.6,34.7C-4.2-62.3,21.7-110.7,37.8-110.7z M90.3,99.8c-7.4,11.7-15.8,21.8-25,30.4c-9.3,8.6-17.3,12.9-24.2,12.9
			c-6.4,0-9.5-4.1-9.5-12.3c0-19.1,8.2-40.7,24.6-64.9C72.5,41.6,89.5,29.5,107,29.5c9.8,0,16,4.2,18.7,12.7
			C118.5,54.6,106.7,73.8,90.3,99.8z"/>
	</g>
</g>
</svg>
