<?xml version="1.0" encoding="utf-8"?>
<!-- Generator: Adobe Illustrator 18.1.1, SVG Export Plug-In . SVG Version: 6.00 Build 0)  -->
<svg version="1.1" xmlns="http://www.w3.org/2000/svg" xmlns:xlink="http://www.w3.org/1999/xlink" x="0px" y="0px"
	 viewBox="0 0 300 96.7" enable-background="new 0 0 300 96.7" xml:space="preserve">
<g id="Layer_1" display="none">
	<circle display="inline" fill="#FFFFFF" stroke="#000000" cx="-168.5" cy="537.9" r="79"/>
	<circle display="inline" fill-rule="evenodd" clip-rule="evenodd" fill="#CC2A15" cx="-415.6" cy="274.1" r="52.9"/>
	<path display="inline" fill-rule="evenodd" clip-rule="evenodd" fill="#333333" d="M-434.7,224.8c-37.2,23.5-25,60.9,22.6,50.5
		c47.7-10.3,44.5,39.7,6.1,52.5c-38.4,12.7-67.5,11.8-67.5,11.8l-19.9-87.7C-493.4,251.9-397.5,201.3-434.7,224.8z"/>
	<path display="inline" fill="#333333" d="M353.7,59.8c0-0.5-0.4-0.8-1-0.9c-0.6-0.1-1,0.1-1.4,0.5c-1.4,2.4-3.2,4.2-5.6,5.5
		c-2.4,1.3-4.9,1.9-7.4,1.9c-1.3,0-2.6-0.1-3.7-0.5c-1.3-0.3-2.3-0.8-3.3-1.5c-0.9-0.6-1.7-1.5-2.3-2.6c-0.5-1-0.9-2.2-0.9-3.6V20.3
		c0-1.3,0.5-2.2,1.3-2.8c0.9-0.6,1.9-0.9,3.2-0.8h1.2c0.6,0,1-0.3,1.2-0.8c0-0.5-0.3-0.9-0.8-1c-1.5-0.4-2.9-0.6-4.6-0.8
		c-1.5,0-3.1,0-4.6,0c-1,0-2,0-3.1,0c-1,0-2.1,0-3.1,0h-5.9c-0.5,0-0.9,0.1-1.2,0.5c-0.3,0.3-0.3,0.5,0,0.9c0.1,0.4,0.6,0.6,1.4,0.9
		c0.8,0.1,1.4,0.3,2.1,0.3c0.8,0.1,1.5,0.4,2.2,0.8c0.8,0.4,1.2,1.3,1.2,3v41.7c0,1.8-0.3,3.3-0.9,4.5c-0.6,1.2-1.9,1.8-3.8,1.8
		c-0.6,0-1,0.4-1,0.9c-0.1,0.6,0.3,0.9,0.9,1c3.5,0.3,7.1,0.3,10.6,0.3c1.4,0,2.8,0,4.4,0c1.4,0,2.8,0,4.2,0
		c1.7-0.1,3.3-0.1,4.9-0.1c1.8,0,3.5,0,5.1,0c1.5,0,3.2,0,4.9,0c1.7,0,3.2,0.1,4.9,0.3l0.3-1.8c-0.1-0.1-0.3-0.1-0.4-0.1
		c-0.1,0.1-0.3,0-0.4,0c0.6-1.3,1-2.6,1.3-3.8c0.1-1.4,0.3-2.7,0.4-4.1c0-0.3,0-0.4,0-0.5C353.5,60,353.7,59.9,353.7,59.8
		L353.7,59.8z"/>
	<path display="inline" fill="#333333" d="M304.9,67.3c-1.5-0.5-2.7-1.5-3.5-3.1c-2.7-4.7-5.1-9.7-7.3-14.7c-2.2-5-4.4-10-6.5-15
		L283,24c-0.1-0.1-0.3-0.4-0.4-0.8c-0.3-0.4-0.4-0.9-0.6-1.3c-0.3-0.6-0.6-1.5-1.2-2.6c-0.4-0.9-0.8-1.8-1.3-2.7
		c-0.5-0.9-1-1.7-1.5-2.3c-0.4-0.6-0.9-1.2-1.4-1.3c-0.6-0.3-1-0.1-1.3,0c-0.1,0.1-0.3,0.3-0.3,0.4c-2.2,4.7-4.2,9.6-6.3,14.4
		c-2,4.9-4.1,9.6-6.2,14.5c-1.4,3.3-2.8,6.7-4.4,10.1c-1.4,3.5-2.9,6.9-4.4,10.3c-0.3,0.5-0.8,1.3-1.4,2c-0.5,0.6-1.2,1.4-1.9,1.9
		c-0.6,0.6-1.4,1-2.2,1.3c-0.5,0.3-0.9,0.3-1.4,0.3V70l17.2,0.3c0.8,0,1.2-0.3,1.2-0.9c0-0.5-0.3-0.9-1-1c-0.6-0.1-1.4-0.3-2.4-0.5
		c-0.9-0.3-1.3-0.8-1.3-1.5c0-0.5,0.3-1.7,0.6-3.1c0.5-1.5,1-3.1,1.8-4.7c0.6-1.8,1.4-3.5,2.1-5.3c0.6-1.7,1.3-3.1,1.9-4.1h16.8
		c1.5,3.2,3,6.3,4.2,9.2c1.3,2.9,2.7,6,4.1,9.2l-0.9,1.2c-0.5,0.4-0.6,0.6-0.4,1c0.1,0.4,0.5,0.5,1,0.5c1.3,0,2.6,0.1,3.7,0.1
		c1.2,0,2.4,0.1,3.7,0.1c1.7,0,3.5-0.1,5.1-0.1c1.7-0.1,3.3-0.3,5-0.4v-1.8C307.8,68.1,306.3,67.7,304.9,67.3z M268.6,44.7
		c1.3-3.1,2.4-6,3.3-8.7c1-2.7,2-5.5,3.2-8.6l0.1,0.1l6.7,17.2H268.6z"/>
	<path display="inline" fill="#333333" d="M254.1,14.7h-1.2c-2.7-0.1-5.4-0.3-8.1-0.4c-3.1,0-6.2-0.1-9.2-0.1c-1,0-1.4,0.4-1.3,1
		c0.1,0.8,0.5,1.3,1.2,1.3c0.6,0.1,1.4,0.3,2.2,0.3c0.4,0.1,0.9,0.3,1.3,0.3c0.5,0.1,0.9,0.3,1.3,0.5c0.3,0.3,0.6,0.5,0.8,1
		c0.3,0.5,0.4,1.2,0.4,1.9v8.1c0,2.7,0.1,5.3,0.1,8c0.1,2.7,0.1,5.4,0.1,8v7.9c0,2.6-0.5,4.6-1.4,6.5c-1,1.8-2.3,3.3-4,4.6
		c-1.7,1.3-3.6,2.3-5.6,2.9c-2.2,0.6-4.4,0.9-6.5,0.9c-2.3,0-4.5-0.3-6.5-0.9c-2.1-0.6-3.8-1.5-5.5-2.7c-1.5-1.3-2.8-2.8-3.8-4.6
		c-1-1.8-1.4-4-1.4-6.4V20.4c0-1.5,0.5-2.6,1.5-3c1-0.5,2.2-0.8,3.6-0.9c0.6-0.1,0.9-0.4,0.9-0.9c0-0.5-0.3-0.8-0.9-0.9
		c-5.9-0.4-11.7-0.6-17.3-0.6h-3.3c-0.9,0-1.4,0.4-1.2,1c0.1,0.8,0.5,1.3,1,1.3c0.6,0.1,1.3,0.1,2.2,0.3c0.8,0.1,1.7,0.4,2.6,0.6
		c0.9,0.4,1.3,1.4,1.3,3.1v30.5c0,0.4,0.1,0.9,0.1,1.4c0.1,0.6,0.3,1.2,0.3,1.8V54c0,3.1,0.8,5.8,2.6,8.1c1.7,2.2,3.8,4.1,6.4,5.5
		c2.7,1.5,5.5,2.7,8.6,3.3c3.2,0.8,6.2,1.2,9,1.2c3.3,0,6.7-0.6,9.7-1.7c3.1-1.2,5.6-2.7,8-4.7c2.3-2.1,4.1-4.5,5.4-7.3
		c1.4-2.8,2-6,2-9.5V20.4c0-1.4,0.5-2.4,1.7-3c0.6-0.4,1.4-0.6,2.1-0.8c0.5-0.1,0.9-0.3,1.3-0.3L254.1,14.7z"/>
	<path display="inline" fill="#333333" d="M252.9,68.2c-0.3,0-0.5,0-0.8-0.1l-0.5,1.9h1.3V68.2L252.9,68.2z"/>
	<path display="inline" fill="#333333" d="M122.5-4.5l-1.8-0.9c-1.8,0.8-3.7,1.2-5.5,1.2h-11c-4.5,0-9,0-13.5,0
		c-4.5-0.1-9-0.1-13.5-0.3c-0.5,0-0.9,0.1-1.2,0.6c-0.1,0.4,0.1,0.8,0.6,1c0.6,0.4,1.4,0.8,2.1,1c0.8,0.3,1.4,0.4,2,0.5
		c0.5,0.1,1,0.3,1.5,0.4c0.4,0.3,0.8,0.4,1.2,0.8c0.4,0.3,0.6,0.8,0.9,1.3c0.1,0.6,0.3,1.4,0.3,2.4v57.1c0,1.7,0,2.9-0.1,4
		c0,1.2-0.3,1.9-0.6,2.6c-0.5,0.8-1.2,1.2-1.9,1.5c-0.9,0.4-2.1,0.6-3.6,0.9c-0.6,0.1-1,0.5-1,1c0.1,0.5,0.4,0.8,1.2,0.8
		c4.2,0.3,8.6,0.3,13,0.3c4.4,0,8.6,0,12.7-0.3l-0.1-1.8c-3.6,0.1-5.8-0.5-6.8-2.1c-1-1.5-1.5-4-1.5-7.3V34c0.5,0,1,0.1,1.4,0.1
		c0.4,0,0.9,0,1.4,0c0.8,0,1.5-0.1,2.2-0.1c0.6,0,1.4,0,2.2-0.1c0.6-0.1,1.3-0.1,1.9-0.1c0.6,0,1.3-0.1,1.9-0.1
		c2.7,0,4.9,0.6,6.3,1.7c1.5,1,2.3,3.1,2.2,6c0,0.3,0.1,0.5,0.4,0.6c0.3,0.1,0.5,0.1,0.8,0.3c0.3,0,0.5,0,0.8-0.1
		c0.3-0.1,0.4-0.3,0.5-0.6c0.5-2.3,1-4.7,1.4-7.3c0.3-2.4,0.5-4.9,0.6-7.4c0-0.5-0.3-0.8-0.6-0.9c-0.5-0.3-1-0.1-1.4,0.3
		c-0.4,0.4-0.9,0.9-1.8,1.5c-0.9,0.5-1.5,0.8-2.1,0.8H95.7V2.1c1.2,0,2.1-0.1,2.8-0.3c0.8-0.1,1.7-0.3,2.8-0.4
		c1.3-0.1,2.4-0.3,3.7-0.4c1.2-0.1,2.3-0.3,3.6-0.3c2.7,0,4.9,0.6,6.4,1.8c1.7,1.2,2.4,3.2,2.4,6.2c0,0.4,0.3,0.6,0.6,0.9
		c0.4,0.1,0.8,0,1.3-0.1c0.5-0.4,1-1,1.3-1.8c0.4-0.8,0.6-1.7,0.9-2.7c0.1-0.9,0.3-1.9,0.3-2.9c0.1-1.2,0.3-2.2,0.3-3.1
		c0.1-0.6,0.1-1.4,0.1-1.9C122.4-3.6,122.4-4.1,122.5-4.5L122.5-4.5z"/>
	<path display="inline" fill="#333333" d="M147.7,69.1c-0.5-0.5-1.2-0.8-1.7-0.9c-0.6-0.1-1.3-0.1-2.1-0.1c-0.4,0-0.8,0-1.2-0.1
		c-0.5,0-0.8-0.1-1-0.1c-0.1-0.3-0.3-0.6-0.5-1.2c-0.3-0.5-0.4-1.2-0.5-1.8c-0.1-0.6-0.3-1.2-0.4-1.7c-0.1-0.6-0.1-1-0.1-1.3V20.4
		c0-1.7,0.5-2.7,1.4-3.1c1-0.5,2.2-0.8,3.6-1c0.6-0.1,0.9-0.4,0.9-0.9c0-0.5-0.4-0.8-1-0.8c-1.5-0.1-3.1-0.1-4.6,0
		c-1.5,0.1-3.2,0.1-4.7,0.1c-1.7,0-3.3,0-5-0.1c-1.5-0.1-3.2-0.1-4.9,0c-0.6,0-1,0.3-1.2,0.8c0,0.5,0.4,0.9,1,0.9
		c1.3,0.1,2.4,0.5,3.6,1.2c1.2,0.5,1.7,1.5,1.7,3v41.8c0,0.6,0,1.2-0.1,1.9c-0.1,0.6-0.3,1.3-0.4,2.1c-0.3,0.6-0.5,1.3-0.9,1.7
		c-0.4,0.5-0.9,0.6-1.4,0.6c-0.1,0-0.4,0.1-0.5,0.1c-0.3,0.1-0.6,0.1-0.9,0c-0.6-0.1-1.2,0.1-1.4,0.8c-0.3,0.6-0.1,1.2,0.5,1.3
		c0.5,0.3,1.2,0.4,2.1,0.4c0.9,0,1.8,0,2.7,0c0.9-0.1,1.8-0.3,2.6-0.3c0.9-0.1,1.5-0.1,2.2-0.1l4,0.1c1.3,0,2.6,0,3.7,0
		c1.3-0.1,2.6-0.1,3.7,0L147.7,69.1L147.7,69.1z"/>
	<path display="inline" fill="#333333" d="M187.4,55.6c0-1.8-0.4-3.5-1.3-5c-0.8-1.7-1.9-3.1-3.2-4.6c-1.4-1.4-2.8-2.7-4.5-4
		c-1.8-1.3-3.3-2.6-5-3.8c-1.3-0.9-2.6-1.9-3.8-3c-1.3-1-2.6-2.1-3.6-3.2c-1.2-1.2-2-2.3-2.7-3.5c-0.6-1.2-1-2.3-1-3.5
		c0-1.3,0.4-2.6,0.9-3.6c0.5-1,1.3-1.8,2.2-2.6c0.9-0.6,1.9-1.2,3.1-1.5c1.2-0.4,2.3-0.6,3.6-0.6c1.2,0,2.3,0.3,3.5,0.6
		c1.2,0.3,2.2,0.8,3.2,1.5c0.9,0.6,1.7,1.4,2.3,2.4c0.5,0.9,0.9,2.1,0.9,3.3c0,0.5,0.3,0.8,0.8,1c0.5,0.1,0.9,0,1.4-0.4
		c0.8-0.9,1.3-2.1,1.4-3.5c0.1-1.4,0.1-2.8,0.1-4.1v-2.9c0.1-0.5-0.1-0.9-0.9-1c-3-0.6-5.9-0.9-8.8-0.9c-1.9,0-4.1,0.3-6.8,0.6
		c-2.6,0.5-5.1,1.2-7.4,2.2c-2.4,1-4.5,2.4-6,4.2c-1.7,1.7-2.6,3.8-2.6,6.3c0,1.7,0.5,3.2,1.3,4.6c0.8,1.5,1.8,3,3.2,4.5
		c1.3,1.4,2.8,2.8,4.5,4.4c1.5,1.4,3.2,2.8,4.9,4.2c1.5,1.2,2.9,2.4,4.4,3.7c1.5,1.2,2.8,2.4,4,3.7c1.2,1.3,2.1,2.6,2.8,3.8
		c0.6,1.3,1,2.4,1,3.7c0,1.4-0.4,2.6-1.2,3.6c-0.8,1-1.7,1.9-2.9,2.6c-1.2,0.6-2.4,1.2-3.7,1.5c-1.4,0.4-2.7,0.6-3.7,0.6
		c-1.4,0-2.7-0.3-4.1-0.5c-1.4-0.4-2.6-0.9-3.7-1.7c-1.2-0.6-2.1-1.5-2.7-2.6c-0.6-1.2-0.9-2.4-0.8-3.8v-1.2c0-0.4-0.1-0.5-0.4-0.6
		c-0.3-0.1-0.5-0.3-0.8-0.3c-0.3,0-0.5,0.1-0.9,0.1c-0.3,0.1-0.4,0.4-0.4,0.6c0,1.2-0.3,2.1-0.6,2.8c-0.3,0.8-0.5,1.5-0.6,2.3
		c-0.1,0.6-0.3,1.4-0.3,2.1c0,1.4,0.4,2.6,1.2,3.6c0.9,0.9,1.8,1.7,2.9,2.2c1.2,0.5,2.4,0.9,3.7,1.2c1.4,0.1,2.6,0.3,3.7,0.3
		c2.2,0,4.7-0.4,7.4-1c2.8-0.8,5.4-1.8,7.7-3.2c2.4-1.3,4.5-3.1,6-5C186.7,60.4,187.4,58.1,187.4,55.6z"/>
	<g display="inline">
		<path fill-rule="evenodd" clip-rule="evenodd" fill="#CC2A15" d="M20.3,79.6c1.9-0.3,3.9-0.7,5.8-1.1l0,0
			c23.6-6.3,37.7-30.8,31.4-54.4l0,0C52.2,4.3,33.9-9,14.2-8.8C1.9-8.7-9.2,13.6-10.8,26.4c-0.9,7.3-0.2,15.9,8.9,11.2
			C5.1,34,17.3,23.4,34.8,6c1.7-1.6,6,1.5,4.4,3.7c-0.7,0.9-1.5,1.9-2.2,2.7c-0.7,0.9-1.4,1.7-1.9,2.4c-4.7,6.7-8.7,12.6-12.1,17.7
			c-2.5,3.7-4.7,7-6.6,9.8C22.7,37,29,33.6,35.2,31.9c1-0.3,2.1-0.5,3.1-0.5c5.4,0.1,10.2,5.3,9.7,9.3c-0.3,3.2-1.9,7.5-4.8,12.7
			c-1.7,3.3-3.7,6.3-5.7,9.2c-2,2.8-4.3,5.5-6.7,8.1C27.1,74.9,23.5,77.7,20.3,79.6z"/>
		<path fill-rule="evenodd" clip-rule="evenodd" fill="#333333" d="M-28.3,47.1L-28.3,47.1c3.9,14.5,14.7,25.4,28,30.2
			c12.2,4.4,20.8-0.9,28.8-9.7c4.6-5,8.5-10.6,11.9-16.8c3.1-5.9,4.6-10.1,4.5-12.7c-0.2-3.9-2.3-4.7-5.9-3.5
			c-3.9,1.3-7.7,3.1-11.4,5.4c-1.7,1.2-3.7,2.6-5.8,4.3c-2.1,1.7-4.3,3.7-6.7,5.9C13.4,51.5,7,49.4,8.7,47c1-1.3,2.7-3.5,3.1-4
			c3.5-5.3,6.7-10.1,9.7-14.6c2-3,3.8-5.7,5.5-8.3c-1.3,1.3-2.5,2.5-3.8,3.6c-2.8,2.6-5.7,5.1-8.7,7.5c-7.5,5.9-12.9,9-17,9.9
			c-4.9,1.1-11.1-4.5-11.7-8.9c-0.9-6.6,0-14.3,3.5-23.8C-8.7,2.8-6.5-1.6-4.2-4.7C-23.3,4.3-34,26-28.3,47.1z"/>
		<path fill-rule="evenodd" clip-rule="evenodd" fill="#CC2A15" d="M8.6-11.3c-1,0.5-2.3,0.3-3.2-0.5c-0.9-0.7-1.5-1.9-1.2-3
			c0.4-1.5,0.9-3,1.3-4.6c-0.5,0.7,1.1,2.5,2.9,3.9c1.7,1.4,3.9,2.5,4.5,1.7C11.4-12.8,10-12,8.6-11.3z"/>
		<path fill-rule="evenodd" clip-rule="evenodd" fill="#CC2A15" d="M24.8-27.3c-0.5,1.7-3.5,0.4-5.9-1.5c-2.5-1.9-4.5-4.4-2.9-5.4
			c1.1-0.7,2.4-1.5,3.6-2.3c-0.5,0.9,0.7,2.7,2.3,3.9c1.7,1.3,3.6,2.1,4.4,1.3C25.7-29.9,25.3-28.6,24.8-27.3z"/>
		<path fill-rule="evenodd" clip-rule="evenodd" fill="#CCCCCC" d="M22.9-34L22.9-34c-0.9-0.8-1.3-2.1-0.7-2.8c1-1.3,3.1-4,4.1-5.4
			c0.7-0.9,2.1-0.9,3.1-0.1l0,0c1.1,0.8,1.3,2.2,0.6,3c-1.1,1.3-3.2,4-4.2,5.3C25.2-33.3,23.9-33.3,22.9-34z"/>
		<path fill-rule="evenodd" clip-rule="evenodd" fill="#CC2A15" d="M14.3-15.2c-0.9,1-3.1,0.1-5-1.4C7.4-18,6-20,6.7-21.1
			c1.1-1.5,2.1-3.1,3.3-4.8c1.2-1.8,2.5-3.7,3.9-5.6c-0.5,0.8,1.3,2.9,3.5,4.6c2.1,1.7,4.6,3,5.3,2.2c-1.6,1.8-3.1,3.5-4.5,5.1
			C16.8-18.1,15.5-16.6,14.3-15.2z"/>
	</g>
	<path display="inline" fill="#FFFFFF" stroke="#000000" d="M-168.5,458.9c-30.5,0-55.2,24.7-55.2,55.2c0,30.5,24.7,55.2,55.2,55.2
		c26.8,0,49.1-19.1,54.1-44.4v55.7"/>
	<path display="inline" fill="#FFFFFF" stroke="#000000" d="M104.7,572.9c18.7,0,33.8-15.1,33.8-33.8c0-18.7-15.1-33.8-33.8-33.8
		c-16.4,0-30.1,11.7-33.2,27.2v-34.1"/>
</g>
<g id="Layer_2" display="none">
	<circle display="inline" fill-rule="evenodd" clip-rule="evenodd" fill="#333333" cx="-143" cy="114.1" r="42.7"/>
	<circle display="inline" fill-rule="evenodd" clip-rule="evenodd" fill="#333333" cx="-307.8" cy="119.5" r="42.7"/>
	<path display="inline" fill="#FFFFFF" d="M-319.3,167.5c-1.7,0-3-1.4-3-3l0,0c0-1.7,1.4-3,3-3l0,0c0.2,0,0.4,0,0.5,0l0,0
		c9.8,0,19.5-5.4,26.7-12.5l0,0c7.2-7,11.6-15.9,11.5-20.9l0,0c0-2-0.6-3.2-1.4-3.9l0,0c-1.2-1-2.8-1.5-5-1.6l0,0
		c-4.1,0-9.9,2.2-14.8,4.8l0,0c-5,2.6-9.2,5.6-10.7,6.8l0,0c-0.5,0.3-0.7,0.5-0.7,0.5l0,0c-1.2,0.9-2.9,0.8-3.9-0.2l0,0
		c-1.1-1.1-1.2-2.7-0.3-3.9l0,0l12.4-16.4c-3.6,2.6-7.4,5-11.2,7l0,0c-4.8,2.5-9.4,4.4-13.8,4.4l0,0c-2.2,0-4.6-0.6-6.4-2.1l0,0
		c-3.3-2.7-4.8-6.8-4.7-10.9l0,0c0-6.5,3-13.7,7.3-20.7l0,0c4.3-7.1,10-14,16-19.6l0,0h0c1.2-1.1,3.1-1.1,4.2,0.2l0,0
		c1.1,1.2,1.1,3.1-0.2,4.2l0,0c-5.5,5.2-11,11.8-15,18.3l0,0c-4,6.5-6.4,13.1-6.4,17.6l0,0c0,2.9,0.8,4.8,2.5,6.3l0,0
		c0.5,0.4,1.3,0.7,2.6,0.7l0,0c3.8,0.1,10.9-3.3,17.7-7.8l0,0c6.8-4.5,13.5-10,17.8-13.6l0,0c2.8-2.4,4.5-4,4.6-4l0,0
		c1.1-1.1,2.9-1.1,4,0l0,0c1.2,1,1.3,2.8,0.4,4l0,0l-17.4,23c5-2.5,10.6-4.6,16-4.7l0,0c3.1,0,6.3,0.8,8.9,3l0,0
		c2.5,2.1,3.6,5.3,3.6,8.5l0,0c-0.1,7.9-5.3,17.2-13.3,25.2l0,0c-8,7.9-18.9,14.2-30.9,14.2l0,0
		C-318.9,167.5-319.1,167.5-319.3,167.5L-319.3,167.5z"/>
	
		<path display="inline" fill-rule="evenodd" clip-rule="evenodd" fill="none" stroke="#FF0000" stroke-width="6" stroke-linecap="round" stroke-linejoin="round" d="
		M-222-86.5c-15.2,14.2-29.1,38.1-18.7,46.8c10.5,8.6,46.6-24.8,46.6-24.8l-27.1,35.9c0,0,24.7-19.2,35-10.5
		c10.3,8.7-12.7,43.1-39.2,42.6"/>
	<path display="inline" fill-rule="evenodd" clip-rule="evenodd" fill="#333333" d="M-389.9-11.9c0-1.7-0.4-2.1-0.7-2.4
		c-0.8-0.7-1.8-1.1-3.7-1.1c-3.5-0.1-9.1,2-13.9,4.6c-4.8,2.6-9,5.5-10.5,6.6c-0.4,0.3-0.6,0.5-0.6,0.5c-2,1.5-4.8,1.4-6.6-0.4
		c-1.8-1.8-2-4.6-0.5-6.6l5.6-7.4c-0.6,0.4-1.2,0.7-1.8,1c-5,2.6-9.7,4.6-14.7,4.7c-2.6,0-5.4-0.7-7.7-2.6c-3.9-3.2-5.5-8-5.5-12.5
		c0.1-7.1,3.2-14.5,7.6-21.8c1.6-2.6,3.3-5.1,5.1-7.5c-12,7.5-20.1,20.9-20.1,36.2c0,18.8,12.2,34.8,29.1,40.5
		c0.6-0.3,1.4-0.5,2.1-0.5c0.2,0,0.4,0,0.5,0c6.8,0,13.7-2.8,19.7-7.2c6-4.3,10.9-10.2,13.7-15.5C-390.7-6.7-389.9-10-389.9-11.9z
		 M-415.2-63.2c-1.2,0-2.5,0.1-3.7,0.2c-0.2,0.4-0.5,0.8-0.9,1.2c-5.4,5-10.7,11.5-14.6,17.9c-3.9,6.3-6.2,12.7-6.1,16.6
		c0.1,2.6,0.6,3.7,1.8,4.8c0.1,0.1,0.3,0.3,1.3,0.3c1.6,0,4.9-0.9,8.4-2.7c3.6-1.8,7.6-4.3,11.5-7c7.7-5.5,14.8-11.6,17.6-14.1
		c0.8-0.7,1.2-1.1,1.2-1.1c1.9-1.8,4.8-1.8,6.8,0c1.9,1.7,2.2,4.6,0.6,6.7l-12.8,17c3.2-1.1,6.5-1.8,9.8-1.9c3.4,0,7.2,0.9,10.2,3.4
		c3.1,2.6,4.3,6.5,4.3,10c0,4.5-1.6,9-4,13.5c-2.4,4.5-5.8,9-9.9,13.1c-1.4,1.4-2.9,2.7-4.4,3.9c15.1-6.6,25.6-21.6,25.6-39.1
		C-372.5-44.1-391.6-63.2-415.2-63.2z"/>
	<path display="inline" fill="#FFFFFF" d="M-154.4,161.1c-1.1,0-2-0.9-2-2l0,0c0-1.1,0.9-2,2-2l0,0c0.2,0,0.4,0,0.6,0l0,0
		c10.2,0,20.1-5.5,27.4-12.8l0,0c7.3-7.2,11.9-16.1,11.8-21.6l0,0c0-2.2-0.6-3.7-1.8-4.7l0,0c-1.5-1.2-3.3-1.8-5.6-1.8l0,0
		c-7.7-0.1-19.2,6.9-24.2,10.4l0,0c-1.7,1.2-2.7,1.9-2.7,1.9l0,0c-0.8,0.6-1.9,0.5-2.6-0.2l0,0c-0.7-0.7-0.8-1.8-0.2-2.6l0,0
		l16.5-21.9c-5.1,3.9-11,8.1-16.6,11.1l0,0c-4.7,2.5-9.3,4.3-13.3,4.3l0,0c-2.1,0-4.1-0.5-5.8-1.9l0,0c-3.1-2.5-4.4-6.2-4.4-10.2
		l0,0c0-6.2,2.9-13.2,7.1-20.2l0,0c4.2-7,9.9-13.9,15.8-19.4l0,0c0.8-0.8,2.1-0.7,2.8,0.1l0,0c0.8,0.8,1.7,2.1,0.9,2.8h2
		c-5.6,5.2-14.1,11.9-18.1,18.5l0,0c-4,6.6-6.6,13.3-6.5,18.2l0,0c0,3.1,0.9,5.4,2.9,7.1l0,0c0.8,0.6,1.8,1,3.2,1l0,0
		c4.3,0.1,11.4-3.4,18.3-8l0,0c6.9-4.5,13.6-10,17.9-13.7l0,0c2.8-2.4,4.6-4,4.6-4l0,0c0.8-0.7,1.9-0.7,2.7,0l0,0
		c0.8,0.7,0.9,1.9,0.3,2.7l0,0l-20.1,26.7c0,0,0.1,0,0.1-0.1l0,0c5.7-3.2,12.9-6.6,19.4-6.6l0,0c3,0,5.9,0.8,8.2,2.7l0,0
		c2.3,1.9,3.2,4.8,3.2,7.7l0,0c-0.1,7.4-5.2,16.6-13,24.4l0,0c-7.8,7.7-18.5,13.9-30.2,13.9l0,0C-154,161.1-154.2,161.1-154.4,161.1
		L-154.4,161.1z"/>
	<path display="inline" fill-rule="evenodd" clip-rule="evenodd" fill="#333333" d="M-137.7,375.2c0-1.7-0.5-2.6-1.2-3.3
		c-1-0.9-2.3-1.3-4.1-1.3c-3.4,0-8.2,1.8-12.3,4c-4.1,2.2-7.6,4.7-8.9,5.6c-0.4,0.3-0.6,0.4-0.6,0.4c-1,0.8-2.4,0.7-3.3-0.2
		c-0.9-0.9-1-2.3-0.2-3.3l10.3-13.6c-3,2.1-6.2,4.2-9.3,5.8c-4,2.1-7.8,3.7-11.4,3.7c-1.9,0-3.8-0.5-5.3-1.8c-2.8-2.3-4-5.7-3.9-9.1
		c0-5.4,2.5-11.3,6-17.2c1.7-2.7,3.6-5.4,5.6-8c-10.2,6.2-17.1,17.5-17.1,30.3c0,17.4,12.6,31.9,29.2,34.9c6.3-1.4,12.3-5.1,17-9.8
		C-141.3,386.7-137.6,379.4-137.7,375.2z"/>
	<path display="inline" fill-rule="evenodd" clip-rule="evenodd" fill="#CC2A15" d="M-158,332.1c-2.6,0-5.2,0.3-7.7,0.8
		c-4.5,4.2-8.8,9.5-12,14.8c-3.3,5.4-5.3,10.9-5.3,14.6c0,2.4,0.7,4,2.1,5.2c0.5,0.4,1.1,0.6,2.2,0.6c3.2,0.1,9.1-2.7,14.7-6.5
		c5.7-3.7,11.2-8.3,14.8-11.3c2.4-2,3.8-3.3,3.8-3.3c1-0.9,2.4-0.9,3.4,0c1,0.9,1.1,2.3,0.3,3.3l-14.4,19.1
		c4.1-2.1,8.8-3.8,13.2-3.9c2.6,0,5.2,0.7,7.4,2.5c2.1,1.8,3,4.4,3,7.1c-0.1,6.5-4.4,14.3-11,20.9c-2.3,2.3-4.9,4.4-7.8,6.2
		c16.5-3.1,28.9-17.5,28.9-34.8C-122.6,347.9-138.5,332.1-158,332.1z"/>
	<text transform="matrix(1 0 0 1 269.5 599.7538)" display="inline" font-family="'DroidSerif'" font-size="98.4769">Fisual</text>
	<text transform="matrix(1 0 0 1 204.5 496.2538)" display="inline" font-family="'DroidSerif-Bold'" font-size="98.4769">FISUAL</text>
	
		<path display="inline" fill-rule="evenodd" clip-rule="evenodd" fill="none" stroke="#FF0000" stroke-width="4" stroke-linecap="round" stroke-linejoin="round" d="
		M-291.4,263c14.4-13.5,27.7-36.2,17.7-44.4c-9.9-8.2-40.2,19.5-40.2,19.5l19.3-42.2c0,0-30.3,27.7-40.2,19.5
		c-9.9-8.2,3.3-31,17.7-44.4"/>
	<path display="inline" fill="#333333" d="M-275,308.5c-1.7-1.4-3.9-2-6-2c-7.3,0.1-16.1,5.6-23.6,10.9c-2.3,1.7-4.5,3.3-6.3,4.8
		l15.6-34.1c0.4-0.9,0.1-1.9-0.6-2.4c-0.8-0.6-1.8-0.5-2.5,0.1c0,0-1.4,1.3-3.7,3.2c-3.5,2.9-9,7.3-14.8,10.9
		c-5.7,3.6-11.8,6.4-15.7,6.4c-1.5,0-2.6-0.4-3.5-1.1c-1.9-1.6-2.7-3.7-2.7-6.6c0-2.8,0.9-6.3,2.5-10c7.1-14.9,22.6-22.6,23.5-22.6
		c0.8,0,0.6-7.7-5-4.5c-0.1-0.2-0.2-0.4-0.3-0.5c-0.4-0.4-0.9-0.6-1.5-0.6c-0.5,0-1,0.2-1.4,0.5c-5.6,5.2-11,11.8-15,18.4
		c-4,6.7-6.8,13.4-6.8,19.3c0,3.8,1.2,7.3,4.2,9.7c1.7,1.4,3.9,2,6,2c7.3-0.1,16.1-5.6,23.6-10.9c2.3-1.7,4.5-3.3,6.3-4.8
		l-15.6,34.1c-0.4,0.9-0.1,1.9,0.6,2.4c0.8,0.6,1.8,0.5,2.5-0.1c0,0,1.4-1.3,3.7-3.2c3.5-2.9,9-7.3,14.8-10.9
		c5.7-3.6,11.8-6.4,15.7-6.4c1.5,0,2.6,0.4,3.5,1.1c1.9,1.6,2.7,3.7,2.7,6.6c0,2.8-0.9,6.3-2.4,10c-7.1,14.9-22.6,22.6-23.5,22.6
		c-0.8,0-0.6,7.7,5,4.5c0.1,0.2,0.2,0.4,0.3,0.5c0.8,0.8,2,0.9,2.8,0.1c5.6-5.2,11-11.8,15-18.4c4-6.7,6.8-13.4,6.8-19.3
		C-270.8,314.5-272.1,310.9-275,308.5z"/>
</g>
<g id="Layer_3" display="none">
	<path display="inline" fill="#333333" d="M117.1,32.2H72.9v3.7H74c1,0,1.9,0.1,2.8,0.2c0.9,0.1,1.6,0.4,2.3,0.8
		c0.7,0.4,1.2,1,1.6,1.8c0.4,0.8,0.6,1.8,0.6,3.1v43.5c0,1.3-0.2,2.3-0.6,3.1c-0.4,0.8-0.9,1.4-1.6,1.8c-0.7,0.4-1.4,0.7-2.3,0.8
		c-0.9,0.1-1.8,0.2-2.8,0.2h-1.1V95h27.3v-3.7h-2.9c-1,0-1.9-0.1-2.8-0.2c-0.9-0.1-1.7-0.4-2.3-0.9c-0.6-0.4-1.2-1.1-1.5-1.9
		c-0.4-0.8-0.6-1.9-0.6-3.3V66.3h12.3c3.3,0,3.8,1.8,3.8,3.6v1.4h3.5V57h-3.5v1.4c0,1.8-0.5,3.6-3.8,3.6H90.1V36.6h14.4
		c1.4,0,2.5,0.2,3.5,0.6c1,0.4,1.8,0.9,2.4,1.5c0.6,0.6,1.1,1.4,1.5,2.3c0.3,0.9,0.6,1.8,0.7,2.8l0.4,3.8h4.5L117.1,32.2z"/>
	<path display="inline" fill="#333333" d="M162.8,95.8c-2.2,0-4.2-0.2-6-0.6c-1.8-0.4-3.3-1-4.6-1.8c-1.3-0.8-2.2-1.8-2.9-2.9
		c-0.7-1.2-1-2.5-1-4.1c0-1.2,0.2-2.2,0.6-2.9c0.4-0.8,0.9-1.4,1.4-1.9c0.6-0.5,1.2-0.8,1.8-1c0.6-0.2,1.2-0.3,1.7-0.3
		c0,1.5,0.2,3,0.5,4.3c0.3,1.3,0.8,2.5,1.6,3.5c0.7,1,1.7,1.8,2.9,2.4c1.2,0.6,2.7,0.9,4.5,0.9c1.6,0,3-0.2,4.2-0.6
		c1.2-0.4,2.2-0.9,3-1.6c0.8-0.7,1.4-1.5,1.9-2.5c0.4-1,0.6-2.1,0.6-3.2c0-1.1-0.2-2-0.5-2.8c-0.3-0.8-0.9-1.5-1.7-2.2
		c-0.8-0.7-1.9-1.4-3.3-2.1c-1.4-0.7-3.2-1.5-5.3-2.4c-2.3-1-4.2-2-5.9-2.9c-1.7-0.9-3.1-1.9-4.1-3c-1.1-1.1-1.9-2.3-2.4-3.7
		c-0.5-1.4-0.8-3-0.8-5c0-2,0.4-3.8,1.2-5.3c0.8-1.5,1.9-2.8,3.4-3.9c1.5-1,3.2-1.8,5.2-2.4c2-0.5,4.3-0.8,6.8-0.8
		c2.1,0,3.9,0.2,5.5,0.6c1.6,0.4,2.9,1,4,1.7c1.1,0.7,1.9,1.6,2.4,2.6c0.5,1,0.8,2,0.8,3.1c0,1.6-0.6,2.9-1.7,3.8
		c-1.1,1-2.7,1.4-4.7,1.4c0-2.9-0.6-5.2-1.8-6.9c-1.2-1.6-3.1-2.4-5.7-2.4c-1.5,0-2.8,0.2-3.8,0.5c-1.1,0.3-1.9,0.8-2.6,1.5
		c-0.7,0.6-1.2,1.4-1.5,2.2c-0.3,0.9-0.5,1.8-0.5,2.8c0,1.1,0.2,2.1,0.6,2.9c0.4,0.8,1,1.6,1.9,2.3c0.9,0.7,2,1.4,3.4,2
		c1.4,0.6,3.1,1.4,5,2.2c2.3,1,4.3,1.9,6,2.9c1.7,0.9,3,2,4.1,3.1c1.1,1.1,1.9,2.4,2.4,3.8c0.5,1.4,0.8,3,0.8,4.8
		c0,2.3-0.4,4.3-1.2,6c-0.8,1.7-2,3.2-3.5,4.3c-1.5,1.2-3.3,2-5.5,2.6C167.8,95.5,165.4,95.8,162.8,95.8z"/>
	<path display="inline" fill="#333333" d="M226,85.4c0,1.3,0.2,2.3,0.6,3.1c0.4,0.8,0.9,1.4,1.6,1.8c0.7,0.4,1.4,0.7,2.3,0.8
		c0.9,0.1,1.8,0.2,2.8,0.2h0.3V95h-13.9l-1.2-7.1H218c-0.9,1.7-1.9,3-2.9,4c-1.1,1-2.2,1.8-3.4,2.4c-1.2,0.6-2.5,1-3.8,1.2
		c-1.3,0.2-2.7,0.3-4.1,0.3c-2.3,0-4.4-0.3-6.2-1c-1.8-0.7-3.3-1.7-4.5-3.1c-1.2-1.4-2.2-3.2-2.8-5.4c-0.6-2.2-1-4.8-1-7.8V57.5
		c0-1.3-0.2-2.3-0.6-3.1c-0.4-0.8-0.9-1.4-1.6-1.8c-0.7-0.4-1.4-0.7-2.3-0.9c-0.9-0.1-1.8-0.2-2.8-0.2h-0.3v-3.7h15.7v30.3
		c0,1.9,0.1,3.6,0.4,5.1c0.3,1.5,0.8,2.7,1.5,3.8c0.7,1,1.6,1.8,2.8,2.3c1.2,0.5,2.7,0.8,4.4,0.8c1.9,0,3.6-0.3,5-1
		c1.4-0.7,2.5-1.7,3.4-2.9c0.9-1.2,1.6-2.7,2-4.5c0.4-1.7,0.6-3.7,0.6-5.8V57.9c0-1.4-0.2-2.5-0.6-3.3c-0.4-0.8-0.9-1.5-1.5-1.9
		c-0.6-0.4-1.4-0.7-2.3-0.9c-0.9-0.1-1.8-0.2-2.8-0.2h-0.3v-3.7H226V85.4z"/>
	<path display="inline" fill="#333333" d="M254.7,51.4c-1.7,0-3.1,0.2-4.1,0.7c-1,0.5-1.9,1.1-2.4,2c-0.6,0.9-1,1.9-1.2,3
		c-0.2,1.2-0.3,2.4-0.3,3.8c-2.4,0-4.3-0.4-5.6-1.2c-1.3-0.8-1.9-2.3-1.9-4.3c0-1.5,0.4-2.8,1.2-3.9c0.8-1.1,2-1.9,3.4-2.6
		c1.4-0.7,3.1-1.2,5-1.5c1.9-0.3,4-0.5,6.1-0.5c2.7,0,5,0.3,7,0.8c2,0.5,3.7,1.4,5,2.6c1.3,1.2,2.4,2.8,3,4.7c0.7,1.9,1,4.3,1,7.1
		V85c0,1.2,0.1,2.2,0.3,3c0.2,0.8,0.5,1.4,0.9,1.9c0.4,0.5,1,0.8,1.7,1c0.7,0.2,1.5,0.3,2.5,0.3h0.3V95h-11.9l-1.4-7.5h-0.7
		c-0.9,1.2-1.8,2.4-2.7,3.4c-0.9,1-1.8,1.9-2.8,2.7c-1,0.7-2.2,1.3-3.5,1.7c-1.3,0.4-2.9,0.6-4.7,0.6c-1.9,0-3.8-0.3-5.4-0.8
		c-1.7-0.6-3.1-1.4-4.3-2.6c-1.2-1.2-2.2-2.6-2.9-4.4c-0.7-1.8-1-3.8-1-6.2c0-4.7,1.7-8.1,5-10.4c3.3-2.3,8.3-3.5,15.1-3.7l7.3-0.3
		v-5.3c0-1.6-0.1-3-0.3-4.4c-0.2-1.3-0.5-2.5-1.1-3.4c-0.6-1-1.4-1.7-2.5-2.2C257.9,51.6,256.5,51.4,254.7,51.4z M244.1,82.2
		c0,2.7,0.6,4.8,1.7,6.2c1.2,1.4,3,2,5.4,2c1.8,0,3.4-0.3,4.8-0.9c1.4-0.6,2.7-1.4,3.7-2.4c1-1.1,1.8-2.3,2.3-3.9
		c0.5-1.5,0.8-3.2,0.8-5.1v-7.1l-5.6,0.3c-2.5,0.1-4.6,0.4-6.2,0.9c-1.7,0.5-3,1.2-4.1,2.1c-1,0.9-1.8,2-2.2,3.3
		C244.3,79,244.1,80.5,244.1,82.2z"/>
	<path display="inline" fill="#333333" d="M282,91.3c1,0,1.9-0.1,2.8-0.2c0.9-0.1,1.6-0.4,2.3-0.9c0.6-0.4,1.2-1.1,1.5-1.9
		c0.4-0.8,0.6-1.9,0.6-3.3V37.9c0-1.3-0.2-2.3-0.6-3.1c-0.4-0.8-0.9-1.4-1.6-1.8c-0.7-0.4-1.4-0.7-2.3-0.8c-0.9-0.1-1.8-0.2-2.8-0.2
		h-1.1v-3.7h16.6V85c0,1.4,0.2,2.5,0.6,3.3c0.4,0.8,0.9,1.5,1.5,1.9c0.7,0.4,1.4,0.7,2.3,0.9c0.9,0.1,1.8,0.2,2.8,0.2h1.1V95h-24.9
		v-3.7H282z"/>
	<g display="inline">
		<path fill="#333333" d="M122.4,91.3c1,0,1.9-0.1,2.8-0.2c0.9-0.1,1.6-0.4,2.3-0.8c0.7-0.4,1.2-1,1.6-1.8c0.4-0.8,0.6-1.8,0.6-3.1
			V57.5c0-1.3-0.2-2.3-0.6-3.1c-0.4-0.8-0.9-1.4-1.6-1.8c-0.7-0.4-1.4-0.7-2.3-0.9c-0.9-0.1-1.8-0.2-2.8-0.2h-0.3v-3.7h15.7V85
			c0,1.4,0.2,2.5,0.6,3.3c0.4,0.8,0.9,1.5,1.5,1.9c0.6,0.4,1.4,0.7,2.3,0.9c0.9,0.1,1.8,0.2,2.8,0.2h1.2V95h-25v-3.7H122.4z"/>
		<rect x="129.6" y="32.2" fill="#333333" width="8.2" height="8.2"/>
	</g>
	<g display="inline">
		<path fill-rule="evenodd" clip-rule="evenodd" fill="#CC2A15" d="M28.2,25.1c-1.8,0-3.6,0.1-5.3,0.4C20.7,26.3,9.3,32.5,4,43.8
			c-1.3,3-2,5.9-2,8.2c0,2.4,0.7,4.2,2.2,5.4C4.9,58,5.8,58.3,7,58.3c3.2,0,8.1-2.2,12.8-5.2c4.7-3,9.2-6.6,12.1-9
			c1.9-1.6,3-2.6,3-2.6c0.6-0.5,1.4-0.6,2.1-0.1c0.6,0.5,0.9,1.3,0.5,2L24.8,71.3c1.5-1.2,3.3-2.6,5.2-4c6.1-4.3,13.4-8.8,19.3-8.9
			c1.8,0,3.5,0.5,4.9,1.6c2.4,2,3.4,4.9,3.4,8c0,4.8-2.3,10.3-5.6,15.8c-0.8,1.3-1.6,2.5-2.5,3.8c8.2-6.4,13.5-16.4,13.5-27.6
			C63.1,40.7,47.5,25.1,28.2,25.1z"/>
		<path fill-rule="evenodd" clip-rule="evenodd" fill="#333333" d="M54.4,68c0-2.4-0.7-4.2-2.2-5.4c-0.7-0.6-1.6-0.9-2.8-0.9
			c-3.2,0-8.1,2.2-12.8,5.2c-4.7,3-9.2,6.6-12.1,9c-1.9,1.6-3,2.6-3.1,2.6c-0.6,0.5-1.4,0.6-2.1,0.1c-0.6-0.5-0.8-1.3-0.5-2
			l12.8-27.9c-1.5,1.2-3.3,2.6-5.2,4C20.2,57,13,61.5,7,61.6c-1.8,0-3.5-0.5-4.9-1.6c-2.4-2-3.4-4.9-3.4-8c0-4.8,2.3-10.3,5.6-15.8
			C5,35,5.8,33.7,6.7,32.4C-1.5,38.8-6.8,48.8-6.8,60C-6.8,79.3,8.9,95,28.2,95c1.8,0,3.6-0.1,5.3-0.4c2.2-0.8,13.6-7.1,18.9-18.4
			C53.7,73.1,54.4,70.3,54.4,68z"/>
	</g>
	<path display="inline" fill-rule="evenodd" clip-rule="evenodd" fill="#CCBAB8" d="M-118.4-0.8c0.4-0.5,0.4-1.3-0.4-2.4
		c0,0,5.3-6.5,5.5-6.7c0.1-0.1,0-0.5-0.1-1c0.3-0.4,0.4-0.4,1-0.5c0.6-0.2,1.1-0.8,1-1.7c-0.1-0.9,0.1-1.9-0.3-2.2
		c-0.4-0.3-1.2,0.1-2.2,0.2c-0.9,0-1.5,0.6-1.5,1.3c0,0.6,0,0.7-0.3,1.1c-0.5-0.1-0.9-0.1-1,0.1c-0.2,0.2-5.5,6.7-5.5,6.7
		c-1.3-0.6-2-0.5-2.5,0c-0.2,0-0.5,0.1-0.8,0.5c-0.3,0.4-9.6,11.8-9.6,11.8c-1.1,1.4-0.9,2.6,1.5,4.6l0,0c0.1,0.1,0.2,0.1,0.3,0.2
		c0.1,0.1,0.2,0.1,0.3,0.2l0,0c2.4,1.9,3.7,1.9,4.8,0.5c0,0,9.3-11.5,9.6-11.8C-118.4-0.2-118.4-0.5-118.4-0.8z"/>
	<g display="inline">
		<path fill-rule="evenodd" clip-rule="evenodd" fill="#CCBAB8" d="M16.5,22.2c-1.1-0.9-1.9-2-2.1-2.9c-0.5,1-1.5,2.8-2,3.4
			c-0.5,0.6,0.1,1.9,1.3,2.9c1.2,1,2.6,1.3,3.1,0.7c0.5-0.6,2.1-1.9,2.9-2.6C18.9,23.7,17.6,23.1,16.5,22.2z"/>
		<path fill-rule="evenodd" clip-rule="evenodd" fill="#CCBAB8" d="M30.9,8.2c-1.3,0.6-2.6-0.5-2.6-0.5s-1.3-1.1-1-2.5
			c-1.6,0.3-3.9,1.6-4.5,2.3c-0.6,0.7,0.9,2.9,2.4,4c1.4,1.2,3.9,2.2,4.4,1.5C30.1,12.4,30.9,9.9,30.9,8.2z"/>
		<path fill-rule="evenodd" clip-rule="evenodd" fill="#CCBAB8" d="M24.6,12.2c-1.4-1.1-2.4-2.5-2.7-3.6c-0.6,1.2-6,8.7-6.6,9.4
			c-0.6,0.8,0.1,2.4,1.7,3.6c1.5,1.2,3.3,1.6,3.9,0.9c0.6-0.7,6.8-7.6,7.8-8.4C27.5,14,26,13.4,24.6,12.2z"/>
		<path fill="#CCBAB8" d="M28.5,4.6l3.3-4c0.6-0.7,1.7-0.9,2.4-0.3l0,0C35,0.9,35.1,2,34.5,2.8l0,0l-3.3,4c-0.6,0.7-1.7,0.9-2.4,0.3
			l0,0C28,6.5,27.9,5.4,28.5,4.6L28.5,4.6z"/>
	</g>
	<g display="inline">
		<g>
			<path fill-rule="evenodd" clip-rule="evenodd" fill="#CC2A15" d="M-154.3,176.4c-1.8,0-3.6,0.1-5.3,0.4
				c-2.2,0.8-13.6,7.1-18.9,18.4c-1.3,3-2,5.9-2,8.2c0,2.4,0.7,4.2,2.2,5.4c0.7,0.6,1.6,0.9,2.8,0.9c3.2,0,8.1-2.2,12.8-5.2
				c4.7-3,9.2-6.6,12.1-9c1.9-1.6,3-2.6,3-2.6c0.6-0.5,1.4-0.6,2.1-0.1c0.6,0.5,0.9,1.3,0.5,2l-12.8,27.9c1.5-1.2,3.3-2.6,5.2-4
				c6.1-4.3,13.4-8.8,19.3-8.9c1.8,0,3.5,0.5,4.9,1.6c2.4,2,3.4,4.9,3.4,8c0,4.8-2.3,10.3-5.6,15.8c-0.8,1.3-1.6,2.5-2.5,3.8
				c8.2-6.4,13.5-16.4,13.5-27.6C-119.3,192-135,176.4-154.3,176.4z"/>
			<path fill-rule="evenodd" clip-rule="evenodd" fill="#333333" d="M-128,219.3c0-2.4-0.7-4.2-2.2-5.4c-0.7-0.6-1.6-0.9-2.8-0.9
				c-3.2,0-8.1,2.2-12.8,5.2c-4.7,3-9.2,6.6-12.1,9c-1.9,1.6-3,2.6-3.1,2.6c-0.6,0.5-1.4,0.6-2.1,0.1c-0.6-0.5-0.8-1.3-0.5-2
				l12.8-27.9c-1.5,1.2-3.3,2.6-5.2,4c-6.1,4.4-13.4,8.8-19.3,8.9c-1.8,0-3.5-0.5-4.9-1.6c-2.4-2-3.4-4.9-3.4-8
				c0-4.8,2.3-10.3,5.6-15.8c0.8-1.3,1.6-2.5,2.5-3.8c-8.2,6.4-13.5,16.4-13.5,27.6c0,19.3,15.6,34.9,34.9,34.9
				c1.8,0,3.6-0.1,5.3-0.4c2.2-0.8,13.6-7.1,18.9-18.4C-128.7,224.5-128,221.6-128,219.3z"/>
		</g>
		<g>
			<g>
				<path fill-rule="evenodd" clip-rule="evenodd" fill="#FFFFFF" d="M-175.2,188.2c0,2.4-2.3,8.4-2.3,8.4l-3,0.8L-175.2,188.2z"/>
				<path fill-rule="evenodd" clip-rule="evenodd" fill="#FFFFFF" d="M-180.6,194.8c0.9,2.2,1.2,8.6,1.2,8.6l-2.5,1.8L-180.6,194.8z
					"/>
				<path fill-rule="evenodd" clip-rule="evenodd" fill="#FFFFFF" d="M-165.6,206.9c-1.2,2.1-6.1,6.3-6.1,6.3l-3-0.8L-165.6,206.9z"
					/>
				<path fill-rule="evenodd" clip-rule="evenodd" fill="#FFFFFF" d="M-156.5,203.1c-1.2,2.1-6.1,6.3-6.1,6.3l-3-0.8L-156.5,203.1z"
					/>
			</g>
			<g>
				<path fill-rule="evenodd" clip-rule="evenodd" fill="#FFFFFF" d="M-133.3,234.5c0-2.4,2.3-8.4,2.3-8.4l3-0.8L-133.3,234.5z"/>
				<path fill-rule="evenodd" clip-rule="evenodd" fill="#FFFFFF" d="M-127.9,227.9c-0.9-2.2-1.2-8.6-1.2-8.6l2.5-1.8L-127.9,227.9z
					"/>
				<path fill-rule="evenodd" clip-rule="evenodd" fill="#FFFFFF" d="M-142.9,215.8c1.2-2.1,6.1-6.3,6.1-6.3l3,0.8L-142.9,215.8z"/>
				<path fill-rule="evenodd" clip-rule="evenodd" fill="#FFFFFF" d="M-152,219.6c1.2-2.1,6.1-6.3,6.1-6.3l3,0.8L-152,219.6z"/>
			</g>
		</g>
		<g>
			<path fill-rule="evenodd" clip-rule="evenodd" fill="#CCBAB8" d="M-166,173.6c-1.1-0.9-1.9-2-2.1-2.9c-0.5,1-1.5,2.8-2,3.4
				c-0.5,0.6,0.1,1.9,1.3,2.9c1.2,1,2.6,1.3,3.1,0.7c0.5-0.6,2.1-1.9,2.9-2.6C-163.6,175.1-164.9,174.5-166,173.6z"/>
			<path fill-rule="evenodd" clip-rule="evenodd" fill="#CCBAB8" d="M-151.6,159.6c-1.3,0.6-2.6-0.5-2.6-0.5s-1.3-1.1-1-2.5
				c-1.6,0.3-3.9,1.6-4.5,2.3c-0.6,0.7,0.9,2.9,2.4,4c1.4,1.2,3.9,2.2,4.4,1.5C-152.4,163.8-151.6,161.3-151.6,159.6z"/>
			<path fill-rule="evenodd" clip-rule="evenodd" fill="#CCBAB8" d="M-157.9,163.7c-1.4-1.1-2.4-2.5-2.7-3.6c-0.6,1.2-6,8.7-6.6,9.4
				c-0.6,0.8,0.1,2.4,1.7,3.6c1.5,1.2,3.3,1.6,3.9,0.9c0.6-0.7,6.8-7.6,7.8-8.4C-155,165.5-156.5,164.8-157.9,163.7z"/>
			<path fill="#CCBAB8" d="M-154,156l3.3-4c0.6-0.7,1.7-0.9,2.4-0.3l0,0c0.7,0.6,0.9,1.7,0.3,2.4l0,0l-3.3,4
				c-0.6,0.7-1.7,0.9-2.4,0.3l0,0C-154.5,157.9-154.6,156.8-154,156L-154,156z"/>
		</g>
	</g>
	<g display="inline">
		<g>
			<g>
				<path fill-rule="evenodd" clip-rule="evenodd" fill="#CC2A15" d="M28.2,176.4c-1.8,0-3.6,0.1-5.3,0.4
					c-2.2,0.8-13.6,7.1-18.9,18.4c-1.3,3-2,5.9-2,8.2c0,2.4,0.7,4.2,2.2,5.4c0.7,0.6,1.6,0.9,2.8,0.9c3.2,0,8.1-2.2,12.8-5.2
					c4.7-3,9.2-6.6,12.1-9c1.9-1.6,3-2.6,3-2.6c0.6-0.5,1.4-0.6,2.1-0.1c0.6,0.5,0.9,1.3,0.5,2l-12.8,27.9c1.5-1.2,3.3-2.6,5.2-4
					c6.1-4.3,13.4-8.8,19.3-8.9c1.8,0,3.5,0.5,4.9,1.6c2.4,2,3.4,4.9,3.4,8c0,4.8-2.3,10.3-5.6,15.8c-0.8,1.3-1.6,2.5-2.5,3.8
					c8.2-6.4,13.5-16.4,13.5-27.6C63.2,192,47.5,176.4,28.2,176.4z"/>
				<path fill-rule="evenodd" clip-rule="evenodd" fill="#333333" d="M54.5,219.3c0-2.4-0.7-4.2-2.2-5.4c-0.7-0.6-1.6-0.9-2.8-0.9
					c-3.2,0-8.1,2.2-12.8,5.2c-4.7,3-9.2,6.6-12.1,9c-1.9,1.6-3,2.6-3.1,2.6c-0.6,0.5-1.4,0.6-2.1,0.1c-0.6-0.5-0.8-1.3-0.5-2
					L31.6,200c-1.5,1.2-3.3,2.6-5.2,4c-6.1,4.4-13.4,8.8-19.3,8.9c-1.8,0-3.5-0.5-4.9-1.6c-2.4-2-3.4-4.9-3.4-8
					c0-4.8,2.3-10.3,5.6-15.8c0.8-1.3,1.6-2.5,2.5-3.8c-8.2,6.4-13.5,16.4-13.5,27.6c0,19.3,15.6,34.9,34.9,34.9
					c1.8,0,3.6-0.1,5.3-0.4c2.2-0.8,13.6-7.1,18.9-18.4C53.8,224.5,54.5,221.6,54.5,219.3z"/>
			</g>
			<g>
				<g>
					<path fill-rule="evenodd" clip-rule="evenodd" fill="#FFFFFF" d="M7.3,188.2c0,2.4-2.2,8.4-2.2,8.4l-3,0.8L7.3,188.2z"/>
					<path fill-rule="evenodd" clip-rule="evenodd" fill="#FFFFFF" d="M1.9,194.8c0.9,2.2,1.2,8.6,1.2,8.6l-2.5,1.8L1.9,194.8z"/>
					<path fill-rule="evenodd" clip-rule="evenodd" fill="#FFFFFF" d="M16.9,206.9c-1.2,2.1-6.1,6.3-6.1,6.3l-3-0.8L16.9,206.9z"/>
					<path fill-rule="evenodd" clip-rule="evenodd" fill="#FFFFFF" d="M26,203.1c-1.2,2.1-6.1,6.3-6.1,6.3l-3-0.8L26,203.1z"/>
				</g>
				<g>
					<path fill-rule="evenodd" clip-rule="evenodd" fill="#FFFFFF" d="M49.2,234.5c0-2.4,2.3-8.4,2.3-8.4l3-0.8L49.2,234.5z"/>
					<path fill-rule="evenodd" clip-rule="evenodd" fill="#FFFFFF" d="M54.6,227.9c-0.9-2.2-1.2-8.6-1.2-8.6l2.5-1.8L54.6,227.9z"/>
					<path fill-rule="evenodd" clip-rule="evenodd" fill="#FFFFFF" d="M39.6,215.8c1.2-2.1,6.1-6.3,6.1-6.3l3,0.8L39.6,215.8z"/>
					<path fill-rule="evenodd" clip-rule="evenodd" fill="#FFFFFF" d="M30.5,219.6c1.2-2.1,6.1-6.3,6.1-6.3l3,0.8L30.5,219.6z"/>
				</g>
			</g>
		</g>
		<g>
			<path fill="#333333" d="M321.5,235.2c0-0.5-0.3-0.7-0.9-0.8c-0.6-0.1-0.9,0.1-1.3,0.5c-1.3,2.2-2.9,3.8-5.1,5
				c-2.2,1.2-4.4,1.7-6.7,1.7c-1.2,0-2.3-0.1-3.4-0.5c-1.2-0.2-2.1-0.7-3-1.4c-0.8-0.6-1.5-1.4-2.1-2.3c-0.5-0.9-0.8-2-0.8-3.2
				v-34.7c0-1.2,0.5-2,1.2-2.5c0.8-0.6,1.7-0.8,2.9-0.7h1c0.6,0,0.9-0.2,1-0.7c0-0.5-0.2-0.8-0.7-0.9c-1.4-0.3-2.7-0.6-4.2-0.7
				c-1.4,0-2.8,0-4.2,0c-0.9,0-1.9,0-2.8,0c-0.9,0-1.9,0-2.8,0h-5.3c-0.5,0-0.8,0.1-1,0.5c-0.2,0.2-0.2,0.5,0,0.8
				c0.1,0.3,0.6,0.6,1.3,0.8c0.7,0.1,1.3,0.2,1.9,0.2c0.7,0.1,1.4,0.3,2,0.7c0.7,0.4,1,1.2,1,2.7v37.7c0,1.6-0.2,3-0.8,4.1
				c-0.6,1-1.7,1.6-3.5,1.6c-0.6,0-0.9,0.3-0.9,0.8c-0.1,0.6,0.2,0.8,0.8,0.9c3.1,0.2,6.4,0.2,9.6,0.2c1.3,0,2.6,0,3.9,0
				c1.3,0,2.6,0,3.8,0c1.5-0.1,3-0.1,4.4-0.1c1.6,0,3.1,0,4.6,0c1.4,0,2.9,0,4.4,0c1.5,0,2.9,0.1,4.4,0.2l0.2-1.6
				c-0.1-0.1-0.2-0.1-0.3-0.1c-0.1,0.1-0.2,0-0.3,0c0.6-1.2,0.9-2.3,1.2-3.5c0.1-1.3,0.2-2.4,0.3-3.7c0-0.2,0-0.3,0-0.5
				C321.4,235.4,321.5,235.3,321.5,235.2L321.5,235.2z"/>
			<path fill="#333333" d="M277.4,242c-1.4-0.5-2.4-1.4-3.1-2.8c-2.4-4.3-4.6-8.8-6.6-13.3c-2-4.5-3.9-9-5.9-13.6l-4.2-9.5
				c-0.1-0.1-0.2-0.3-0.4-0.7c-0.2-0.3-0.3-0.8-0.6-1.2c-0.2-0.6-0.6-1.4-1-2.3c-0.3-0.8-0.7-1.6-1.2-2.4c-0.5-0.8-0.9-1.5-1.4-2.1
				c-0.3-0.6-0.8-1-1.3-1.2c-0.6-0.2-0.9-0.1-1.2,0c-0.1,0.1-0.2,0.2-0.2,0.3c-2,4.3-3.8,8.7-5.7,13c-1.9,4.4-3.7,8.7-5.6,13.1
				c-1.3,3-2.5,6-3.9,9.2c-1.3,3.1-2.7,6.3-3.9,9.3c-0.2,0.5-0.7,1.2-1.3,1.9c-0.5,0.6-1,1.3-1.7,1.7c-0.6,0.6-1.3,0.9-2,1.2
				c-0.5,0.2-0.8,0.2-1.3,0.2v1.6l15.5,0.2c0.7,0,1-0.2,1-0.8c0-0.5-0.2-0.8-0.9-0.9c-0.6-0.1-1.3-0.2-2.2-0.5
				c-0.8-0.2-1.2-0.7-1.2-1.4c0-0.5,0.2-1.5,0.6-2.8c0.5-1.4,0.9-2.8,1.6-4.3c0.6-1.6,1.3-3.1,1.9-4.8c0.6-1.5,1.2-2.8,1.7-3.7h15.2
				c1.4,2.9,2.7,5.7,3.8,8.3c1.2,2.7,2.4,5.4,3.7,8.3l-0.8,1c-0.5,0.4-0.6,0.6-0.3,0.9c0.1,0.3,0.5,0.5,0.9,0.5
				c1.2,0,2.3,0.1,3.4,0.1c1,0,2.2,0.1,3.4,0.1c1.5,0,3.1-0.1,4.6-0.1c1.5-0.1,3-0.2,4.5-0.3v-1.6
				C280.1,242.7,278.7,242.3,277.4,242z M244.6,221.5c1.2-2.8,2.2-5.4,3-7.9c0.9-2.4,1.9-5,2.9-7.8l0.1,0.1l6,15.5H244.6z"/>
			<path fill="#333333" d="M231.5,194.3h-1c-2.4-0.1-4.9-0.2-7.3-0.3c-2.8,0-5.6-0.1-8.3-0.1c-0.9,0-1.3,0.3-1.2,0.9
				c0.1,0.7,0.5,1.2,1,1.2c0.6,0.1,1.3,0.2,2,0.2c0.3,0.1,0.8,0.2,1.2,0.2c0.5,0.1,0.8,0.2,1.2,0.5c0.2,0.2,0.6,0.5,0.7,0.9
				c0.2,0.5,0.3,1,0.3,1.7v7.3c0,2.4,0.1,4.8,0.1,7.2c0.1,2.4,0.1,4.9,0.1,7.2v7.2c0,2.3-0.5,4.2-1.3,5.9c-0.9,1.6-2.1,3-3.6,4.2
				c-1.5,1.2-3.2,2.1-5.1,2.7c-2,0.6-3.9,0.8-5.9,0.8c-2.1,0-4.1-0.2-5.9-0.8c-1.9-0.6-3.5-1.4-5-2.4c-1.4-1.2-2.5-2.6-3.5-4.2
				c-0.9-1.6-1.3-3.6-1.3-5.8v-29.2c0-1.4,0.5-2.3,1.4-2.7c0.9-0.5,2-0.7,3.2-0.8c0.6-0.1,0.8-0.3,0.8-0.8c0-0.5-0.2-0.7-0.8-0.8
				c-5.3-0.3-10.6-0.6-15.7-0.6h-3c-0.8,0-1.3,0.3-1,0.9c0.1,0.7,0.5,1.2,0.9,1.2c0.6,0.1,1.2,0.1,2,0.2c0.7,0.1,1.5,0.3,2.3,0.6
				c0.8,0.3,1.2,1.3,1.2,2.8v27.6c0,0.3,0.1,0.8,0.1,1.3c0.1,0.6,0.2,1,0.2,1.6v-0.1c0,2.8,0.7,5.2,2.3,7.3c1.5,2,3.5,3.7,5.8,5
				c2.4,1.4,5,2.4,7.8,3c2.9,0.7,5.6,1,8.1,1c3,0,6-0.6,8.8-1.5c2.8-1,5.1-2.4,7.2-4.3c2.1-1.9,3.7-4.1,4.9-6.6
				c1.3-2.6,1.9-5.4,1.9-8.6v-25.7c0-1.3,0.5-2.2,1.5-2.7c0.6-0.3,1.3-0.6,1.9-0.7c0.5-0.1,0.8-0.2,1.2-0.2L231.5,194.3z"/>
			<path fill="#333333" d="M230.5,242.8c-0.2,0-0.5,0-0.7-0.1l-0.5,1.7h1.2V242.8L230.5,242.8z"/>
			<path fill="#333333" d="M112.6,177.1l-1.6-0.8c-1.6,0.7-3.4,1-5,1H96c-4.1,0-8.1,0-12.2,0c-4.1-0.1-8.1-0.1-12.2-0.2
				c-0.5,0-0.8,0.1-1,0.6c-0.1,0.3,0.1,0.7,0.6,0.9c0.6,0.3,1.3,0.7,1.9,0.9c0.7,0.2,1.3,0.3,1.9,0.5c0.5,0.1,0.9,0.2,1.4,0.4
				c0.3,0.2,0.7,0.3,1,0.7c0.3,0.2,0.6,0.7,0.8,1.2c0.1,0.6,0.2,1.3,0.2,2.2V236c0,1.5,0,2.7-0.1,3.6c0,1-0.2,1.7-0.6,2.3
				c-0.5,0.7-1,1-1.7,1.4c-0.8,0.4-1.9,0.6-3.2,0.8c-0.6,0.1-0.9,0.5-0.9,0.9c0.1,0.5,0.3,0.7,1,0.7c3.8,0.2,7.8,0.2,11.7,0.2
				c3.9,0,7.8,0,11.5-0.2l-0.1-1.6c-3.2,0.1-5.2-0.5-6.1-1.9c-0.9-1.4-1.4-3.6-1.4-6.6v-23.8c0.5,0,0.9,0.1,1.3,0.1
				c0.3,0,0.8,0,1.3,0c0.7,0,1.4-0.1,2-0.1c0.6,0,1.3,0,2-0.1c0.6-0.1,1.2-0.1,1.7-0.1c0.6,0,1.2-0.1,1.7-0.1c2.4,0,4.4,0.6,5.7,1.5
				c1.4,0.9,2.1,2.8,2,5.4c0,0.2,0.1,0.5,0.3,0.6c0.2,0.1,0.5,0.1,0.7,0.2c0.2,0,0.5,0,0.7-0.1c0.2-0.1,0.3-0.2,0.5-0.6
				c0.5-2.1,0.9-4.3,1.3-6.6c0.2-2.2,0.5-4.4,0.6-6.7c0-0.5-0.2-0.7-0.6-0.8c-0.5-0.2-0.9-0.1-1.3,0.2c-0.3,0.3-0.8,0.8-1.6,1.4
				c-0.8,0.5-1.4,0.7-1.9,0.7H88.3V183c1,0,1.9-0.1,2.6-0.2c0.7-0.1,1.5-0.2,2.5-0.3c1.2-0.1,2.2-0.2,3.4-0.3c1-0.1,2.1-0.2,3.2-0.2
				c2.4,0,4.4,0.6,5.8,1.6c1.5,1,2.2,2.9,2.2,5.6c0,0.3,0.2,0.6,0.6,0.8c0.3,0.1,0.7,0,1.2-0.1c0.5-0.3,0.9-0.9,1.2-1.6
				c0.3-0.7,0.6-1.5,0.8-2.4c0.1-0.8,0.2-1.7,0.2-2.7c0.1-1,0.2-2,0.2-2.8c0.1-0.6,0.1-1.3,0.1-1.7
				C112.4,177.9,112.4,177.4,112.6,177.1L112.6,177.1z"/>
			<path fill="#333333" d="M135.4,243.6c-0.5-0.5-1-0.7-1.5-0.8c-0.6-0.1-1.2-0.1-1.9-0.1c-0.3,0-0.7,0-1-0.1
				c-0.5,0-0.7-0.1-0.9-0.1c-0.1-0.2-0.2-0.6-0.5-1c-0.2-0.5-0.3-1-0.5-1.6c-0.1-0.6-0.2-1-0.3-1.5c-0.1-0.6-0.1-0.9-0.1-1.2v-37.6
				c0-1.5,0.5-2.4,1.3-2.8c0.9-0.5,2-0.7,3.2-0.9c0.6-0.1,0.8-0.3,0.8-0.8c0-0.5-0.3-0.7-0.9-0.7c-1.4-0.1-2.8-0.1-4.2,0
				c-1.4,0.1-2.9,0.1-4.3,0.1c-1.5,0-3,0-4.5-0.1c-1.4-0.1-2.9-0.1-4.4,0c-0.6,0-0.9,0.2-1,0.7c0,0.5,0.3,0.8,0.9,0.8
				c1.2,0.1,2.2,0.5,3.2,1c1,0.5,1.5,1.4,1.5,2.7v37.8c0,0.6,0,1-0.1,1.7c-0.1,0.6-0.2,1.2-0.3,1.9c-0.2,0.6-0.5,1.2-0.8,1.5
				c-0.3,0.5-0.8,0.6-1.3,0.6c-0.1,0-0.3,0.1-0.5,0.1c-0.2,0.1-0.6,0.1-0.8,0c-0.6-0.1-1,0.1-1.3,0.7c-0.2,0.6-0.1,1,0.5,1.2
				c0.5,0.2,1,0.3,1.9,0.3c0.8,0,1.6,0,2.4,0c0.8-0.1,1.6-0.2,2.3-0.2c0.8-0.1,1.4-0.1,2-0.1l3.6,0.1c1.2,0,2.3,0,3.4,0
				c1.2-0.1,2.3-0.1,3.4,0L135.4,243.6L135.4,243.6z"/>
			<path fill="#333333" d="M171.3,231.3c0-1.6-0.3-3.1-1.2-4.5c-0.7-1.5-1.7-2.8-2.9-4.2c-1.3-1.3-2.5-2.4-4.1-3.6
				c-1.6-1.2-3-2.3-4.5-3.5c-1.2-0.8-2.3-1.7-3.5-2.7c-1.2-0.9-2.3-1.9-3.2-2.9c-1-1-1.9-2.1-2.4-3.1c-0.6-1-0.9-2.1-0.9-3.1
				c0-1.2,0.3-2.3,0.8-3.2c0.5-0.9,1.2-1.6,2-2.3c0.8-0.6,1.7-1,2.8-1.4c1-0.3,2.1-0.6,3.2-0.6c1,0,2.1,0.2,3.1,0.6
				c1,0.2,2,0.7,2.9,1.4c0.8,0.6,1.5,1.3,2.1,2.2c0.5,0.8,0.8,1.9,0.8,3c0,0.5,0.2,0.7,0.7,0.9c0.5,0.1,0.8,0,1.3-0.3
				c0.7-0.8,1.2-1.9,1.3-3.1c0.1-1.3,0.1-2.6,0.1-3.7v-2.7c0.1-0.5-0.1-0.8-0.8-0.9c-2.7-0.6-5.3-0.8-8-0.8c-1.7,0-3.7,0.2-6.1,0.6
				c-2.3,0.5-4.6,1-6.7,2c-2.2,0.9-4.1,2.2-5.4,3.8c-1.5,1.5-2.3,3.5-2.3,5.7c0,1.5,0.5,2.9,1.2,4.2c0.7,1.4,1.6,2.7,2.9,4.1
				c1.2,1.3,2.6,2.6,4.1,3.9c1.4,1.3,2.9,2.6,4.4,3.8c1.4,1,2.7,2.2,3.9,3.4c1.4,1,2.6,2.2,3.6,3.4c1,1.2,1.9,2.3,2.6,3.5
				c0.6,1.2,0.9,2.2,0.9,3.4c0,1.3-0.3,2.3-1,3.2c-0.7,0.9-1.5,1.7-2.7,2.3c-1,0.6-2.2,1-3.4,1.4c-1.3,0.3-2.4,0.6-3.4,0.6
				c-1.3,0-2.4-0.2-3.7-0.5c-1.3-0.3-2.3-0.8-3.4-1.5c-1-0.6-1.9-1.4-2.4-2.3c-0.6-1-0.8-2.2-0.7-3.5v-1c0-0.3-0.1-0.5-0.3-0.6
				c-0.2-0.1-0.5-0.2-0.7-0.2c-0.2,0-0.5,0.1-0.8,0.1c-0.2,0.1-0.3,0.3-0.3,0.6c0,1-0.2,1.9-0.6,2.6c-0.2,0.7-0.5,1.4-0.6,2.1
				c-0.1,0.6-0.2,1.3-0.2,1.9c0,1.3,0.3,2.3,1,3.2c0.8,0.8,1.6,1.5,2.7,2c1,0.5,2.2,0.8,3.4,1c1.3,0.1,2.3,0.2,3.4,0.2
				c2,0,4.3-0.3,6.7-0.9c2.6-0.7,4.9-1.6,7-2.9c2.2-1.2,4.1-2.8,5.4-4.5C170.6,235.7,171.3,233.6,171.3,231.3z"/>
		</g>
	</g>
</g>
<g id="Layer_4">
	<g>
		<g>
			<path d="M300,81.4c0-0.4-0.3-0.6-0.8-0.7c-0.5-0.1-0.8,0.1-1.1,0.4c-1.1,1.9-2.5,3.3-4.4,4.3c-1.9,1-3.8,1.5-5.8,1.5
				c-1,0-2-0.1-2.9-0.4c-1-0.2-1.8-0.6-2.6-1.2c-0.7-0.5-1.3-1.2-1.8-2c-0.4-0.8-0.7-1.7-0.7-2.8v-30c0-1,0.4-1.7,1-2.2
				c0.7-0.5,1.5-0.7,2.5-0.6h0.9c0.5,0,0.8-0.2,0.9-0.6c0-0.4-0.2-0.7-0.6-0.8c-1.2-0.3-2.3-0.5-3.6-0.6c-1.2,0-2.4,0-3.6,0
				c-0.8,0-1.6,0-2.4,0c-0.8,0-1.6,0-2.4,0h-4.6c-0.4,0-0.7,0.1-0.9,0.4c-0.2,0.2-0.2,0.4,0,0.7c0.1,0.3,0.5,0.5,1.1,0.7
				c0.6,0.1,1.1,0.2,1.6,0.2c0.6,0.1,1.2,0.3,1.7,0.6c0.6,0.3,0.9,1,0.9,2.3v32.6c0,1.4-0.2,2.6-0.7,3.5c-0.5,0.9-1.5,1.4-3,1.4
				c-0.5,0-0.8,0.3-0.8,0.7c-0.1,0.5,0.2,0.7,0.7,0.8c2.7,0.2,5.5,0.2,8.3,0.2c1.1,0,2.2,0,3.4,0c1.1,0,2.2,0,3.3,0
				c1.3-0.1,2.6-0.1,3.8-0.1c1.4,0,2.7,0,4,0c1.2,0,2.5,0,3.8,0c1.3,0,2.5,0.1,3.8,0.2l0.2-1.4c-0.1-0.1-0.2-0.1-0.3-0.1
				c-0.1,0.1-0.2,0-0.3,0c0.5-1,0.8-2,1-3c0.1-1.1,0.2-2.1,0.3-3.2c0-0.2,0-0.3,0-0.4C299.9,81.6,300,81.5,300,81.4L300,81.4z"/>
			<path d="M261.9,87.3c-1.2-0.4-2.1-1.2-2.7-2.4c-2.1-3.7-4-7.6-5.7-11.5c-1.7-3.9-3.4-7.8-5.1-11.7l-3.6-8.2
				c-0.1-0.1-0.2-0.3-0.3-0.6c-0.2-0.3-0.3-0.7-0.5-1c-0.2-0.5-0.5-1.2-0.9-2c-0.3-0.7-0.6-1.4-1-2.1c-0.4-0.7-0.8-1.3-1.2-1.8
				c-0.3-0.5-0.7-0.9-1.1-1c-0.5-0.2-0.8-0.1-1,0c-0.1,0.1-0.2,0.2-0.2,0.3c-1.7,3.7-3.3,7.5-4.9,11.2c-1.6,3.8-3.2,7.5-4.8,11.3
				c-1.1,2.6-2.2,5.2-3.4,7.9c-1.1,2.7-2.3,5.4-3.4,8c-0.2,0.4-0.6,1-1.1,1.6c-0.4,0.5-0.9,1.1-1.5,1.5c-0.5,0.5-1.1,0.8-1.7,1
				c-0.4,0.2-0.7,0.2-1.1,0.2v1.4l13.4,0.2c0.6,0,0.9-0.2,0.9-0.7c0-0.4-0.2-0.7-0.8-0.8c-0.5-0.1-1.1-0.2-1.9-0.4
				c-0.7-0.2-1-0.6-1-1.2c0-0.4,0.2-1.3,0.5-2.4c0.4-1.2,0.8-2.4,1.4-3.7c0.5-1.4,1.1-2.7,1.6-4.1c0.5-1.3,1-2.4,1.5-3.2h13.1
				c1.2,2.5,2.3,4.9,3.3,7.2c1,2.3,2.1,4.7,3.2,7.2l-0.7,0.9c-0.4,0.3-0.5,0.5-0.3,0.8c0.1,0.3,0.4,0.4,0.8,0.4c1,0,2,0.1,2.9,0.1
				c0.9,0,1.9,0.1,2.9,0.1c1.3,0,2.7-0.1,4-0.1c1.3-0.1,2.6-0.2,3.9-0.3V88C264.2,87.9,263,87.6,261.9,87.3z M233.5,69.6
				c1-2.4,1.9-4.7,2.6-6.8c0.8-2.1,1.6-4.3,2.5-6.7l0.1,0.1l5.2,13.4L233.5,69.6L233.5,69.6z"/>
			<path d="M222.2,46.1h-0.9c-2.1-0.1-4.2-0.2-6.3-0.3c-2.4,0-4.8-0.1-7.2-0.1c-0.8,0-1.1,0.3-1,0.8c0.1,0.6,0.4,1,0.9,1
				c0.5,0.1,1.1,0.2,1.7,0.2c0.3,0.1,0.7,0.2,1,0.2c0.4,0.1,0.7,0.2,1,0.4c0.2,0.2,0.5,0.4,0.6,0.8c0.2,0.4,0.3,0.9,0.3,1.5v6.3
				c0,2.1,0.1,4.1,0.1,6.2c0.1,2.1,0.1,4.2,0.1,6.2v6.2c0,2-0.4,3.6-1.1,5.1c-0.8,1.4-1.8,2.6-3.1,3.6c-1.3,1-2.8,1.8-4.4,2.3
				c-1.7,0.5-3.4,0.7-5.1,0.7c-1.8,0-3.5-0.2-5.1-0.7c-1.6-0.5-3-1.2-4.3-2.1c-1.2-1-2.2-2.2-3-3.6c-0.8-1.4-1.1-3.1-1.1-5V50.6
				c0-1.2,0.4-2,1.2-2.3c0.8-0.4,1.7-0.6,2.8-0.7c0.5-0.1,0.7-0.3,0.7-0.7c0-0.4-0.2-0.6-0.7-0.7c-4.6-0.3-9.1-0.5-13.5-0.5h-2.6
				c-0.7,0-1.1,0.3-0.9,0.8c0.1,0.6,0.4,1,0.8,1c0.5,0.1,1,0.1,1.7,0.2c0.6,0.1,1.3,0.3,2,0.5c0.7,0.3,1,1.1,1,2.4v23.9
				c0,0.3,0.1,0.7,0.1,1.1c0.1,0.5,0.2,0.9,0.2,1.4v-0.1c0,2.4,0.6,4.5,2,6.3c1.3,1.7,3,3.2,5,4.3c2.1,1.2,4.3,2.1,6.7,2.6
				c2.5,0.6,4.8,0.9,7,0.9c2.6,0,5.2-0.5,7.6-1.3c2.4-0.9,4.4-2.1,6.2-3.7c1.8-1.6,3.2-3.5,4.2-5.7c1.1-2.2,1.6-4.7,1.6-7.4V50.6
				c0-1.1,0.4-1.9,1.3-2.3c0.5-0.3,1.1-0.5,1.6-0.6c0.4-0.1,0.7-0.2,1-0.2L222.2,46.1z"/>
			<path d="M221.3,88c-0.2,0-0.4,0-0.6-0.1l-0.4,1.5h1L221.3,88L221.3,88z"/>
			<path d="M119.3,31.2l-1.4-0.7c-1.4,0.6-2.9,0.9-4.3,0.9H105c-3.5,0-7,0-10.5,0c-3.5-0.1-7-0.1-10.5-0.2c-0.4,0-0.7,0.1-0.9,0.5
				c-0.1,0.3,0.1,0.6,0.5,0.8c0.5,0.3,1.1,0.6,1.6,0.8c0.6,0.2,1.1,0.3,1.6,0.4c0.4,0.1,0.8,0.2,1.2,0.3c0.3,0.2,0.6,0.3,0.9,0.6
				c0.3,0.2,0.5,0.6,0.7,1c0.1,0.5,0.2,1.1,0.2,1.9v44.6c0,1.3,0,2.3-0.1,3.1c0,0.9-0.2,1.5-0.5,2c-0.4,0.6-0.9,0.9-1.5,1.2
				c-0.7,0.3-1.6,0.5-2.8,0.7c-0.5,0.1-0.8,0.4-0.8,0.8c0.1,0.4,0.3,0.6,0.9,0.6c3.3,0.2,6.7,0.2,10.1,0.2c3.4,0,6.7,0,9.9-0.2
				l-0.1-1.4c-2.8,0.1-4.5-0.4-5.3-1.6c-0.8-1.2-1.2-3.1-1.2-5.7V61.3c0.4,0,0.8,0.1,1.1,0.1c0.3,0,0.7,0,1.1,0
				c0.6,0,1.2-0.1,1.7-0.1c0.5,0,1.1,0,1.7-0.1c0.5-0.1,1-0.1,1.5-0.1c0.5,0,1-0.1,1.5-0.1c2.1,0,3.8,0.5,4.9,1.3
				c1.2,0.8,1.8,2.4,1.7,4.7c0,0.2,0.1,0.4,0.3,0.5c0.2,0.1,0.4,0.1,0.6,0.2c0.2,0,0.4,0,0.6-0.1c0.2-0.1,0.3-0.2,0.4-0.5
				c0.4-1.8,0.8-3.7,1.1-5.7c0.2-1.9,0.4-3.8,0.5-5.8c0-0.4-0.2-0.6-0.5-0.7c-0.4-0.2-0.8-0.1-1.1,0.2c-0.3,0.3-0.7,0.7-1.4,1.2
				c-0.7,0.4-1.2,0.6-1.6,0.6H98.4V36.3c0.9,0,1.6-0.1,2.2-0.2c0.6-0.1,1.3-0.2,2.2-0.3c1-0.1,1.9-0.2,2.9-0.3
				c0.9-0.1,1.8-0.2,2.8-0.2c2.1,0,3.8,0.5,5,1.4c1.3,0.9,1.9,2.5,1.9,4.8c0,0.3,0.2,0.5,0.5,0.7c0.3,0.1,0.6,0,1-0.1
				c0.4-0.3,0.8-0.8,1-1.4c0.3-0.6,0.5-1.3,0.7-2.1c0.1-0.7,0.2-1.5,0.2-2.3c0.1-0.9,0.2-1.7,0.2-2.4c0.1-0.5,0.1-1.1,0.1-1.5
				C119.2,31.9,119.2,31.5,119.3,31.2L119.3,31.2z"/>
			<path d="M139,88.7c-0.4-0.4-0.9-0.6-1.3-0.7c-0.5-0.1-1-0.1-1.6-0.1c-0.3,0-0.6,0-0.9-0.1c-0.4,0-0.6-0.1-0.8-0.1
				c-0.1-0.2-0.2-0.5-0.4-0.9c-0.2-0.4-0.3-0.9-0.4-1.4c-0.1-0.5-0.2-0.9-0.3-1.3c-0.1-0.5-0.1-0.8-0.1-1V50.6
				c0-1.3,0.4-2.1,1.1-2.4c0.8-0.4,1.7-0.6,2.8-0.8c0.5-0.1,0.7-0.3,0.7-0.7c0-0.4-0.3-0.6-0.8-0.6c-1.2-0.1-2.4-0.1-3.6,0
				c-1.2,0.1-2.5,0.1-3.7,0.1c-1.3,0-2.6,0-3.9-0.1c-1.2-0.1-2.5-0.1-3.8,0c-0.5,0-0.8,0.2-0.9,0.6c0,0.4,0.3,0.7,0.8,0.7
				c1,0.1,1.9,0.4,2.8,0.9c0.9,0.4,1.3,1.2,1.3,2.3v32.7c0,0.5,0,0.9-0.1,1.5c-0.1,0.5-0.2,1-0.3,1.6c-0.2,0.5-0.4,1-0.7,1.3
				c-0.3,0.4-0.7,0.5-1.1,0.5c-0.1,0-0.3,0.1-0.4,0.1c-0.2,0.1-0.5,0.1-0.7,0c-0.5-0.1-0.9,0.1-1.1,0.6c-0.2,0.5-0.1,0.9,0.4,1
				c0.4,0.2,0.9,0.3,1.6,0.3c0.7,0,1.4,0,2.1,0c0.7-0.1,1.4-0.2,2-0.2c0.7-0.1,1.2-0.1,1.7-0.1l3.1,0.1c1,0,2,0,2.9,0
				c1-0.1,2-0.1,2.9,0L139,88.7L139,88.7z"/>
			<path d="M170.1,78.1c0-1.4-0.3-2.7-1-3.9c-0.6-1.3-1.5-2.4-2.5-3.6c-1.1-1.1-2.2-2.1-3.5-3.1c-1.4-1-2.6-2-3.9-3
				c-1-0.7-2-1.5-3-2.3c-1-0.8-2-1.6-2.8-2.5c-0.9-0.9-1.6-1.8-2.1-2.7c-0.5-0.9-0.8-1.8-0.8-2.7c0-1,0.3-2,0.7-2.8
				c0.4-0.8,1-1.4,1.7-2c0.7-0.5,1.5-0.9,2.4-1.2c0.9-0.3,1.8-0.5,2.8-0.5c0.9,0,1.8,0.2,2.7,0.5c0.9,0.2,1.7,0.6,2.5,1.2
				c0.7,0.5,1.3,1.1,1.8,1.9c0.4,0.7,0.7,1.6,0.7,2.6c0,0.4,0.2,0.6,0.6,0.8c0.4,0.1,0.7,0,1.1-0.3c0.6-0.7,1-1.6,1.1-2.7
				c0.1-1.1,0.1-2.2,0.1-3.2v-2.3c0.1-0.4-0.1-0.7-0.7-0.8c-2.3-0.5-4.6-0.7-6.9-0.7c-1.5,0-3.2,0.2-5.3,0.5c-2,0.4-4,0.9-5.8,1.7
				c-1.9,0.8-3.5,1.9-4.7,3.3c-1.3,1.3-2,3-2,4.9c0,1.3,0.4,2.5,1,3.6c0.6,1.2,1.4,2.3,2.5,3.5c1,1.1,2.2,2.2,3.5,3.4
				c1.2,1.1,2.5,2.2,3.8,3.3c1.2,0.9,2.3,1.9,3.4,2.9c1.2,0.9,2.2,1.9,3.1,2.9c0.9,1,1.6,2,2.2,3c0.5,1,0.8,1.9,0.8,2.9
				c0,1.1-0.3,2-0.9,2.8c-0.6,0.8-1.3,1.5-2.3,2c-0.9,0.5-1.9,0.9-2.9,1.2c-1.1,0.3-2.1,0.5-2.9,0.5c-1.1,0-2.1-0.2-3.2-0.4
				c-1.1-0.3-2-0.7-2.9-1.3c-0.9-0.5-1.6-1.2-2.1-2c-0.5-0.9-0.7-1.9-0.6-3v-0.9c0-0.3-0.1-0.4-0.3-0.5c-0.2-0.1-0.4-0.2-0.6-0.2
				c-0.2,0-0.4,0.1-0.7,0.1c-0.2,0.1-0.3,0.3-0.3,0.5c0,0.9-0.2,1.6-0.5,2.2c-0.2,0.6-0.4,1.2-0.5,1.8c-0.1,0.5-0.2,1.1-0.2,1.6
				c0,1.1,0.3,2,0.9,2.8c0.7,0.7,1.4,1.3,2.3,1.7c0.9,0.4,1.9,0.7,2.9,0.9c1.1,0.1,2,0.2,2.9,0.2c1.7,0,3.7-0.3,5.8-0.8
				c2.2-0.6,4.2-1.4,6-2.5c1.9-1,3.5-2.4,4.7-3.9C169.4,81.9,170.1,80.1,170.1,78.1z"/>
		</g>
		<g>
			<g>
				<path d="M34.9,26.9c-1.8,0-3.6,0.1-5.3,0.4c-2.2,0.8-13.5,7.1-18.9,18.4c-1.3,3-2,5.9-2,8.2c0,2.4,0.7,4.2,2.2,5.4
					c0.7,0.6,1.6,0.9,2.8,0.9c3.2,0,8.1-2.2,12.8-5.2c4.7-3,9.2-6.6,12.1-9c1.9-1.6,3-2.6,3-2.6c0.6-0.5,1.4-0.6,2.1-0.1
					c0.6,0.5,0.9,1.3,0.5,2L31.5,73.1c1.5-1.2,3.3-2.6,5.2-4c6.1-4.3,13.4-8.8,19.3-8.9c1.8,0,3.5,0.5,4.9,1.6c2.4,2,3.4,4.9,3.4,8
					c0,4.8-2.3,10.3-5.6,15.8c-0.8,1.3-1.6,2.5-2.5,3.8C64.6,83,69.8,73,69.8,61.8C69.8,42.5,54.2,26.9,34.9,26.9z"/>
				<path d="M61.1,69.8c0-2.4-0.7-4.2-2.2-5.4c-0.7-0.6-1.6-0.9-2.8-0.9c-3.2,0-8.1,2.2-12.8,5.2c-4.7,3-9.2,6.6-12.1,9
					c-1.9,1.6-3,2.6-3,2.6c-0.6,0.5-1.4,0.6-2.1,0.1c-0.6-0.5-0.8-1.3-0.5-2l12.8-27.9c-1.5,1.2-3.3,2.6-5.2,3.9
					c-6.1,4.3-13.4,8.8-19.3,8.9c-1.8,0-3.5-0.5-4.9-1.6c-2.4-2-3.4-4.9-3.4-8c0-4.8,2.3-10.3,5.6-15.8c0.8-1.3,1.6-2.5,2.5-3.8
					C5.3,40.7,0,50.6,0,61.8c0,19.3,15.6,34.9,34.9,34.9c1.8,0,3.6-0.1,5.3-0.4c2.2-0.8,13.6-7.1,18.9-18.4
					C60.4,75,61.1,72.1,61.1,69.8z"/>
			</g>
			<g>
				<path d="M23.3,24.1c-1.1-0.9-1.9-2-2.1-2.9c-0.5,1-1.5,2.8-2,3.4c-0.5,0.6,0.1,1.9,1.3,2.9c1.2,1,2.6,1.3,3.1,0.7
					c0.5-0.6,2.1-1.9,2.9-2.6C25.6,25.5,24.4,25,23.3,24.1z"/>
				<path d="M38.8,8.9c-1.3,0.6-2.6-0.5-2.6-0.5s-1.3-1.1-1-2.5c-1.6,0.3-3.9,1.6-4.5,2.3c-0.6,0.7,0.9,2.9,2.4,4
					c1.4,1.2,3.9,2.2,4.4,1.5C38,13.1,38.8,10.5,38.8,8.9z"/>
				<path d="M31.9,13.5c-1.4-1.1-2.4-2.5-2.7-3.6c-0.6,1.2-6,8.7-6.6,9.4c-0.6,0.8,0.1,2.4,1.7,3.6c1.5,1.2,3.3,1.6,3.9,0.9
					c0.6-0.7,6.8-7.6,7.8-8.4C34.9,15.3,33.3,14.6,31.9,13.5z"/>
				<path d="M37.1,4.7l3.3-4C41-0.1,42-0.2,42.8,0.4l0,0C43.5,1,43.6,2.1,43,2.8l0,0l-3.3,4c-0.6,0.7-1.7,0.9-2.4,0.3l0,0
					C36.6,6.5,36.5,5.4,37.1,4.7L37.1,4.7z"/>
			</g>
		</g>
	</g>
</g>
</svg>
