<?xml version="1.0" encoding="utf-8"?>
<!-- Generator: Adobe Illustrator 18.0.0, SVG Export Plug-In . SVG Version: 6.00 Build 0)  -->
<!DOCTYPE svg PUBLIC "-//W3C//DTD SVG 1.1//EN" "http://www.w3.org/Graphics/SVG/1.1/DTD/svg11.dtd">
<svg version="1.1" xmlns="http://www.w3.org/2000/svg" xmlns:xlink="http://www.w3.org/1999/xlink" x="0px" y="0px"
	 viewBox="0 0 450 47.7" enable-background="new 0 0 450 47.7" xml:space="preserve">
<g id="Layer_1">
	<g>
		<g>
			<path fill="#EFE6DC" d="M20.7,23.7h17.1v21.1c-4.5,1.9-9.5,2.9-15.1,2.9c-7.3,0-12.9-2.1-16.8-6.2C1.9,37.4,0,31.5,0,24
				c0-4.7,1-8.9,2.9-12.5C4.8,7.8,7.6,5,11.2,3c3.6-2,7.7-3,12.4-3c5,0,9.6,0.9,13.6,2.8l-1.3,2.9c-4-1.9-8.2-2.8-12.5-2.8
				c-6.1,0-10.9,1.9-14.5,5.7c-3.6,3.8-5.4,8.9-5.4,15.3c0,7,1.7,12.2,5.1,15.7c3.4,3.5,8.4,5.3,15,5.3c4.3,0,7.9-0.6,10.9-1.8V26.7
				H20.7V23.7z"/>
			<path fill="#EFE6DC" d="M74.7,47.1H49.4V0.7h25.3v3H52.6v17.5h20.8v3H52.6v19.9h22.1V47.1z"/>
			<path fill="#EFE6DC" d="M97.3,47.1H94V3.8H79v-3h33.4v3h-15V47.1z"/>
		</g>
		<g>
			<path fill="#EFE6DC" d="M262,35.1c0,3.9-1.4,6.9-4.3,9.2s-6.6,3.4-11.3,3.4c-5.7,0-10-0.6-13-1.9v-3.2c3.3,1.4,7.6,2.1,12.8,2.1
				c3.8,0,6.8-0.9,9-2.6c2.2-1.7,3.3-4,3.3-6.9c0-1.8-0.4-3.2-1.1-4.4c-0.7-1.2-1.9-2.2-3.6-3.2c-1.7-1-4.1-2-7.4-3.1
				c-4.7-1.6-8-3.4-9.8-5.3c-1.8-1.9-2.7-4.4-2.7-7.6c0-3.5,1.4-6.3,4.1-8.5c2.7-2.2,6.2-3.3,10.5-3.3c4.4,0,8.4,0.8,12.3,2.5
				l-1.2,2.8c-3.8-1.6-7.5-2.4-11-2.4c-3.4,0-6.1,0.8-8.2,2.4c-2,1.6-3,3.7-3,6.5c0,1.7,0.3,3.1,0.9,4.2c0.6,1.1,1.6,2.1,3.1,3
				c1.4,0.9,3.8,1.9,7.3,3.2c3.6,1.2,6.3,2.5,8.1,3.6s3.1,2.5,4,4C261.6,31.2,262,33,262,35.1z"/>
			<path fill="#EFE6DC" d="M310.7,23.8c0,7.4-1.8,13.2-5.5,17.4c-3.7,4.3-8.7,6.4-15.2,6.4c-6.4,0-11.5-2.1-15.2-6.4
				c-3.7-4.3-5.5-10.1-5.5-17.5c0-7.4,1.9-13.2,5.6-17.4c3.7-4.2,8.8-6.4,15.2-6.4c6.5,0,11.5,2.1,15.2,6.4
				C308.9,10.6,310.7,16.5,310.7,23.8z M272.8,23.8c0,6.6,1.5,11.8,4.4,15.4c3,3.6,7.2,5.4,12.7,5.4c5.6,0,9.8-1.8,12.8-5.4
				c2.9-3.6,4.4-8.7,4.4-15.4c0-6.7-1.5-11.8-4.4-15.4c-2.9-3.6-7.2-5.3-12.7-5.3c-5.5,0-9.8,1.8-12.8,5.4
				C274.3,12.1,272.8,17.2,272.8,23.8z"/>
			<path fill="#EFE6DC" d="M355.4,0.7v30c0,5.3-1.5,9.5-4.6,12.5c-3.1,3-7.4,4.5-12.9,4.5c-5.4,0-9.6-1.5-12.6-4.5
				c-3-3-4.5-7.2-4.5-12.6V0.7h3.3v30c0,4.5,1.2,7.9,3.7,10.4c2.5,2.5,6,3.7,10.5,3.7c4.4,0,7.8-1.2,10.3-3.7
				c2.4-2.4,3.6-5.8,3.6-10.2V0.7H355.4z"/>
			<path fill="#EFE6DC" d="M401.7,47.1h-3.3L371,5.9h-0.3c0.3,4.9,0.4,8.6,0.4,11.1v30H368V0.7h3.2l27.4,41.1h0.2
				c-0.2-3.8-0.3-7.4-0.3-10.8V0.7h3.1V47.1z"/>
			<path fill="#EFE6DC" d="M450,23.4c0,7.8-2,13.7-6.1,17.6c-4.1,4-10.1,6-18,6h-11.1V0.7h12.5c7.4,0,13,1.9,16.9,5.8
				C448.1,10.4,450,16,450,23.4z M446.5,23.6c0-6.6-1.7-11.6-5.1-15s-8.3-5-14.8-5h-8.5v40.6h7.7C439.6,44.2,446.5,37.3,446.5,23.6z
				"/>
		</g>
		<g>
			<path fill="#EFE6DC" d="M166.1,47.1h-7.6V26.2h-21.4v20.9h-7.6V0.7h7.6v18.9h21.4V0.7h7.6V47.1z"/>
			<path fill="#EFE6DC" d="M216,23.4c0,7.6-2.1,13.5-6.4,17.5c-4.2,4-10.4,6.1-18.3,6.1h-13V0.7h14.3c7.4,0,13.1,2,17.2,6
				C213.9,10.7,216,16.2,216,23.4z M208,23.7c0-11.1-5.2-16.6-15.6-16.6h-6.6v33.6h5.4C202.4,40.7,208,35,208,23.7z"/>
		</g>
	</g>
</g>
<g id="Layer_2" display="none">
	<rect x="-108.1" y="-194.3" display="inline" fill="#795934" width="604.4" height="286.3"/>
	
		<text transform="matrix(1 0 0 1 13.6253 -47.1936)" display="inline" fill="#EFE6DC" font-family="'OpenSans-Light'" font-size="56.2734">GET</text>
	
		<text transform="matrix(1 0 0 1 216.5003 -47.1936)" display="inline" fill="#EFE6DC" font-family="'OpenSans-Light'" font-size="56.2734">SOUND</text>
	
		<text transform="matrix(1 0 0 1 124.2503 -47.1936)" display="inline" fill="#EFE6DC" font-family="'OpenSans-Semibold'" font-size="56.2734">HD</text>
</g>
</svg>
