<?xml version="1.0" encoding="utf-8"?>
<!-- Generator: Adobe Illustrator 18.0.0, SVG Export Plug-In . SVG Version: 6.00 Build 0)  -->
<!DOCTYPE svg PUBLIC "-//W3C//DTD SVG 1.1//EN" "http://www.w3.org/Graphics/SVG/1.1/DTD/svg11.dtd">
<svg version="1.1" xmlns="http://www.w3.org/2000/svg" xmlns:xlink="http://www.w3.org/1999/xlink" x="0px" y="0px"
	 viewBox="0 0 400 58.8" enable-background="new 0 0 400 58.8" xml:space="preserve">
<g id="Layer_1" display="none">
	
		<text transform="matrix(1 0 0 1 704.0845 346.034)" display="inline" fill="#666666" font-family="'OpenSansLight-Italic'" font-size="12.0608" letter-spacing="3">THE UK&apos;S PREMIER SPECTRAL RETAILER</text>
	<text transform="matrix(1 0 0 1 19.6041 -326.9493)" display="inline" font-family="'MyriadPro-Regular'" font-size="55.7206">simplystands.com</text>
	<text transform="matrix(1 0 0 1 -85.3163 -380.0982)" display="inline" font-family="'OpenSans-Light'" font-size="55.7206">SIMPLY</text>
	<text transform="matrix(1 0 0 1 331.3496 -392.7647)" display="inline" font-family="'OpenSans-Light'" font-size="55.7206">COM</text>
	<text transform="matrix(1 0 0 1 116.6837 -380.0982)" display="inline" font-family="'OpenSans'" font-size="55.7206">STANDS</text>
	<g display="inline">
		<path fill="#333333" d="M-7,38.5c0,3.3-1.2,6-3.7,7.9c-2.4,1.9-5.7,2.9-9.7,2.9c-4.9,0-8.6-0.5-11.2-1.6V45
			c2.9,1.2,6.5,1.8,11,1.8c3.3,0,5.9-0.7,7.8-2.2C-11,43-10,41.1-10,38.6c0-1.5-0.3-2.8-1-3.7c-0.6-1-1.7-1.9-3.1-2.7
			c-1.4-0.8-3.5-1.7-6.3-2.6c-4.1-1.4-6.9-2.9-8.4-4.5c-1.6-1.6-2.3-3.8-2.3-6.5c0-3,1.2-5.4,3.5-7.3c2.3-1.9,5.3-2.8,9-2.8
			c3.7,0,7.2,0.7,10.5,2.1l-1,2.4c-3.3-1.4-6.5-2.1-9.5-2.1c-2.9,0-5.3,0.7-7,2c-1.7,1.4-2.6,3.2-2.6,5.6c0,1.5,0.3,2.7,0.8,3.6
			c0.5,0.9,1.4,1.8,2.6,2.5c1.2,0.8,3.3,1.7,6.3,2.7c3.1,1.1,5.4,2.1,7,3.1c1.6,1,2.7,2.1,3.4,3.4C-7.4,35.2-7,36.7-7,38.5z"/>
		<path fill="#333333" d="M0.4,48.8V9h2.8v39.8H0.4z"/>
		<path fill="#333333" d="M32.1,48.8L17.3,12.1h-0.2c0.1,2.2,0.2,4.6,0.2,6.9v29.8h-2.7V9h4.3L33,44h0.2L47.3,9h4.2v39.8h-2.8V18.6
			c0-2.1,0.1-4.3,0.3-6.5h-0.2L33.9,48.8H32.1z"/>
		<path fill="#333333" d="M83.7,20.4c0,3.8-1.3,6.8-3.9,8.8c-2.6,2-6.3,3.1-11.1,3.1h-6.1v16.4h-2.8V9h9.7C79,9,83.7,12.8,83.7,20.4
			z M62.6,30H68c4.5,0,7.7-0.7,9.7-2.2c2-1.5,3-3.9,3-7.2c0-3.1-0.9-5.3-2.8-6.8c-1.9-1.5-4.8-2.2-8.8-2.2h-6.6V30z"/>
		<path fill="#333333" d="M89,48.8V9h2.8v37.2h19v2.6H89z"/>
		<path fill="#333333" d="M120.1,30.8L131.8,9h3l-13.3,24.4v15.4h-2.9V33.6L105.3,9h3.2L120.1,30.8z"/>
		<g>
			<path fill="#333333" d="M384.8,30.7c-2.4,0-4.2,0.8-5.6,2.3c-1.4,1.5-2,3.6-2,6.2c0,2.7,0.6,4.8,1.9,6.2c1.3,1.5,3.1,2.2,5.5,2.2
				c1.6,0,3-0.2,4.3-0.6v1.2c-1.2,0.4-2.8,0.7-4.7,0.7c-2.6,0-4.7-0.9-6.2-2.6c-1.5-1.7-2.3-4.1-2.3-7.1c0-1.9,0.4-3.6,1.1-5.1
				c0.7-1.5,1.8-2.6,3.1-3.4c1.4-0.8,2.9-1.2,4.7-1.2c1.8,0,3.5,0.3,4.9,1l-0.5,1.2C387.7,31,386.3,30.7,384.8,30.7z"/>
			<path fill="#333333" d="M408.9,39.1c0,3-0.7,5.3-2.2,7.1c-1.5,1.7-3.5,2.6-6.2,2.6c-2.6,0-4.7-0.9-6.2-2.6
				c-1.5-1.7-2.2-4.1-2.2-7.1c0-3,0.8-5.3,2.3-7.1c1.5-1.7,3.6-2.6,6.2-2.6c2.6,0,4.7,0.9,6.2,2.6C408.1,33.8,408.9,36.1,408.9,39.1
				z M393.5,39.1c0,2.7,0.6,4.8,1.8,6.2c1.2,1.5,2.9,2.2,5.2,2.2c2.3,0,4-0.7,5.2-2.2c1.2-1.5,1.8-3.5,1.8-6.3
				c0-2.7-0.6-4.8-1.8-6.2c-1.2-1.4-2.9-2.2-5.2-2.2c-2.2,0-4,0.7-5.2,2.2C394.1,34.4,393.5,36.4,393.5,39.1z"/>
			<path fill="#333333" d="M421.5,48.5l-7-17.3h-0.1c0.1,1.1,0.1,2.2,0.1,3.3v14.1h-1.3V29.7h2l6.7,16.5h0.1l6.7-16.5h2v18.8h-1.3
				V34.3c0-1,0.1-2,0.2-3.1h-0.1l-7,17.3H421.5z"/>
		</g>
		<path fill="#333333" d="M164,38c0,3.5-1.3,6.3-3.8,8.3c-2.6,2-6.1,3-10.6,3c-4.5,0-8.2-0.7-11-2.1v-6.1c1.8,0.9,3.7,1.5,5.8,2
			c2,0.5,3.9,0.7,5.7,0.7c2.6,0,4.5-0.5,5.7-1.5c1.2-1,1.8-2.3,1.8-3.9c0-1.5-0.6-2.7-1.7-3.8c-1.1-1-3.4-2.3-7-3.7
			c-3.6-1.5-6.2-3.1-7.7-5c-1.5-1.9-2.2-4.2-2.2-6.8c0-3.3,1.2-5.9,3.5-7.8c2.4-1.9,5.5-2.9,9.5-2.9c3.8,0,7.6,0.8,11.4,2.5
			l-2.1,5.3c-3.5-1.5-6.7-2.2-9.5-2.2c-2.1,0-3.7,0.5-4.8,1.4c-1.1,0.9-1.6,2.1-1.6,3.6c0,1,0.2,1.9,0.7,2.7
			c0.4,0.7,1.2,1.4,2.1,2.1c1,0.7,2.8,1.5,5.4,2.6c2.9,1.2,5.1,2.3,6.4,3.4c1.4,1.1,2.4,2.2,3,3.6C163.6,34.6,164,36.2,164,38z"/>
		<path fill="#333333" d="M185.1,48.8h-6.5V14.6h-11.7V9h29.9v5.6h-11.7V48.8z"/>
		<path fill="#333333" d="M223.8,48.8l-4-11h-15.2l-3.9,11h-6.9l14.9-39.9h7.1l14.9,39.9H223.8z M218.1,32.1l-3.7-10.8
			c-0.3-0.7-0.6-1.9-1.1-3.4c-0.5-1.6-0.8-2.7-1-3.4c-0.5,2.2-1.2,4.7-2.1,7.3l-3.6,10.4H218.1z"/>
		<path fill="#333333" d="M267.1,48.8h-8l-19.6-31.7h-0.2l0.1,1.8c0.3,3.4,0.4,6.5,0.4,9.3v20.7h-5.9V9h7.9l19.5,31.5h0.2
			c0-0.4-0.1-1.9-0.2-4.6c-0.1-2.6-0.2-4.7-0.2-6.1V9h6V48.8z"/>
		<path fill="#333333" d="M305.5,28.5c0,6.6-1.8,11.6-5.5,15.1c-3.6,3.5-8.9,5.2-15.8,5.2h-11.1V9h12.3c6.3,0,11.3,1.7,14.8,5.1
			C303.7,17.5,305.5,22.3,305.5,28.5z M298.6,28.7c0-9.5-4.5-14.3-13.4-14.3h-5.6v28.9h4.6C293.8,43.3,298.6,38.5,298.6,28.7z"/>
		<path fill="#333333" d="M333.9,38c0,3.5-1.3,6.3-3.8,8.3c-2.6,2-6.1,3-10.6,3c-4.5,0-8.2-0.7-11-2.1v-6.1c1.8,0.9,3.7,1.5,5.8,2
			c2,0.5,3.9,0.7,5.7,0.7c2.6,0,4.5-0.5,5.7-1.5c1.2-1,1.8-2.3,1.8-3.9c0-1.5-0.6-2.7-1.7-3.8c-1.1-1-3.4-2.3-7-3.7
			c-3.6-1.5-6.2-3.1-7.7-5c-1.5-1.9-2.2-4.2-2.2-6.8c0-3.3,1.2-5.9,3.5-7.8c2.4-1.9,5.5-2.9,9.5-2.9c3.8,0,7.6,0.8,11.4,2.5
			l-2.1,5.3c-3.5-1.5-6.7-2.2-9.5-2.2c-2.1,0-3.7,0.5-4.8,1.4c-1.1,0.9-1.6,2.1-1.6,3.6c0,1,0.2,1.9,0.7,2.7
			c0.4,0.7,1.2,1.4,2.2,2.1c1,0.7,2.8,1.5,5.4,2.6c2.9,1.2,5.1,2.3,6.4,3.4c1.4,1.1,2.4,2.2,3,3.6C333.6,34.6,333.9,36.2,333.9,38z"
			/>
		<polygon fill="#333333" points="340.4,28.9 340.4,48.8 348.6,48.8 348.6,47.5 359.2,47.5 359.2,48.8 367.4,48.8 367.4,28.9 		"/>
	</g>
</g>
<g id="rev1" display="none">
	<g display="inline">
		<g>
			<g>
				<path d="M156.1,348.8c0,3-1.1,5.4-3.3,7.1c-2.2,1.7-5.2,2.6-9,2.6c-3.8,0-7-0.6-9.4-1.8v-5.2c1.5,0.7,3.2,1.3,4.9,1.7
					c1.7,0.4,3.4,0.6,4.8,0.6c2.2,0,3.8-0.4,4.8-1.2c1-0.8,1.6-2,1.6-3.4c0-1.3-0.5-2.3-1.4-3.2c-1-0.9-2.9-1.9-5.9-3.1
					c-3.1-1.3-5.3-2.7-6.5-4.3c-1.3-1.6-1.9-3.5-1.9-5.8c0-2.8,1-5,3-6.7c2-1.6,4.7-2.4,8.1-2.4c3.2,0,6.5,0.7,9.7,2.1l-1.8,4.5
					c-3-1.3-5.7-1.9-8.1-1.9c-1.8,0-3.1,0.4-4.1,1.2c-0.9,0.8-1.4,1.8-1.4,3.1c0,0.9,0.2,1.6,0.6,2.3c0.4,0.6,1,1.2,1.8,1.8
					c0.8,0.6,2.4,1.3,4.6,2.2c2.5,1,4.3,2,5.5,2.9c1.2,0.9,2,1.9,2.5,3C155.8,345.9,156.1,347.2,156.1,348.8z"/>
				<path d="M185,334.3c0,3.5-1.2,6.2-3.5,8.1c-2.3,1.9-5.6,2.8-9.9,2.8h-3.5v12.7h-5.5v-33.8h9.7c4.2,0,7.4,0.9,9.5,2.6
					C184,328.4,185,331,185,334.3z M168.1,340.6h2.9c2.8,0,4.9-0.5,6.2-1.5c1.3-1,2-2.5,2-4.6c0-1.9-0.6-3.4-1.8-4.4
					c-1.2-1-3-1.4-5.6-1.4h-3.8V340.6z"/>
				<path d="M210.9,357.9h-19.1v-33.8h19.1v4.7h-13.6v9.2h12.7v4.6h-12.7v10.6h13.6V357.9z"/>
				<path d="M232.6,328.4c-3.2,0-5.7,1.1-7.5,3.4c-1.8,2.3-2.7,5.4-2.7,9.3c0,4.2,0.9,7.3,2.6,9.4c1.8,2.1,4.3,3.2,7.6,3.2
					c1.4,0,2.8-0.1,4.2-0.4c1.3-0.3,2.7-0.7,4.2-1.1v4.7c-2.7,1-5.7,1.5-9,1.5c-5,0-8.8-1.5-11.4-4.5c-2.7-3-4-7.3-4-12.9
					c0-3.5,0.6-6.6,1.9-9.2c1.3-2.6,3.2-4.7,5.6-6.1c2.4-1.4,5.3-2.1,8.6-2.1c3.5,0,6.6,0.7,9.6,2.2l-2,4.6c-1.1-0.5-2.3-1-3.6-1.4
					C235.4,328.6,234,328.4,232.6,328.4z"/>
				<path d="M259.9,357.9h-5.5v-29.1h-9.9v-4.7h25.4v4.7h-9.9V357.9z"/>
				<path d="M280.6,344.4v13.5h-5.5v-33.8h9.6c4.4,0,7.6,0.8,9.7,2.5c2.1,1.6,3.1,4.1,3.1,7.4c0,4.2-2.2,7.2-6.6,9l9.6,15h-6.3
					l-8.1-13.5H280.6z M280.6,339.8h3.8c2.6,0,4.4-0.5,5.6-1.4c1.2-1,1.7-2.4,1.7-4.3c0-1.9-0.6-3.3-1.9-4.1
					c-1.2-0.8-3.1-1.2-5.6-1.2h-3.7V339.8z"/>
				<path d="M326.4,357.9l-3.4-9.4H310l-3.3,9.4h-5.8l12.7-34h6l12.7,34H326.4z M321.5,343.8l-3.2-9.2c-0.2-0.6-0.6-1.6-1-2.9
					c-0.4-1.3-0.7-2.3-0.8-2.9c-0.4,1.9-1,4-1.8,6.2l-3.1,8.8H321.5z"/>
				<path d="M336.7,357.9v-33.8h5.5v29.1h14.3v4.7H336.7z"/>
			</g>
			<rect x="85.9" y="323.6" width="34.8" height="34.8"/>
			<g>
				<path d="M-90.5,352.5c0.2-0.2,0.5-0.2,0.8,0c2.7,2.2,7.3,4.8,12.1,4.8c3.2,0,6.1-0.9,8.2-2.5c2.1-1.5,3.3-3.6,3.3-5.8
					c0-2.2-1.1-3.9-3.2-5.3c-2-1.4-5-2.3-8.4-2.9l-0.1,0c-3.3-0.6-6.2-1.5-8.3-2.9c-2.1-1.4-3.4-3.3-3.4-5.8c0-5,5.4-8.7,11.8-8.7
					c4.5,0,8,2.2,10.7,4.1c0.2,0.1,0.3,0.5,0.1,0.8c-0.1,0.2-0.5,0.3-0.7,0.1c-2.8-1.8-6-3.9-10.1-3.9c-3,0-5.7,0.9-7.6,2.3
					c-1.9,1.4-3,3.3-3,5.3c0,2,1,3.6,2.9,4.9c1.9,1.3,4.6,2.2,7.8,2.8h0.1c3.6,0.7,6.6,1.6,8.9,3.1c2.2,1.5,3.7,3.6,3.7,6.3
					c0,5.4-5.8,9.4-12.7,9.4c-5.2,0-9.9-2.7-12.8-5C-90.7,353.1-90.7,352.7-90.5,352.5z"/>
				<path d="M-55.3,324.3c0-0.4,0.2-0.6,0.6-0.6c0.3,0,0.6,0.2,0.6,0.6v33.5c0,0.4-0.3,0.6-0.6,0.6c-0.4,0-0.6-0.3-0.6-0.6V324.3z"
					/>
				<path d="M-12.6,326.2l-12.7,17.6c-0.1,0.1-0.3,0.2-0.5,0.2h-0.1c-0.2,0-0.4-0.1-0.5-0.2l-12.7-17.7v31.7c0,0.3-0.2,0.6-0.6,0.6
					c-0.3,0-0.6-0.3-0.6-0.6v-33.5c0-0.3,0.3-0.6,0.6-0.6c0,0,0.1,0,0.1,0c0.1,0,0.3,0.1,0.4,0.2l13.3,18.5l13.3-18.5
					c0.1-0.1,0.2-0.2,0.4-0.2c0.1,0,0.1,0,0.1,0c0.4,0,0.6,0.3,0.6,0.6v33.5c0,0.3-0.2,0.6-0.6,0.6c-0.3,0-0.6-0.3-0.6-0.6V326.2z"
					/>
				<path d="M-1,324.3c0-0.3,0.3-0.6,0.6-0.6h0.1H9.9c5.3,0,9.7,4.3,9.7,9.7c0,5.4-4.4,9.6-9.7,9.6H0.3v14.8c0,0.3-0.2,0.6-0.6,0.6
					c-0.3,0-0.6-0.3-0.6-0.6V324.3z M9.9,341.7c4.6,0,8.4-3.7,8.4-8.4c0-4.7-3.8-8.5-8.4-8.5H0.3v16.8H9.9z"/>
				<path d="M28.7,358.4L28.7,358.4c-0.4,0-0.7-0.3-0.7-0.6v-33.5c0-0.3,0.3-0.6,0.6-0.6c0.3,0,0.6,0.3,0.6,0.6v32.9h17.9
					c0.4,0,0.6,0.3,0.6,0.6c0,0.3-0.2,0.6-0.6,0.6H28.7z"/>
				<path d="M59.5,341.4l-12.2-16.8c-0.2-0.2-0.2-0.6,0.1-0.8c0.2-0.2,0.6-0.1,0.8,0.1l11.8,16.3l11.8-16.3c0.2-0.2,0.6-0.3,0.9-0.1
					c0.3,0.2,0.4,0.6,0.2,0.8l-12.3,16.8v16.4c0,0.3-0.2,0.6-0.6,0.6c-0.3,0-0.6-0.3-0.6-0.6V341.4z"/>
			</g>
		</g>
		<g>
			<path fill="#666666" d="M-18.9,389.9h-0.6l1.7-8.1h-2.5l0.1-0.6h5.7l-0.1,0.6h-2.6L-18.9,389.9z"/>
			<path fill="#666666" d="M-6.1,389.9h-0.6l0.9-4.2h-4.5l-0.9,4.2h-0.6l1.8-8.6h0.6l-0.8,3.8h4.5l0.8-3.8h0.6L-6.1,389.9z"/>
			<path fill="#666666" d="M3.8,389.9h-4.3l1.8-8.6h4.3l-0.1,0.6H1.8l-0.7,3.3h3.5l-0.1,0.6H1l-0.8,3.7h3.7L3.8,389.9z"/>
			<path fill="#666666" d="M23,381.3l-1.2,5.8c-0.2,1.1-0.6,1.8-1.2,2.3c-0.5,0.5-1.3,0.7-2.2,0.7c-1.7,0-2.6-0.8-2.6-2.4
				c0-0.3,0.1-0.7,0.2-1.2l1.1-5.2h0.6l-1.1,5.3c-0.1,0.3-0.1,0.7-0.1,1.1c0,1.2,0.7,1.8,2,1.8c0.8,0,1.4-0.2,1.8-0.6
				c0.4-0.4,0.8-1,0.9-1.9l1.2-5.8H23z"/>
			<path fill="#666666" d="M31.9,389.9h-0.7l-2-4.6l-1.1,0.9l-0.8,3.7h-0.6l1.8-8.6h0.6l-0.9,4.3l0.8-0.7l4-3.5h0.8l-4.1,3.6
				L31.9,389.9z"/>
			<path fill="#666666" d="M38.7,381.3l-0.9,3.1h-0.4l0.5-3.1H38.7z"/>
			<path fill="#666666" d="M46.9,387.5c0,0.5-0.1,0.9-0.4,1.3c-0.3,0.4-0.6,0.7-1.1,0.9c-0.4,0.2-1,0.3-1.6,0.3c-0.3,0-0.7,0-1-0.1
				c-0.3-0.1-0.7-0.2-1-0.3v-0.6c0.6,0.4,1.3,0.5,2,0.5c0.7,0,1.3-0.2,1.7-0.5c0.4-0.3,0.6-0.8,0.6-1.4c0-0.2,0-0.4-0.1-0.6
				c-0.1-0.2-0.2-0.3-0.3-0.5c-0.1-0.1-0.3-0.3-0.5-0.4c-0.2-0.1-0.5-0.3-0.8-0.4c-0.6-0.3-1-0.6-1.2-1c-0.2-0.3-0.4-0.8-0.4-1.2
				c0-0.5,0.1-0.9,0.3-1.2c0.2-0.4,0.6-0.6,1-0.8c0.4-0.2,0.9-0.3,1.4-0.3c0.4,0,0.7,0,1.1,0.1c0.3,0.1,0.6,0.2,1,0.4l-0.2,0.6
				c-0.3-0.2-0.6-0.3-0.9-0.4c-0.3-0.1-0.7-0.1-1-0.1c-0.6,0-1.1,0.2-1.5,0.5c-0.4,0.3-0.6,0.8-0.6,1.3c0,0.4,0.1,0.7,0.3,1
				c0.2,0.3,0.5,0.5,1.1,0.8c0.6,0.3,1,0.6,1.3,0.8c0.2,0.2,0.4,0.4,0.5,0.7C46.9,386.9,46.9,387.2,46.9,387.5z"/>
			<path fill="#666666" d="M64,383.4c0,2-1.2,2.9-3.6,2.9h-1.2l-0.8,3.5h-0.6l1.8-8.6h1.9c0.8,0,1.4,0.2,1.8,0.5
				C63.8,382.2,64,382.7,64,383.4z M59.4,385.8h1.1c1,0,1.7-0.2,2.2-0.6c0.5-0.4,0.7-1,0.7-1.8c0-1.1-0.6-1.6-1.9-1.6h-1.2
				L59.4,385.8z"/>
			<path fill="#666666" d="M69.3,386.2l-0.8,3.7h-0.6l1.8-8.6h1.8c1.7,0,2.5,0.7,2.5,2.1c0,0.7-0.2,1.3-0.6,1.8
				c-0.4,0.5-1,0.8-1.7,0.9c0.8,2.3,1.2,3.6,1.3,3.8h-0.7l-1.2-3.7H69.3z M69.4,385.6h1.5c0.8,0,1.4-0.2,1.9-0.6
				c0.4-0.4,0.6-0.9,0.6-1.7c0-1.1-0.6-1.6-1.9-1.6h-1.2L69.4,385.6z"/>
			<path fill="#666666" d="M82.2,389.9h-4.3l1.8-8.6H84l-0.1,0.6h-3.7l-0.7,3.3H83l-0.1,0.6h-3.5l-0.8,3.7h3.7L82.2,389.9z"/>
			<path fill="#666666" d="M91.4,388.7l4.3-7.4h0.9l-1.8,8.6h-0.6l1.1-5.3c0.3-1.4,0.5-2.3,0.6-2.6h0l-4.6,7.9H91l-1.3-7.9h0
				c-0.1,0.6-0.2,1.4-0.5,2.5l-1.2,5.4h-0.6l1.8-8.6h0.8L91.4,388.7L91.4,388.7z"/>
			<path fill="#666666" d="M100.5,389.9l1.8-8.6h0.6l-1.8,8.6H100.5z"/>
			<path fill="#666666" d="M111,389.9h-4.3l1.8-8.6h4.3l-0.1,0.6h-3.7l-0.7,3.3h3.5l-0.1,0.6h-3.5l-0.8,3.7h3.7L111,389.9z"/>
			<path fill="#666666" d="M117.7,386.2l-0.8,3.7h-0.6l1.8-8.6h1.8c1.7,0,2.5,0.7,2.5,2.1c0,0.7-0.2,1.3-0.6,1.8
				c-0.4,0.5-1,0.8-1.7,0.9c0.8,2.3,1.2,3.6,1.3,3.8h-0.7l-1.2-3.7H117.7z M117.8,385.6h1.5c0.8,0,1.4-0.2,1.9-0.6
				c0.4-0.4,0.6-0.9,0.6-1.7c0-1.1-0.6-1.6-1.9-1.6h-1.2L117.8,385.6z"/>
			<path fill="#666666" d="M137.4,387.5c0,0.5-0.1,0.9-0.4,1.3c-0.3,0.4-0.6,0.7-1.1,0.9c-0.4,0.2-1,0.3-1.6,0.3c-0.3,0-0.7,0-1-0.1
				c-0.3-0.1-0.7-0.2-1-0.3v-0.6c0.6,0.4,1.3,0.5,2,0.5c0.7,0,1.3-0.2,1.7-0.5c0.4-0.3,0.6-0.8,0.6-1.4c0-0.2,0-0.4-0.1-0.6
				c-0.1-0.2-0.2-0.3-0.3-0.5c-0.1-0.1-0.3-0.3-0.5-0.4c-0.2-0.1-0.5-0.3-0.8-0.4c-0.6-0.3-1-0.6-1.2-1c-0.2-0.3-0.4-0.8-0.4-1.2
				c0-0.5,0.1-0.9,0.3-1.2c0.2-0.4,0.6-0.6,1-0.8c0.4-0.2,0.9-0.3,1.4-0.3c0.4,0,0.7,0,1.1,0.1c0.3,0.1,0.6,0.2,1,0.4l-0.2,0.6
				c-0.3-0.2-0.6-0.3-0.9-0.4c-0.3-0.1-0.7-0.1-1-0.1c-0.6,0-1.2,0.2-1.5,0.5c-0.4,0.3-0.6,0.8-0.6,1.3c0,0.4,0.1,0.7,0.3,1
				s0.5,0.5,1.1,0.8c0.6,0.3,1,0.6,1.3,0.8s0.4,0.4,0.5,0.7C137.3,386.9,137.4,387.2,137.4,387.5z"/>
			<path fill="#666666" d="M148.1,383.4c0,2-1.2,2.9-3.6,2.9h-1.2l-0.8,3.5h-0.6l1.8-8.6h1.9c0.8,0,1.4,0.2,1.8,0.5
				C147.9,382.2,148.1,382.7,148.1,383.4z M143.4,385.8h1.1c1,0,1.7-0.2,2.2-0.6c0.5-0.4,0.7-1,0.7-1.8c0-1.1-0.6-1.6-1.9-1.6h-1.2
				L143.4,385.8z"/>
			<path fill="#666666" d="M156.2,389.9h-4.3l1.8-8.6h4.3l-0.1,0.6h-3.7l-0.7,3.3h3.5l-0.1,0.6h-3.5l-0.8,3.7h3.7L156.2,389.9z"/>
			<path fill="#666666" d="M166.5,381.7c-0.8,0-1.5,0.2-2.1,0.6c-0.6,0.4-1.1,1-1.4,1.8c-0.4,0.8-0.5,1.7-0.5,2.6
				c0,0.9,0.2,1.6,0.7,2c0.4,0.5,1.1,0.7,1.9,0.7c0.5,0,1.1-0.1,1.8-0.3v0.6c-0.6,0.2-1.2,0.3-1.9,0.3c-1,0-1.7-0.3-2.3-0.9
				c-0.5-0.6-0.8-1.4-0.8-2.4c0-1,0.2-2,0.6-2.9c0.4-0.9,1-1.5,1.7-2c0.7-0.5,1.5-0.7,2.4-0.7c0.7,0,1.3,0.1,1.8,0.4l-0.3,0.5
				c-0.2-0.1-0.5-0.2-0.7-0.3C167.1,381.8,166.8,381.7,166.5,381.7z"/>
			<path fill="#666666" d="M173.6,389.9H173l1.7-8.1h-2.5l0.1-0.6h5.7l-0.1,0.6h-2.6L173.6,389.9z"/>
			<path fill="#666666" d="M182.1,386.2l-0.8,3.7h-0.6l1.8-8.6h1.8c1.7,0,2.5,0.7,2.5,2.1c0,0.7-0.2,1.3-0.6,1.8
				c-0.4,0.5-1,0.8-1.7,0.9c0.8,2.3,1.2,3.6,1.3,3.8h-0.7l-1.2-3.7H182.1z M182.2,385.6h1.5c0.8,0,1.4-0.2,1.9-0.6
				c0.4-0.4,0.6-0.9,0.6-1.7c0-1.1-0.6-1.6-1.9-1.6H183L182.2,385.6z"/>
			<path fill="#666666" d="M194.8,386.8h-3l-1.7,3.1h-0.7l4.8-8.6h0.4l1.2,8.6h-0.6L194.8,386.8z M194.8,386.3l-0.2-1.7
				c-0.1-1-0.2-1.7-0.2-2.4c-0.1,0.2-0.2,0.5-0.4,0.8c-0.1,0.3-0.7,1.4-1.8,3.3H194.8z"/>
			<path fill="#666666" d="M200.2,389.9l1.8-8.6h0.6l-1.7,8h3.7l-0.1,0.6H200.2z"/>
			<path fill="#666666" d="M216.7,386.2l-0.8,3.7h-0.6l1.8-8.6h1.8c1.7,0,2.5,0.7,2.5,2.1c0,0.7-0.2,1.3-0.6,1.8
				c-0.4,0.5-1,0.8-1.7,0.9c0.8,2.3,1.2,3.6,1.3,3.8h-0.7l-1.2-3.7H216.7z M216.9,385.6h1.5c0.8,0,1.4-0.2,1.9-0.6
				c0.4-0.4,0.6-0.9,0.6-1.7c0-1.1-0.6-1.6-1.9-1.6h-1.2L216.9,385.6z"/>
			<path fill="#666666" d="M229.6,389.9h-4.3l1.8-8.6h4.3l-0.1,0.6h-3.7l-0.7,3.3h3.5l-0.1,0.6h-3.5l-0.8,3.7h3.7L229.6,389.9z"/>
			<path fill="#666666" d="M236.9,389.9h-0.6l1.7-8.1h-2.5l0.1-0.6h5.7l-0.1,0.6h-2.6L236.9,389.9z"/>
			<path fill="#666666" d="M248.1,386.8h-3l-1.7,3.1h-0.7l4.8-8.6h0.4l1.2,8.6h-0.6L248.1,386.8z M248,386.3l-0.2-1.7
				c-0.1-1-0.2-1.7-0.2-2.4c-0.1,0.2-0.2,0.5-0.4,0.8c-0.1,0.3-0.7,1.4-1.8,3.3H248z"/>
			<path fill="#666666" d="M253.4,389.9l1.8-8.6h0.6l-1.8,8.6H253.4z"/>
			<path fill="#666666" d="M259.7,389.9l1.8-8.6h0.6l-1.7,8h3.7l-0.1,0.6H259.7z"/>
			<path fill="#666666" d="M272.7,389.9h-4.3l1.8-8.6h4.3l-0.1,0.6h-3.7l-0.7,3.3h3.5l-0.1,0.6h-3.5l-0.8,3.7h3.7L272.7,389.9z"/>
			<path fill="#666666" d="M279.4,386.2l-0.8,3.7H278l1.8-8.6h1.8c1.7,0,2.5,0.7,2.5,2.1c0,0.7-0.2,1.3-0.6,1.8
				c-0.4,0.5-1,0.8-1.7,0.9c0.8,2.3,1.2,3.6,1.3,3.8h-0.7l-1.2-3.7H279.4z M279.5,385.6h1.5c0.8,0,1.4-0.2,1.9-0.6
				c0.4-0.4,0.6-0.9,0.6-1.7c0-1.1-0.6-1.6-1.9-1.6h-1.2L279.5,385.6z"/>
		</g>
	</g>
	<g display="inline">
		<g>
			<g>
				<path d="M222.6,477.7c0,3-1.1,5.4-3.3,7.1c-2.2,1.7-5.2,2.6-9,2.6s-7-0.6-9.4-1.8v-5.2c1.5,0.7,3.2,1.3,4.9,1.7
					c1.7,0.4,3.4,0.6,4.8,0.6c2.2,0,3.8-0.4,4.8-1.2c1-0.8,1.6-2,1.6-3.4c0-1.3-0.5-2.3-1.4-3.2c-1-0.9-2.9-1.9-5.9-3.1
					c-3.1-1.3-5.3-2.7-6.5-4.3c-1.3-1.6-1.9-3.5-1.9-5.8c0-2.8,1-5,3-6.7c2-1.6,4.7-2.4,8.1-2.4c3.2,0,6.5,0.7,9.7,2.1l-1.8,4.5
					c-3-1.3-5.7-1.9-8.1-1.9c-1.8,0-3.1,0.4-4.1,1.2s-1.4,1.8-1.4,3.1c0,0.9,0.2,1.6,0.6,2.3c0.4,0.6,1,1.2,1.8,1.8
					c0.8,0.6,2.4,1.3,4.6,2.2c2.5,1,4.3,2,5.5,2.9c1.2,0.9,2,1.9,2.5,3C222.3,474.9,222.6,476.2,222.6,477.7z"/>
				<path d="M251.6,463.3c0,3.5-1.2,6.2-3.5,8.1c-2.3,1.9-5.6,2.8-9.9,2.8h-3.5v12.7h-5.5v-33.8h9.7c4.2,0,7.4,0.9,9.5,2.6
					C250.5,457.4,251.6,460,251.6,463.3z M234.7,469.6h2.9c2.8,0,4.9-0.5,6.2-1.5c1.3-1,2-2.5,2-4.6c0-1.9-0.6-3.4-1.8-4.4
					c-1.2-1-3-1.4-5.6-1.4h-3.8V469.6z"/>
				<path d="M277.4,486.9h-19.1v-33.8h19.1v4.7h-13.6v9.2h12.7v4.6h-12.7v10.6h13.6V486.9z"/>
				<path d="M299.2,457.3c-3.2,0-5.7,1.1-7.5,3.4c-1.8,2.3-2.7,5.4-2.7,9.3c0,4.2,0.9,7.3,2.6,9.4c1.8,2.1,4.3,3.2,7.6,3.2
					c1.4,0,2.8-0.1,4.2-0.4c1.3-0.3,2.7-0.7,4.2-1.1v4.7c-2.7,1-5.7,1.5-9,1.5c-5,0-8.8-1.5-11.4-4.5c-2.7-3-4-7.3-4-12.9
					c0-3.5,0.6-6.6,1.9-9.2c1.3-2.6,3.2-4.7,5.6-6.1s5.3-2.1,8.6-2.1c3.5,0,6.6,0.7,9.6,2.2l-2,4.6c-1.1-0.5-2.3-1-3.6-1.4
					C301.9,457.6,300.6,457.3,299.2,457.3z"/>
				<path d="M326.5,486.9H321v-29.1H311v-4.7h25.4v4.7h-9.9V486.9z"/>
				<path d="M347.1,473.4v13.5h-5.5v-33.8h9.6c4.4,0,7.6,0.8,9.7,2.5c2.1,1.6,3.1,4.1,3.1,7.4c0,4.2-2.2,7.2-6.6,9l9.6,15h-6.3
					l-8.1-13.5H347.1z M347.1,468.8h3.8c2.6,0,4.4-0.5,5.6-1.4c1.2-1,1.7-2.4,1.7-4.3c0-1.9-0.6-3.3-1.9-4.1
					c-1.2-0.8-3.1-1.2-5.6-1.2h-3.7V468.8z"/>
				<path d="M392.9,486.9l-3.4-9.4h-12.9l-3.3,9.4h-5.8l12.7-34h6l12.7,34H392.9z M388.1,472.8l-3.2-9.2c-0.2-0.6-0.6-1.6-1-2.9
					c-0.4-1.3-0.7-2.3-0.8-2.9c-0.4,1.9-1,4-1.8,6.2l-3.1,8.8H388.1z"/>
				<path d="M403.2,486.9v-33.8h5.5v29.1h14.3v4.7H403.2z"/>
			</g>
			<rect x="152.5" y="452.6" width="34.8" height="34.8"/>
			<g>
				<path d="M-24,481.5c0.2-0.2,0.5-0.2,0.8,0c2.7,2.2,7.3,4.8,12.1,4.8c3.2,0,6.1-0.9,8.2-2.5c2.1-1.5,3.3-3.6,3.3-5.8
					s-1.1-3.9-3.2-5.3c-2-1.4-5-2.3-8.4-2.9l-0.1,0c-3.3-0.6-6.2-1.5-8.3-2.9c-2.1-1.4-3.4-3.3-3.4-5.8c0-5,5.4-8.7,11.8-8.7
					c4.5,0,8,2.2,10.7,4.1c0.2,0.1,0.3,0.5,0.1,0.8c-0.1,0.2-0.5,0.3-0.7,0.1c-2.8-1.8-6-3.9-10.1-3.9c-3,0-5.7,0.9-7.6,2.3
					c-1.9,1.4-3,3.3-3,5.3c0,2,1,3.6,2.9,4.9c1.9,1.3,4.6,2.2,7.8,2.8h0.1c3.6,0.7,6.6,1.6,8.9,3.1c2.2,1.5,3.7,3.6,3.7,6.3
					c0,5.4-5.8,9.4-12.7,9.4c-5.2,0-9.9-2.7-12.8-5C-24.1,482.1-24.2,481.7-24,481.5z"/>
				<path d="M11.3,453.2c0-0.4,0.2-0.6,0.6-0.6c0.3,0,0.6,0.2,0.6,0.6v33.5c0,0.4-0.3,0.6-0.6,0.6c-0.4,0-0.6-0.3-0.6-0.6V453.2z"/>
				<path d="M53.9,455.1l-12.7,17.6c-0.1,0.1-0.3,0.2-0.5,0.2h-0.1c-0.2,0-0.4-0.1-0.5-0.2l-12.7-17.7v31.7c0,0.3-0.2,0.6-0.6,0.6
					c-0.3,0-0.6-0.3-0.6-0.6v-33.5c0-0.3,0.3-0.6,0.6-0.6c0,0,0.1,0,0.1,0c0.1,0,0.3,0.1,0.4,0.2l13.3,18.5L54,452.9
					c0.1-0.1,0.2-0.2,0.4-0.2c0.1,0,0.1,0,0.1,0c0.4,0,0.6,0.3,0.6,0.6v33.5c0,0.3-0.2,0.6-0.6,0.6c-0.3,0-0.6-0.3-0.6-0.6V455.1z"
					/>
				<path d="M65.6,453.2c0-0.3,0.3-0.6,0.6-0.6h0.1h10.1c5.3,0,9.7,4.3,9.7,9.7c0,5.4-4.4,9.6-9.7,9.6h-9.6v14.8
					c0,0.3-0.2,0.6-0.6,0.6c-0.3,0-0.6-0.3-0.6-0.6V453.2z M76.4,470.6c4.6,0,8.4-3.7,8.4-8.4c0-4.7-3.8-8.5-8.4-8.5h-9.6v16.8H76.4
					z"/>
				<path d="M95.3,487.4L95.3,487.4c-0.4,0-0.7-0.3-0.7-0.6v-33.5c0-0.3,0.3-0.6,0.6-0.6c0.3,0,0.6,0.3,0.6,0.6v32.9h17.9
					c0.4,0,0.6,0.3,0.6,0.6c0,0.3-0.2,0.6-0.6,0.6H95.3z"/>
				<path d="M126,470.4l-12.2-16.8c-0.2-0.2-0.2-0.6,0.1-0.8c0.2-0.2,0.6-0.1,0.8,0.1l11.8,16.3l11.8-16.3c0.2-0.2,0.6-0.3,0.9-0.1
					c0.3,0.2,0.4,0.6,0.2,0.8l-12.3,16.8v16.4c0,0.3-0.2,0.6-0.6,0.6c-0.3,0-0.6-0.3-0.6-0.6V470.4z"/>
			</g>
		</g>
		<g>
			<path fill="#666666" d="M-22.6,518.9h-0.6l1.7-8.1h-2.5l0.1-0.6h5.7l-0.1,0.6h-2.6L-22.6,518.9z"/>
			<path fill="#666666" d="M-9.9,518.9h-0.6l0.9-4.2h-4.5l-0.9,4.2h-0.6l1.8-8.6h0.6l-0.8,3.8h4.5l0.8-3.8h0.6L-9.9,518.9z"/>
			<path fill="#666666" d="M0,518.9h-4.3l1.8-8.6h4.3l-0.1,0.6H-2l-0.7,3.3h3.5l-0.1,0.6h-3.5l-0.8,3.7h3.7L0,518.9z"/>
			<path fill="#666666" d="M19.3,510.3l-1.2,5.8c-0.2,1.1-0.6,1.8-1.2,2.3c-0.5,0.5-1.3,0.7-2.2,0.7c-1.7,0-2.6-0.8-2.6-2.4
				c0-0.3,0.1-0.7,0.2-1.2l1.1-5.2H14l-1.1,5.3c-0.1,0.3-0.1,0.7-0.1,1.1c0,1.2,0.7,1.8,2,1.8c0.8,0,1.4-0.2,1.8-0.6
				c0.4-0.4,0.8-1,0.9-1.9l1.2-5.8H19.3z"/>
			<path fill="#666666" d="M28.2,518.9h-0.7l-2-4.6l-1.1,0.9l-0.8,3.7H23l1.8-8.6h0.6l-0.9,4.3l0.8-0.7l4-3.5h0.8l-4.1,3.6
				L28.2,518.9z"/>
			<path fill="#666666" d="M35,510.3l-0.9,3.1h-0.4l0.5-3.1H35z"/>
			<path fill="#666666" d="M43.1,516.5c0,0.5-0.1,0.9-0.4,1.3c-0.3,0.4-0.6,0.7-1.1,0.9c-0.4,0.2-1,0.3-1.6,0.3c-0.3,0-0.7,0-1-0.1
				c-0.3-0.1-0.7-0.2-1-0.3v-0.6c0.6,0.4,1.3,0.5,2,0.5c0.7,0,1.3-0.2,1.7-0.5c0.4-0.3,0.6-0.8,0.6-1.4c0-0.2,0-0.4-0.1-0.6
				c-0.1-0.2-0.2-0.3-0.3-0.5c-0.1-0.1-0.3-0.3-0.5-0.4c-0.2-0.1-0.5-0.3-0.8-0.4c-0.6-0.3-1-0.6-1.2-1c-0.2-0.3-0.4-0.8-0.4-1.2
				s0.1-0.9,0.3-1.2c0.2-0.4,0.6-0.6,1-0.8c0.4-0.2,0.9-0.3,1.4-0.3c0.4,0,0.7,0,1.1,0.1c0.3,0.1,0.6,0.2,1,0.4l-0.2,0.6
				c-0.3-0.2-0.6-0.3-0.9-0.4c-0.3-0.1-0.7-0.1-1-0.1c-0.6,0-1.1,0.2-1.5,0.5c-0.4,0.3-0.6,0.8-0.6,1.3c0,0.4,0.1,0.7,0.3,1
				c0.2,0.3,0.5,0.5,1.1,0.8c0.6,0.3,1,0.6,1.3,0.8c0.2,0.2,0.4,0.4,0.5,0.7C43.1,515.9,43.1,516.2,43.1,516.5z"/>
			<path fill="#666666" d="M60.3,512.4c0,2-1.2,2.9-3.6,2.9h-1.2l-0.8,3.5h-0.6l1.8-8.6h1.9c0.8,0,1.4,0.2,1.8,0.5
				C60.1,511.2,60.3,511.7,60.3,512.4z M55.6,514.8h1.1c1,0,1.7-0.2,2.2-0.6c0.5-0.4,0.7-1,0.7-1.8c0-1.1-0.6-1.6-1.9-1.6h-1.2
				L55.6,514.8z"/>
			<path fill="#666666" d="M65.5,515.2l-0.8,3.7h-0.6l1.8-8.6h1.8c1.7,0,2.5,0.7,2.5,2.1c0,0.7-0.2,1.3-0.6,1.8
				c-0.4,0.5-1,0.8-1.7,0.9c0.8,2.3,1.2,3.6,1.3,3.8h-0.7l-1.2-3.7H65.5z M65.6,514.6h1.5c0.8,0,1.4-0.2,1.9-0.6
				c0.4-0.4,0.6-0.9,0.6-1.7c0-1.1-0.6-1.6-1.9-1.6h-1.2L65.6,514.6z"/>
			<path fill="#666666" d="M78.4,518.9h-4.3l1.8-8.6h4.3l-0.1,0.6h-3.7l-0.7,3.3h3.5l-0.1,0.6h-3.5l-0.8,3.7h3.7L78.4,518.9z"/>
			<path fill="#666666" d="M87.6,517.7l4.3-7.4h0.9l-1.8,8.6h-0.6l1.1-5.3c0.3-1.4,0.5-2.3,0.6-2.6h0l-4.6,7.9h-0.3l-1.3-7.9h0
				c-0.1,0.6-0.2,1.4-0.5,2.5l-1.2,5.4h-0.6l1.8-8.6h0.8L87.6,517.7L87.6,517.7z"/>
			<path fill="#666666" d="M96.8,518.9l1.8-8.6h0.6l-1.8,8.6H96.8z"/>
			<path fill="#666666" d="M107.3,518.9H103l1.8-8.6h4.3l-0.1,0.6h-3.7l-0.7,3.3h3.5l-0.1,0.6h-3.5l-0.8,3.7h3.7L107.3,518.9z"/>
			<path fill="#666666" d="M113.9,515.2l-0.8,3.7h-0.6l1.8-8.6h1.8c1.7,0,2.5,0.7,2.5,2.1c0,0.7-0.2,1.3-0.6,1.8
				c-0.4,0.5-1,0.8-1.7,0.9c0.8,2.3,1.2,3.6,1.3,3.8H117l-1.2-3.7H113.9z M114,514.6h1.5c0.8,0,1.4-0.2,1.9-0.6
				c0.4-0.4,0.6-0.9,0.6-1.7c0-1.1-0.6-1.6-1.9-1.6h-1.2L114,514.6z"/>
			<path fill="#666666" d="M133.6,516.5c0,0.5-0.1,0.9-0.4,1.3c-0.3,0.4-0.6,0.7-1.1,0.9c-0.4,0.2-1,0.3-1.6,0.3c-0.3,0-0.7,0-1-0.1
				c-0.3-0.1-0.7-0.2-1-0.3v-0.6c0.6,0.4,1.3,0.5,2,0.5c0.7,0,1.3-0.2,1.7-0.5c0.4-0.3,0.6-0.8,0.6-1.4c0-0.2,0-0.4-0.1-0.6
				s-0.2-0.3-0.3-0.5c-0.1-0.1-0.3-0.3-0.5-0.4c-0.2-0.1-0.5-0.3-0.8-0.4c-0.6-0.3-1-0.6-1.2-1c-0.2-0.3-0.4-0.8-0.4-1.2
				s0.1-0.9,0.3-1.2c0.2-0.4,0.6-0.6,1-0.8c0.4-0.2,0.9-0.3,1.4-0.3c0.4,0,0.7,0,1.1,0.1c0.3,0.1,0.6,0.2,1,0.4l-0.2,0.6
				c-0.3-0.2-0.6-0.3-0.9-0.4c-0.3-0.1-0.7-0.1-1-0.1c-0.6,0-1.2,0.2-1.5,0.5c-0.4,0.3-0.6,0.8-0.6,1.3c0,0.4,0.1,0.7,0.3,1
				c0.2,0.3,0.5,0.5,1.1,0.8c0.6,0.3,1,0.6,1.3,0.8s0.4,0.4,0.5,0.7C133.5,515.9,133.6,516.2,133.6,516.5z"/>
			<path fill="#666666" d="M144.3,512.4c0,2-1.2,2.9-3.6,2.9h-1.2l-0.8,3.5h-0.6l1.8-8.6h1.9c0.8,0,1.4,0.2,1.8,0.5
				C144.1,511.2,144.3,511.7,144.3,512.4z M139.6,514.8h1.1c1,0,1.7-0.2,2.2-0.6c0.5-0.4,0.7-1,0.7-1.8c0-1.1-0.6-1.6-1.9-1.6h-1.2
				L139.6,514.8z"/>
			<path fill="#666666" d="M152.5,518.9h-4.3l1.8-8.6h4.3l-0.1,0.6h-3.7l-0.7,3.3h3.5l-0.1,0.6h-3.5l-0.8,3.7h3.7L152.5,518.9z"/>
			<path fill="#666666" d="M162.8,510.7c-0.8,0-1.5,0.2-2.1,0.6c-0.6,0.4-1.1,1-1.4,1.8c-0.4,0.8-0.5,1.7-0.5,2.6
				c0,0.9,0.2,1.6,0.7,2c0.4,0.5,1.1,0.7,1.9,0.7c0.5,0,1.1-0.1,1.8-0.3v0.6c-0.6,0.2-1.2,0.3-1.9,0.3c-1,0-1.7-0.3-2.3-0.9
				c-0.5-0.6-0.8-1.4-0.8-2.4c0-1,0.2-2,0.6-2.9c0.4-0.9,1-1.5,1.7-2c0.7-0.5,1.5-0.7,2.4-0.7c0.7,0,1.3,0.1,1.8,0.4l-0.3,0.5
				c-0.2-0.1-0.5-0.2-0.7-0.3C163.3,510.7,163,510.7,162.8,510.7z"/>
			<path fill="#666666" d="M169.8,518.9h-0.6l1.7-8.1h-2.5l0.1-0.6h5.7l-0.1,0.6h-2.6L169.8,518.9z"/>
			<path fill="#666666" d="M178.3,515.2l-0.8,3.7h-0.6l1.8-8.6h1.8c1.7,0,2.5,0.7,2.5,2.1c0,0.7-0.2,1.3-0.6,1.8
				c-0.4,0.5-1,0.8-1.7,0.9c0.8,2.3,1.2,3.6,1.3,3.8h-0.7l-1.2-3.7H178.3z M178.4,514.6h1.5c0.8,0,1.4-0.2,1.9-0.6
				c0.4-0.4,0.6-0.9,0.6-1.7c0-1.1-0.6-1.6-1.9-1.6h-1.2L178.4,514.6z"/>
			<path fill="#666666" d="M191,515.8h-3l-1.7,3.1h-0.7l4.8-8.6h0.4l1.2,8.6h-0.6L191,515.8z M191,515.3l-0.2-1.7
				c-0.1-1-0.2-1.7-0.2-2.4c-0.1,0.2-0.2,0.5-0.4,0.8c-0.1,0.3-0.7,1.4-1.8,3.3H191z"/>
			<path fill="#666666" d="M196.4,518.9l1.8-8.6h0.6l-1.7,8h3.7l-0.1,0.6H196.4z"/>
			<path fill="#666666" d="M212.9,515.2l-0.8,3.7h-0.6l1.8-8.6h1.8c1.7,0,2.5,0.7,2.5,2.1c0,0.7-0.2,1.3-0.6,1.8
				c-0.4,0.5-1,0.8-1.7,0.9c0.8,2.3,1.2,3.6,1.3,3.8h-0.7l-1.2-3.7H212.9z M213.1,514.6h1.5c0.8,0,1.4-0.2,1.9-0.6
				c0.4-0.4,0.6-0.9,0.6-1.7c0-1.1-0.6-1.6-1.9-1.6h-1.2L213.1,514.6z"/>
			<path fill="#666666" d="M225.9,518.9h-4.3l1.8-8.6h4.3l-0.1,0.6h-3.7l-0.7,3.3h3.5l-0.1,0.6h-3.5l-0.8,3.7h3.7L225.9,518.9z"/>
			<path fill="#666666" d="M233.1,518.9h-0.6l1.7-8.1h-2.5l0.1-0.6h5.7l-0.1,0.6h-2.6L233.1,518.9z"/>
			<path fill="#666666" d="M244.3,515.8h-3l-1.7,3.1h-0.7l4.8-8.6h0.4l1.2,8.6h-0.6L244.3,515.8z M244.2,515.3l-0.2-1.7
				c-0.1-1-0.2-1.7-0.2-2.4c-0.1,0.2-0.2,0.5-0.4,0.8c-0.1,0.3-0.7,1.4-1.8,3.3H244.2z"/>
			<path fill="#666666" d="M249.7,518.9l1.8-8.6h0.6l-1.8,8.6H249.7z"/>
			<path fill="#666666" d="M255.9,518.9l1.8-8.6h0.6l-1.7,8h3.7l-0.1,0.6H255.9z"/>
			<path fill="#666666" d="M268.9,518.9h-4.3l1.8-8.6h4.3l-0.1,0.6H267l-0.7,3.3h3.5l-0.1,0.6h-3.5l-0.8,3.7h3.7L268.9,518.9z"/>
			<path fill="#666666" d="M275.6,515.2l-0.8,3.7h-0.6l1.8-8.6h1.8c1.7,0,2.5,0.7,2.5,2.1c0,0.7-0.2,1.3-0.6,1.8
				c-0.4,0.5-1,0.8-1.7,0.9c0.8,2.3,1.2,3.6,1.3,3.8h-0.7l-1.2-3.7H275.6z M275.7,514.6h1.5c0.8,0,1.4-0.2,1.9-0.6
				c0.4-0.4,0.6-0.9,0.6-1.7c0-1.1-0.6-1.6-1.9-1.6h-1.2L275.7,514.6z"/>
		</g>
	</g>
</g>
<g id="Layer_3">
	<g>
		<g>
			<rect x="174.3" y="0.5" width="34.4" height="34.4"/>
			<g>
				<path d="M0.1,29c0.2-0.2,0.5-0.2,0.8,0c2.7,2.2,7.2,4.7,11.9,4.7c3.2,0,6-0.9,8.1-2.5c2.1-1.5,3.3-3.5,3.3-5.7
					c0-2.2-1.1-3.9-3.1-5.3c-2-1.4-4.9-2.3-8.3-2.9l-0.1,0c-3.2-0.6-6.1-1.5-8.1-2.9C2.4,13,1.1,11.1,1.1,8.6C1.2,3.7,6.5,0,12.7,0
					c4.5,0,7.9,2.2,10.6,4c0.2,0.1,0.3,0.5,0.1,0.8C23.3,5.1,23,5.1,22.7,5c-2.8-1.8-5.9-3.8-10-3.8C9.8,1.1,7.1,2,5.2,3.4
					c-1.9,1.4-3,3.2-3,5.3c0,2,1,3.5,2.9,4.8c1.9,1.3,4.6,2.2,7.7,2.7h0.1c3.5,0.7,6.5,1.6,8.8,3.1c2.2,1.5,3.6,3.5,3.6,6.2
					c0,5.3-5.7,9.3-12.5,9.3c-5.2,0-9.8-2.7-12.6-5C0,29.6-0.1,29.3,0.1,29z"/>
				<path d="M34.9,1.1c0-0.4,0.2-0.6,0.6-0.6c0.3,0,0.6,0.2,0.6,0.6v33.1c0,0.4-0.3,0.6-0.6,0.6c-0.4,0-0.6-0.2-0.6-0.6V1.1z"/>
				<path d="M77,3L64.5,20.4c-0.1,0.1-0.3,0.2-0.5,0.2h-0.1c-0.2,0-0.4-0.1-0.5-0.2L50.8,2.9v31.3c0,0.3-0.2,0.6-0.6,0.6
					c-0.3,0-0.6-0.3-0.6-0.6v-33c0-0.3,0.3-0.6,0.6-0.6c0,0,0.1,0,0.1,0c0.1,0,0.3,0.1,0.4,0.2L63.9,19L77.1,0.8
					c0.1-0.1,0.2-0.2,0.4-0.2c0.1,0,0.1,0,0.1,0c0.4,0,0.6,0.3,0.6,0.6v33c0,0.3-0.2,0.6-0.6,0.6c-0.3,0-0.6-0.3-0.6-0.6V3z"/>
				<path d="M88.5,1.1c0-0.3,0.3-0.6,0.6-0.6h0.1h10c5.3,0,9.6,4.3,9.6,9.6c0,5.3-4.3,9.5-9.6,9.5h-9.5v14.6c0,0.3-0.2,0.6-0.6,0.6
					c-0.3,0-0.6-0.3-0.6-0.6V1.1z M99.2,18.3c4.6,0,8.3-3.6,8.3-8.2c0-4.6-3.7-8.3-8.3-8.3h-9.5v16.6H99.2z"/>
				<path d="M117.9,34.8L117.9,34.8c-0.4,0-0.7-0.3-0.7-0.6V1.1c0-0.3,0.3-0.6,0.6-0.6c0.3,0,0.6,0.3,0.6,0.6v32.5h17.7
					c0.4,0,0.6,0.2,0.6,0.6c0,0.3-0.2,0.6-0.6,0.6H117.9z"/>
				<path d="M148.2,18.1l-12-16.5c-0.2-0.2-0.2-0.6,0.1-0.8c0.2-0.2,0.6-0.1,0.8,0.1l11.7,16l11.6-16c0.2-0.2,0.6-0.3,0.9-0.1
					c0.3,0.2,0.4,0.6,0.2,0.8l-12.1,16.5v16.1c0,0.3-0.2,0.6-0.6,0.6c-0.3,0-0.6-0.3-0.6-0.6V18.1z"/>
			</g>
			<g>
				<path d="M243.1,25.7c0,3-1.1,5.4-3.3,7.1c-2.2,1.7-5.2,2.6-9,2.6c-3.8,0-7-0.6-9.4-1.8v-5.3c1.5,0.7,3.2,1.3,4.9,1.7
					c1.7,0.4,3.4,0.6,4.9,0.6c2.2,0,3.8-0.4,4.9-1.3c1-0.8,1.6-2,1.6-3.4c0-1.3-0.5-2.3-1.4-3.2c-1-0.9-2.9-1.9-6-3.1
					c-3.1-1.3-5.3-2.7-6.6-4.3c-1.3-1.6-1.9-3.5-1.9-5.8c0-2.8,1-5.1,3-6.7c2-1.6,4.7-2.4,8.1-2.4c3.3,0,6.5,0.7,9.7,2.1l-1.8,4.5
					c-3-1.3-5.7-1.9-8.1-1.9c-1.8,0-3.2,0.4-4.1,1.2c-0.9,0.8-1.4,1.8-1.4,3.1c0,0.9,0.2,1.6,0.6,2.3c0.4,0.6,1,1.2,1.8,1.8
					c0.9,0.6,2.4,1.3,4.6,2.2c2.5,1,4.3,2,5.5,2.9c1.2,0.9,2,1.9,2.6,3C242.9,22.8,243.1,24.2,243.1,25.7z"/>
				<path d="M261.4,34.9h-5.6V5.7h-10V0.9h25.6v4.8h-10V34.9z"/>
				<path d="M297.7,34.9l-3.4-9.4h-13l-3.3,9.4h-5.9l12.7-34.1h6l12.7,34.1H297.7z M292.9,20.7l-3.2-9.3c-0.2-0.6-0.6-1.6-1-2.9
					c-0.4-1.3-0.7-2.3-0.8-2.9c-0.4,1.9-1,4-1.8,6.3l-3.1,8.9H292.9z"/>
				<path d="M336.5,34.9h-6.8L312.9,7.8h-0.2l0.1,1.5c0.2,2.9,0.3,5.5,0.3,7.9v17.7h-5v-34h6.7l16.7,26.9h0.1c0-0.4-0.1-1.7-0.2-3.9
					c-0.1-2.2-0.1-4-0.1-5.2V0.9h5.1V34.9z"/>
				<path d="M373.1,17.6c0,5.6-1.6,9.9-4.7,12.9c-3.1,3-7.6,4.5-13.5,4.5h-9.5v-34h10.5c5.4,0,9.6,1.5,12.6,4.4
					C371.6,8.2,373.1,12.3,373.1,17.6z M367.2,17.8c0-8.1-3.8-12.2-11.4-12.2H351v24.7h4C363.1,30.2,367.2,26.1,367.2,17.8z"/>
				<path d="M400,25.7c0,3-1.1,5.4-3.3,7.1c-2.2,1.7-5.2,2.6-9,2.6c-3.8,0-7-0.6-9.4-1.8v-5.3c1.5,0.7,3.2,1.3,4.9,1.7
					c1.7,0.4,3.4,0.6,4.9,0.6c2.2,0,3.8-0.4,4.9-1.3c1-0.8,1.6-2,1.6-3.4c0-1.3-0.5-2.3-1.4-3.2c-1-0.9-2.9-1.9-6-3.1
					c-3.1-1.3-5.3-2.7-6.6-4.3c-1.3-1.6-1.9-3.5-1.9-5.8c0-2.8,1-5.1,3-6.7c2-1.6,4.7-2.4,8.1-2.4c3.3,0,6.5,0.7,9.7,2.1l-1.8,4.5
					c-3-1.3-5.7-1.9-8.1-1.9c-1.8,0-3.2,0.4-4.1,1.2s-1.4,1.8-1.4,3.1c0,0.9,0.2,1.6,0.6,2.3c0.4,0.6,1,1.2,1.8,1.8
					c0.9,0.6,2.4,1.3,4.6,2.2c2.5,1,4.3,2,5.5,2.9c1.2,0.9,2,1.9,2.6,3C399.7,22.8,400,24.2,400,25.7z"/>
			</g>
		</g>
		<g>
			<g>
				<path fill="#666666" d="M4.4,58.6H3.6V48.3H0v-0.7h8v0.7H4.4V58.6z"/>
				<path fill="#666666" d="M21.5,58.6h-0.8v-5.5h-6.5v5.5h-0.8V47.5h0.8v4.9h6.5v-4.9h0.8V58.6z"/>
				<path fill="#666666" d="M34.6,58.6h-6.1V47.5h6.1v0.7h-5.3v4.2h5v0.7h-5v4.8h5.3V58.6z"/>
				<path fill="#666666" d="M57.1,47.5v7.2c0,1.3-0.4,2.3-1.1,3c-0.7,0.7-1.8,1.1-3.1,1.1c-1.3,0-2.3-0.4-3-1.1
					c-0.7-0.7-1.1-1.7-1.1-3v-7.1h0.8v7.2c0,1.1,0.3,1.9,0.9,2.5c0.6,0.6,1.4,0.9,2.5,0.9c1.1,0,1.9-0.3,2.5-0.9
					c0.6-0.6,0.9-1.4,0.9-2.4v-7.3H57.1z"/>
				<path fill="#666666" d="M71.4,58.6h-0.9l-4.3-5.9l-1.5,1.3v4.5H64V47.5h0.8v5.8l1.2-1.2l4.3-4.5h1l-4.5,4.7L71.4,58.6z"/>
				<path fill="#666666" d="M77.3,47.5l0.1,0.2C77,49,76.5,50.2,76,51.3h-0.5c0.1-0.5,0.3-1.1,0.5-1.8c0.2-0.7,0.3-1.4,0.4-2H77.3z"
					/>
				<path fill="#666666" d="M89.2,55.8c0,0.9-0.3,1.7-1,2.2c-0.7,0.5-1.6,0.8-2.7,0.8c-1.4,0-2.4-0.1-3.1-0.4v-0.8
					c0.8,0.3,1.8,0.5,3.1,0.5c0.9,0,1.6-0.2,2.2-0.6c0.5-0.4,0.8-1,0.8-1.6c0-0.4-0.1-0.8-0.3-1c-0.2-0.3-0.5-0.5-0.9-0.8
					c-0.4-0.2-1-0.5-1.8-0.7c-1.1-0.4-1.9-0.8-2.3-1.3c-0.4-0.5-0.6-1.1-0.6-1.8c0-0.8,0.3-1.5,1-2c0.6-0.5,1.5-0.8,2.5-0.8
					c1,0,2,0.2,2.9,0.6l-0.3,0.7c-0.9-0.4-1.8-0.6-2.6-0.6c-0.8,0-1.5,0.2-2,0.6c-0.5,0.4-0.7,0.9-0.7,1.5c0,0.4,0.1,0.7,0.2,1
					c0.1,0.3,0.4,0.5,0.7,0.7c0.3,0.2,0.9,0.5,1.7,0.8c0.9,0.3,1.5,0.6,1.9,0.9c0.4,0.3,0.8,0.6,1,1C89.1,54.8,89.2,55.3,89.2,55.8z
					"/>
				<path fill="#666666" d="M110,50.7c0,1.1-0.4,1.9-1.1,2.5c-0.7,0.6-1.8,0.9-3.1,0.9h-1.7v4.6h-0.8V47.5h2.7
					C108.7,47.5,110,48.6,110,50.7z M104.1,53.4h1.5c1.2,0,2.2-0.2,2.7-0.6c0.6-0.4,0.8-1.1,0.8-2c0-0.9-0.3-1.5-0.8-1.9
					c-0.5-0.4-1.3-0.6-2.4-0.6h-1.8V53.4z"/>
				<path fill="#666666" d="M117,53.8v4.8h-0.8V47.5h2.6c1.4,0,2.4,0.3,3,0.8c0.7,0.5,1,1.3,1,2.3c0,0.7-0.2,1.4-0.6,1.9
					c-0.4,0.5-1,0.9-1.8,1.1l3,5.1h-0.9l-2.9-4.8H117z M117,53.1h2.1c0.9,0,1.7-0.2,2.2-0.6c0.5-0.4,0.8-1,0.8-1.8
					c0-0.8-0.3-1.5-0.8-1.8c-0.5-0.4-1.3-0.6-2.5-0.6H117V53.1z"/>
				<path fill="#666666" d="M135.4,58.6h-6.1V47.5h6.1v0.7h-5.3v4.2h5v0.7h-5v4.8h5.3V58.6z"/>
				<path fill="#666666" d="M146.7,58.6l-4.1-10.2h-0.1c0,0.6,0.1,1.3,0.1,1.9v8.3h-0.7V47.5h1.2l3.9,9.8h0l3.9-9.8h1.2v11.1h-0.8
					v-8.4c0-0.6,0-1.2,0.1-1.8h-0.1l-4.1,10.2H146.7z"/>
				<path fill="#666666" d="M159.1,58.6V47.5h0.8v11.1H159.1z"/>
				<path fill="#666666" d="M173,58.6h-6.1V47.5h6.1v0.7h-5.3v4.2h5v0.7h-5v4.8h5.3V58.6z"/>
				<path fill="#666666" d="M180.1,53.8v4.8h-0.8V47.5h2.6c1.4,0,2.4,0.3,3,0.8c0.7,0.5,1,1.3,1,2.3c0,0.7-0.2,1.4-0.6,1.9
					c-0.4,0.5-1,0.9-1.8,1.1l3,5.1h-0.9l-2.9-4.8H180.1z M180.1,53.1h2.1c0.9,0,1.7-0.2,2.2-0.6c0.5-0.4,0.8-1,0.8-1.8
					c0-0.8-0.3-1.5-0.8-1.8c-0.5-0.4-1.3-0.6-2.5-0.6h-1.8V53.1z"/>
				<path fill="#666666" d="M206.5,55.8c0,0.9-0.3,1.7-1,2.2c-0.7,0.5-1.6,0.8-2.7,0.8c-1.4,0-2.4-0.1-3.1-0.4v-0.8
					c0.8,0.3,1.8,0.5,3.1,0.5c0.9,0,1.6-0.2,2.2-0.6c0.5-0.4,0.8-1,0.8-1.6c0-0.4-0.1-0.8-0.3-1c-0.2-0.3-0.5-0.5-0.9-0.8
					c-0.4-0.2-1-0.5-1.8-0.7c-1.1-0.4-1.9-0.8-2.3-1.3c-0.4-0.5-0.6-1.1-0.6-1.8c0-0.8,0.3-1.5,1-2c0.7-0.5,1.5-0.8,2.5-0.8
					c1,0,2,0.2,2.9,0.6l-0.3,0.7c-0.9-0.4-1.8-0.6-2.6-0.6c-0.8,0-1.5,0.2-2,0.6c-0.5,0.4-0.7,0.9-0.7,1.5c0,0.4,0.1,0.7,0.2,1
					c0.1,0.3,0.4,0.5,0.7,0.7c0.3,0.2,0.9,0.5,1.7,0.8c0.9,0.3,1.5,0.6,1.9,0.9c0.4,0.3,0.8,0.6,1,1
					C206.4,54.8,206.5,55.3,206.5,55.8z"/>
				<path fill="#666666" d="M219.4,50.7c0,1.1-0.4,1.9-1.1,2.5c-0.7,0.6-1.8,0.9-3.1,0.9h-1.7v4.6h-0.8V47.5h2.7
					C218.1,47.5,219.4,48.6,219.4,50.7z M213.5,53.4h1.5c1.2,0,2.2-0.2,2.7-0.6c0.6-0.4,0.8-1.1,0.8-2c0-0.9-0.3-1.5-0.8-1.9
					c-0.5-0.4-1.3-0.6-2.4-0.6h-1.8V53.4z"/>
				<path fill="#666666" d="M231.8,58.6h-6.1V47.5h6.1v0.7h-5.3v4.2h5v0.7h-5v4.8h5.3V58.6z"/>
				<path fill="#666666" d="M242.9,48.1c-1.4,0-2.5,0.4-3.3,1.3c-0.8,0.9-1.2,2.1-1.2,3.7c0,1.6,0.4,2.8,1.1,3.7
					c0.8,0.9,1.8,1.3,3.2,1.3c0.9,0,1.8-0.1,2.6-0.4v0.7c-0.7,0.3-1.6,0.4-2.7,0.4c-1.6,0-2.8-0.5-3.7-1.5c-0.9-1-1.3-2.4-1.3-4.2
					c0-1.1,0.2-2.1,0.6-3c0.4-0.9,1-1.5,1.8-2c0.8-0.5,1.7-0.7,2.8-0.7c1.1,0,2,0.2,2.9,0.6l-0.3,0.7
					C244.6,48.3,243.8,48.1,242.9,48.1z"/>
				<path fill="#666666" d="M254.6,58.6h-0.8V48.3h-3.6v-0.7h8v0.7h-3.6V58.6z"/>
				<path fill="#666666" d="M264.5,53.8v4.8h-0.8V47.5h2.6c1.4,0,2.4,0.3,3.1,0.8c0.7,0.5,1,1.3,1,2.3c0,0.7-0.2,1.4-0.6,1.9
					c-0.4,0.5-1,0.9-1.8,1.1l3,5.1h-0.9l-2.9-4.8H264.5z M264.5,53.1h2.1c0.9,0,1.7-0.2,2.2-0.6c0.5-0.4,0.8-1,0.8-1.8
					c0-0.8-0.3-1.5-0.8-1.8c-0.5-0.4-1.3-0.6-2.5-0.6h-1.8V53.1z"/>
				<path fill="#666666" d="M282.2,54.7h-4.5l-1.5,3.9h-0.9l4.5-11.1h0.5l4.4,11.1h-0.9L282.2,54.7z M277.9,54h4l-1.5-4
					c-0.1-0.3-0.3-0.7-0.5-1.3c-0.1,0.5-0.3,0.9-0.4,1.3L277.9,54z"/>
				<path fill="#666666" d="M290,58.6V47.5h0.8v10.4h5.3v0.7H290z"/>
				<path fill="#666666" d="M310.6,53.8v4.8h-0.8V47.5h2.6c1.4,0,2.4,0.3,3,0.8c0.7,0.5,1,1.3,1,2.3c0,0.7-0.2,1.4-0.6,1.9
					c-0.4,0.5-1,0.9-1.8,1.1l3,5.1h-0.9l-2.9-4.8H310.6z M310.6,53.1h2.1c0.9,0,1.7-0.2,2.2-0.6c0.5-0.4,0.8-1,0.8-1.8
					c0-0.8-0.3-1.5-0.8-1.8c-0.5-0.4-1.3-0.6-2.5-0.6h-1.8V53.1z"/>
				<path fill="#666666" d="M329,58.6h-6.1V47.5h6.1v0.7h-5.3v4.2h5v0.7h-5v4.8h5.3V58.6z"/>
				<path fill="#666666" d="M338.3,58.6h-0.8V48.3h-3.6v-0.7h8v0.7h-3.6V58.6z"/>
				<path fill="#666666" d="M352.7,54.7h-4.5l-1.5,3.9h-0.9l4.5-11.1h0.5l4.4,11.1h-0.9L352.7,54.7z M348.5,54h4l-1.5-4
					c-0.1-0.3-0.3-0.7-0.5-1.3c-0.1,0.5-0.3,0.9-0.4,1.3L348.5,54z"/>
				<path fill="#666666" d="M360.6,58.6V47.5h0.8v11.1H360.6z"/>
				<path fill="#666666" d="M368.4,58.6V47.5h0.8v10.4h5.3v0.7H368.4z"/>
				<path fill="#666666" d="M386.3,58.6h-6.1V47.5h6.1v0.7H381v4.2h5v0.7h-5v4.8h5.3V58.6z"/>
				<path fill="#666666" d="M393.5,53.8v4.8h-0.8V47.5h2.6c1.4,0,2.4,0.3,3.1,0.8c0.7,0.5,1,1.3,1,2.3c0,0.7-0.2,1.4-0.6,1.9
					c-0.4,0.5-1,0.9-1.8,1.1l3,5.1h-0.9l-2.9-4.8H393.5z M393.5,53.1h2.1c0.9,0,1.7-0.2,2.2-0.6c0.5-0.4,0.8-1,0.8-1.8
					c0-0.8-0.3-1.5-0.8-1.8c-0.5-0.4-1.3-0.6-2.5-0.6h-1.8V53.1z"/>
			</g>
		</g>
	</g>
</g>
<g id="Layer_4" display="none">
	<g display="inline">
		<g>
			<g>
				<path d="M-2.9,28.5c0.2-0.2,0.5-0.2,0.8,0c2.7,2.2,7.3,4.8,12.1,4.8c3.2,0,6.1-0.9,8.2-2.5c2.1-1.5,3.3-3.6,3.3-5.8
					c0-2.2-1.1-3.9-3.2-5.3c-2-1.4-5-2.3-8.4-2.9l-0.1,0c-3.3-0.6-6.2-1.5-8.3-2.9c-2.1-1.4-3.4-3.3-3.4-5.8c0-5,5.4-8.7,11.8-8.7
					c4.5,0,8,2.2,10.7,4.1c0.2,0.1,0.3,0.5,0.1,0.8c-0.1,0.2-0.5,0.3-0.7,0.1c-2.8-1.8-6-3.9-10.1-3.9c-3,0-5.7,0.9-7.6,2.3
					c-1.9,1.4-3,3.3-3,5.3c0,2,1,3.6,2.9,4.9C4,14,6.8,14.9,9.9,15.5H10c3.6,0.7,6.6,1.6,8.9,3.1c2.2,1.5,3.7,3.6,3.7,6.3
					c0,5.4-5.8,9.4-12.7,9.4c-5.2,0-9.9-2.7-12.8-5C-3.1,29.1-3.1,28.7-2.9,28.5z"/>
				<path d="M32.3,0.3c0-0.4,0.2-0.6,0.6-0.6c0.3,0,0.6,0.2,0.6,0.6v33.5c0,0.4-0.3,0.6-0.6,0.6c-0.4,0-0.6-0.3-0.6-0.6V0.3z"/>
				<path d="M75,2.2L62.3,19.8c-0.1,0.1-0.3,0.2-0.5,0.2h-0.1c-0.2,0-0.4-0.1-0.5-0.2L48.4,2.1v31.7c0,0.3-0.2,0.6-0.6,0.6
					c-0.3,0-0.6-0.3-0.6-0.6V0.3c0-0.3,0.3-0.6,0.6-0.6c0,0,0.1,0,0.1,0c0.1,0,0.3,0.1,0.4,0.2l13.3,18.5L75-0.1
					c0.1-0.1,0.2-0.2,0.4-0.2c0.1,0,0.1,0,0.1,0c0.4,0,0.6,0.3,0.6,0.6v33.5c0,0.3-0.2,0.6-0.6,0.6c-0.3,0-0.6-0.3-0.6-0.6V2.2z"/>
				<path d="M86.6,0.3c0-0.3,0.3-0.6,0.6-0.6h0.1h10.1c5.3,0,9.7,4.3,9.7,9.7c0,5.4-4.4,9.6-9.7,9.6h-9.6v14.8
					c0,0.3-0.2,0.6-0.6,0.6c-0.3,0-0.6-0.3-0.6-0.6V0.3z M97.4,17.7c4.6,0,8.4-3.7,8.4-8.4c0-4.7-3.8-8.5-8.4-8.5h-9.6v16.8H97.4z"
					/>
				<path d="M116.3,34.4L116.3,34.4c-0.4,0-0.7-0.3-0.7-0.6V0.3c0-0.3,0.3-0.6,0.6-0.6c0.3,0,0.6,0.3,0.6,0.6v32.9h17.9
					c0.4,0,0.6,0.3,0.6,0.6c0,0.3-0.2,0.6-0.6,0.6H116.3z"/>
				<path d="M147,17.4L134.9,0.7c-0.2-0.2-0.2-0.6,0.1-0.8c0.2-0.2,0.6-0.1,0.8,0.1l11.8,16.3l11.8-16.3c0.2-0.2,0.6-0.3,0.9-0.1
					c0.3,0.2,0.4,0.6,0.2,0.8l-12.3,16.8v16.4c0,0.3-0.2,0.6-0.6,0.6c-0.3,0-0.6-0.3-0.6-0.6V17.4z"/>
			</g>
			<g>
				<path d="M243.2,25.1c0,3.1-1.1,5.5-3.3,7.2c-2.2,1.7-5.3,2.6-9.2,2.6c-3.9,0-7.1-0.6-9.6-1.8v-5.3c1.6,0.7,3.2,1.3,5,1.7
					c1.8,0.4,3.4,0.6,4.9,0.6c2.2,0,3.9-0.4,4.9-1.3c1.1-0.8,1.6-2,1.6-3.4c0-1.3-0.5-2.4-1.5-3.3c-1-0.9-3-2-6-3.2
					c-3.1-1.3-5.4-2.7-6.6-4.4c-1.3-1.6-1.9-3.6-1.9-5.9c0-2.9,1-5.1,3.1-6.8c2-1.6,4.8-2.5,8.2-2.5c3.3,0,6.6,0.7,9.8,2.2l-1.8,4.6
					c-3.1-1.3-5.8-1.9-8.2-1.9c-1.8,0-3.2,0.4-4.1,1.2c-0.9,0.8-1.4,1.8-1.4,3.1c0,0.9,0.2,1.7,0.6,2.3c0.4,0.6,1,1.2,1.9,1.8
					c0.9,0.6,2.4,1.3,4.7,2.2c2.5,1.1,4.4,2,5.6,2.9c1.2,0.9,2,1.9,2.6,3.1C242.9,22.2,243.2,23.6,243.2,25.1z"/>
				<path d="M261.7,34.5h-5.6V4.9H246V0.1h25.9v4.8h-10.1V34.5z"/>
				<path d="M298.5,34.5l-3.4-9.6h-13.2l-3.4,9.6h-5.9l12.9-34.6h6.1l12.9,34.6H298.5z M293.6,20.1l-3.2-9.4c-0.2-0.6-0.6-1.6-1-3
					c-0.4-1.3-0.7-2.3-0.9-3c-0.4,1.9-1,4-1.9,6.3l-3.1,9H293.6z"/>
				<path d="M337.7,34.5h-6.9L313.9,7.1h-0.2l0.1,1.5c0.2,2.9,0.3,5.6,0.3,8v17.9H309V0.1h6.8l16.9,27.3h0.1c0-0.4-0.1-1.7-0.2-3.9
					c-0.1-2.3-0.1-4-0.1-5.3v-18h5.2V34.5z"/>
				<path d="M374.8,16.9c0,5.7-1.6,10-4.7,13c-3.2,3-7.7,4.5-13.6,4.5h-9.6V0.1h10.6c5.5,0,9.7,1.5,12.8,4.4
					C373.3,7.4,374.8,11.6,374.8,16.9z M368.8,17.1c0-8.2-3.9-12.4-11.6-12.4h-4.9v25h4C364.7,29.8,368.8,25.6,368.8,17.1z"/>
				<path d="M402,25.1c0,3.1-1.1,5.5-3.3,7.2c-2.2,1.7-5.3,2.6-9.2,2.6c-3.9,0-7.1-0.6-9.6-1.8v-5.3c1.6,0.7,3.2,1.3,5,1.7
					c1.8,0.4,3.4,0.6,4.9,0.6c2.2,0,3.9-0.4,4.9-1.3c1.1-0.8,1.6-2,1.6-3.4c0-1.3-0.5-2.4-1.5-3.3c-1-0.9-3-2-6-3.2
					c-3.1-1.3-5.4-2.7-6.6-4.4c-1.3-1.6-1.9-3.6-1.9-5.9c0-2.9,1-5.1,3.1-6.8c2-1.6,4.8-2.5,8.2-2.5c3.3,0,6.6,0.7,9.8,2.2l-1.8,4.6
					c-3.1-1.3-5.8-1.9-8.2-1.9c-1.8,0-3.2,0.4-4.1,1.2S386,7.4,386,8.7c0,0.9,0.2,1.7,0.6,2.3c0.4,0.6,1,1.2,1.9,1.8
					c0.9,0.6,2.4,1.3,4.7,2.2c2.5,1.1,4.4,2,5.6,2.9c1.2,0.9,2,1.9,2.6,3.1C401.7,22.2,402,23.6,402,25.1z"/>
			</g>
			<circle cx="190.8" cy="17" r="17.3"/>
		</g>
		<g>
			<g>
				<path fill="#666666" d="M1.4,58.5H0.6V48H-3v-0.7H5V48H1.4V58.5z"/>
				<path fill="#666666" d="M18.8,58.5H18V53h-6.6v5.5h-0.8V47.3h0.8v5H18v-5h0.8V58.5z"/>
				<path fill="#666666" d="M32,58.5h-6.1V47.3H32V48h-5.4v4.2h5.1V53h-5.1v4.8H32V58.5z"/>
				<path fill="#666666" d="M54.8,47.3v7.3c0,1.3-0.4,2.3-1.1,3c-0.7,0.7-1.8,1.1-3.1,1.1c-1.3,0-2.3-0.4-3-1.1
					c-0.7-0.7-1.1-1.7-1.1-3.1v-7.2h0.8v7.3c0,1.1,0.3,1.9,0.9,2.5c0.6,0.6,1.4,0.9,2.5,0.9c1.1,0,1.9-0.3,2.5-0.9
					c0.6-0.6,0.9-1.4,0.9-2.5v-7.3H54.8z"/>
				<path fill="#666666" d="M69.3,58.5h-1L64,52.6l-1.5,1.3v4.6h-0.8V47.3h0.8v5.8l1.2-1.2l4.4-4.6h1L64.6,52L69.3,58.5z"/>
				<path fill="#666666" d="M75.2,47.3l0.1,0.2c-0.4,1.4-0.8,2.6-1.3,3.7h-0.5c0.1-0.5,0.3-1.1,0.5-1.9c0.2-0.7,0.3-1.4,0.4-2H75.2z
					"/>
				<path fill="#666666" d="M87.2,55.6c0,0.9-0.3,1.7-1,2.2c-0.7,0.5-1.6,0.8-2.7,0.8c-1.4,0-2.4-0.2-3.2-0.5v-0.8
					c0.8,0.3,1.8,0.5,3.1,0.5c0.9,0,1.7-0.2,2.2-0.6c0.5-0.4,0.8-1,0.8-1.7c0-0.4-0.1-0.8-0.3-1.1c-0.2-0.3-0.5-0.5-0.9-0.8
					c-0.4-0.2-1-0.5-1.8-0.7c-1.1-0.4-1.9-0.8-2.4-1.3c-0.4-0.5-0.7-1.1-0.7-1.8c0-0.8,0.3-1.5,1-2.1c0.7-0.5,1.5-0.8,2.5-0.8
					c1.1,0,2,0.2,3,0.6l-0.3,0.7c-0.9-0.4-1.8-0.6-2.7-0.6c-0.8,0-1.5,0.2-2,0.6c-0.5,0.4-0.7,0.9-0.7,1.6c0,0.4,0.1,0.8,0.2,1
					c0.2,0.3,0.4,0.5,0.7,0.7c0.3,0.2,0.9,0.5,1.8,0.8c0.9,0.3,1.5,0.6,2,0.9c0.4,0.3,0.8,0.6,1,1C87.1,54.7,87.2,55.1,87.2,55.6z"
					/>
				<path fill="#666666" d="M108.3,50.5c0,1.1-0.4,1.9-1.1,2.5c-0.7,0.6-1.8,0.9-3.1,0.9h-1.7v4.6h-0.8V47.3h2.8
					C107,47.3,108.3,48.3,108.3,50.5z M102.4,53.2h1.5c1.3,0,2.2-0.2,2.7-0.6c0.6-0.4,0.8-1.1,0.8-2c0-0.9-0.3-1.5-0.8-1.9
					c-0.5-0.4-1.4-0.6-2.5-0.6h-1.9V53.2z"/>
				<path fill="#666666" d="M115.5,53.6v4.9h-0.8V47.3h2.7c1.4,0,2.4,0.3,3.1,0.8c0.7,0.5,1,1.3,1,2.3c0,0.8-0.2,1.4-0.6,1.9
					c-0.4,0.5-1,0.9-1.8,1.1l3,5.1h-0.9l-2.9-4.9H115.5z M115.5,52.9h2.1c0.9,0,1.7-0.2,2.2-0.6c0.5-0.4,0.8-1,0.8-1.9
					c0-0.9-0.3-1.5-0.8-1.9c-0.5-0.4-1.3-0.6-2.5-0.6h-1.9V52.9z"/>
				<path fill="#666666" d="M134.1,58.5H128V47.3h6.1V48h-5.4v4.2h5.1V53h-5.1v4.8h5.4V58.5z"/>
				<path fill="#666666" d="M145.5,58.5l-4.2-10.4h-0.1c0,0.6,0.1,1.3,0.1,2v8.4h-0.8V47.3h1.2l4,9.9h0l4-9.9h1.2v11.2h-0.8V50
					c0-0.6,0-1.2,0.1-1.8h-0.1L146,58.5H145.5z"/>
				<path fill="#666666" d="M158.1,58.5V47.3h0.8v11.2H158.1z"/>
				<path fill="#666666" d="M172.1,58.5H166V47.3h6.1V48h-5.4v4.2h5.1V53h-5.1v4.8h5.4V58.5z"/>
				<path fill="#666666" d="M179.4,53.6v4.9h-0.8V47.3h2.7c1.4,0,2.4,0.3,3.1,0.8c0.7,0.5,1,1.3,1,2.3c0,0.8-0.2,1.4-0.6,1.9
					c-0.4,0.5-1,0.9-1.8,1.1l3,5.1h-0.9l-2.9-4.9H179.4z M179.4,52.9h2.1c0.9,0,1.7-0.2,2.2-0.6c0.5-0.4,0.8-1,0.8-1.9
					c0-0.9-0.3-1.5-0.8-1.9c-0.5-0.4-1.3-0.6-2.5-0.6h-1.9V52.9z"/>
				<path fill="#666666" d="M206.1,55.6c0,0.9-0.3,1.7-1,2.2c-0.7,0.5-1.6,0.8-2.7,0.8c-1.4,0-2.4-0.2-3.2-0.5v-0.8
					c0.8,0.3,1.8,0.5,3.1,0.5c0.9,0,1.7-0.2,2.2-0.6c0.5-0.4,0.8-1,0.8-1.7c0-0.4-0.1-0.8-0.3-1.1c-0.2-0.3-0.5-0.5-0.9-0.8
					c-0.4-0.2-1-0.5-1.8-0.7c-1.1-0.4-1.9-0.8-2.4-1.3c-0.4-0.5-0.7-1.1-0.7-1.8c0-0.8,0.3-1.5,1-2.1c0.7-0.5,1.5-0.8,2.5-0.8
					c1.1,0,2,0.2,3,0.6l-0.3,0.7c-0.9-0.4-1.8-0.6-2.7-0.6c-0.8,0-1.5,0.2-2,0.6c-0.5,0.4-0.7,0.9-0.7,1.6c0,0.4,0.1,0.8,0.2,1
					c0.2,0.3,0.4,0.5,0.7,0.7c0.3,0.2,0.9,0.5,1.8,0.8c0.9,0.3,1.5,0.6,2,0.9c0.4,0.3,0.8,0.6,1,1C206,54.7,206.1,55.1,206.1,55.6z"
					/>
				<path fill="#666666" d="M219.2,50.5c0,1.1-0.4,1.9-1.1,2.5c-0.7,0.6-1.8,0.9-3.1,0.9h-1.7v4.6h-0.8V47.3h2.7
					C217.8,47.3,219.2,48.3,219.2,50.5z M213.2,53.2h1.5c1.3,0,2.2-0.2,2.7-0.6c0.6-0.4,0.8-1.1,0.8-2c0-0.9-0.3-1.5-0.8-1.9
					c-0.5-0.4-1.4-0.6-2.5-0.6h-1.9V53.2z"/>
				<path fill="#666666" d="M231.7,58.5h-6.1V47.3h6.1V48h-5.4v4.2h5.1V53h-5.1v4.8h5.4V58.5z"/>
				<path fill="#666666" d="M242.9,47.8c-1.4,0-2.5,0.5-3.3,1.4c-0.8,0.9-1.2,2.1-1.2,3.7c0,1.6,0.4,2.8,1.1,3.7
					c0.8,0.9,1.9,1.3,3.3,1.3c0.9,0,1.8-0.1,2.6-0.4v0.7c-0.7,0.3-1.7,0.4-2.8,0.4c-1.6,0-2.8-0.5-3.7-1.5c-0.9-1-1.4-2.4-1.4-4.3
					c0-1.1,0.2-2.1,0.6-3c0.4-0.9,1.1-1.5,1.9-2c0.8-0.5,1.8-0.7,2.8-0.7c1.1,0,2.1,0.2,2.9,0.6l-0.3,0.7
					C244.7,48,243.8,47.8,242.9,47.8z"/>
				<path fill="#666666" d="M254.8,58.5H254V48h-3.6v-0.7h8.1V48h-3.6V58.5z"/>
				<path fill="#666666" d="M264.8,53.6v4.9H264V47.3h2.7c1.4,0,2.4,0.3,3.1,0.8c0.7,0.5,1,1.3,1,2.3c0,0.8-0.2,1.4-0.6,1.9
					c-0.4,0.5-1,0.9-1.8,1.1l3,5.1h-0.9l-2.9-4.9H264.8z M264.8,52.9h2.1c0.9,0,1.7-0.2,2.2-0.6c0.5-0.4,0.8-1,0.8-1.9
					c0-0.9-0.3-1.5-0.8-1.9c-0.5-0.4-1.3-0.6-2.5-0.6h-1.9V52.9z"/>
				<path fill="#666666" d="M282.7,54.5h-4.6l-1.6,4h-0.9l4.5-11.3h0.5l4.4,11.3h-0.9L282.7,54.5z M278.4,53.8h4l-1.5-4
					c-0.1-0.3-0.3-0.8-0.5-1.3c-0.1,0.5-0.3,0.9-0.5,1.3L278.4,53.8z"/>
				<path fill="#666666" d="M290.7,58.5V47.3h0.8v10.5h5.4v0.7H290.7z"/>
				<path fill="#666666" d="M311.5,53.6v4.9h-0.8V47.3h2.7c1.4,0,2.4,0.3,3.1,0.8c0.7,0.5,1,1.3,1,2.3c0,0.8-0.2,1.4-0.6,1.9
					c-0.4,0.5-1,0.9-1.8,1.1l3,5.1h-0.9l-2.9-4.9H311.5z M311.5,52.9h2.1c0.9,0,1.7-0.2,2.2-0.6c0.5-0.4,0.8-1,0.8-1.9
					c0-0.9-0.3-1.5-0.8-1.9c-0.5-0.4-1.3-0.6-2.5-0.6h-1.9V52.9z"/>
				<path fill="#666666" d="M330.1,58.5H324V47.3h6.1V48h-5.4v4.2h5.1V53h-5.1v4.8h5.4V58.5z"/>
				<path fill="#666666" d="M339.5,58.5h-0.8V48h-3.6v-0.7h8.1V48h-3.6V58.5z"/>
				<path fill="#666666" d="M354.2,54.5h-4.6l-1.6,4h-0.9l4.5-11.3h0.5l4.4,11.3h-0.9L354.2,54.5z M349.9,53.8h4l-1.5-4
					c-0.1-0.3-0.3-0.8-0.5-1.3c-0.1,0.5-0.3,0.9-0.5,1.3L349.9,53.8z"/>
				<path fill="#666666" d="M362.1,58.5V47.3h0.8v11.2H362.1z"/>
				<path fill="#666666" d="M370,58.5V47.3h0.8v10.5h5.4v0.7H370z"/>
				<path fill="#666666" d="M388.2,58.5H382V47.3h6.1V48h-5.4v4.2h5.1V53h-5.1v4.8h5.4V58.5z"/>
				<path fill="#666666" d="M395.4,53.6v4.9h-0.8V47.3h2.7c1.4,0,2.4,0.3,3.1,0.8c0.7,0.5,1,1.3,1,2.3c0,0.8-0.2,1.4-0.6,1.9
					c-0.4,0.5-1,0.9-1.8,1.1l3,5.1h-0.9l-2.9-4.9H395.4z M395.4,52.9h2.1c0.9,0,1.7-0.2,2.2-0.6c0.5-0.4,0.8-1,0.8-1.9
					c0-0.9-0.3-1.5-0.8-1.9c-0.5-0.4-1.3-0.6-2.5-0.6h-1.9V52.9z"/>
			</g>
		</g>
	</g>
</g>
</svg>
