<?xml version="1.0" encoding="utf-8"?>
<!-- Generator: Adobe Illustrator 13.0.0, SVG Export Plug-In . SVG Version: 6.00 Build 14948)  -->
<!DOCTYPE svg PUBLIC "-//W3C//DTD SVG 1.1//EN" "http://www.w3.org/Graphics/SVG/1.1/DTD/svg11.dtd">
<svg version="1.1" id="Layer_1" xmlns="http://www.w3.org/2000/svg" xmlns:xlink="http://www.w3.org/1999/xlink" x="0px" y="0px"
	 width="500px" height="500px" viewBox="0 0 500 500" enable-background="new 0 0 500 500" xml:space="preserve">
<g>
	<g>
		<path fill-rule="evenodd" clip-rule="evenodd" fill="#FFFFFF" d="M232.667,231.363h9.028v-4.588h-9.028v-5.513h11.655v-4.588
			h-16.576v25.9h16.946v-4.588h-12.025V231.363z M253.498,216.674h-4.736v25.9h15.393v-4.588h-10.656V216.674z M262.712,221.262
			h7.325v21.313h4.736v-21.313h7.326v-4.588h-19.388V221.262z M283.432,221.262h7.326v21.313h4.736v-21.313h7.324v-4.588h-19.387
			V221.262z M310.959,237.986v-21.312h-4.736v25.9h15.393v-4.588H310.959z M215.675,224.841c0.002-1.24-1.991-1.232-1.675-2.671
			C210.837,222.456,213.811,227.199,215.675,224.841z M203.639,217.505c5.565,5.208-0.091-4.69,5.59-4.433
			c-4.95-2.166-5.252-7.248-10.452-9.257c0.537,2.146,1.896,3.774,2.013,6.178c-3.062,5.311-6.965,3.458-12.108,2.938
			c2.238,3.434-1.98,1.813-4.843,1.175c-1.939,0.978,6.547,3.283,9.279,4.416c-2.431,7.499-9.219,8.043-14.938,10.291
			c-0.179,1.971,1.3,2.905,3.844,3.171c-0.779,1.227-1.901,1.91-3.756,1.424c-0.724,2.313,3.738,1.376,5.18,2.332
			c-0.506,2.157-3.28,0.702-3.168,3.846c3.619-0.162,6.618-1.314,8.85-3.685c2.723,1.67-3.36,1.354-2.333,5.18
			c-4.688-2.039-6.004,1.297-9.438,1.264l-6.834,9.866c7.209-1.354,11.942-6.66,17.36-10.88c1.264,1.688,0.695,4.522,2.012,6.18
			c3.576-0.305-0.585-3.187-0.091-4.597c1.929,3.102,5.719,1.595,6.18-2.011c2.305,1.653,0.554,5.851,4.183,6.676
			c0.813-2.678-1.829-3.194-2.261-5.092c4.638,5.228,5.151-11.995,12.768-10.79c0.177-4.206,0.125-2.959,0.655-7.851
			C204.71,223.083,202.315,221.11,203.639,217.505z M198.477,230.04c0.612-7.414,6.671-1.069,8.938,0.907
			C205.451,232.265,201.634,230.629,198.477,230.04z M213.003,226.515c-0.654,1.806,1.207,3.237-0.748,3.258
			c2.901,1.29,5.986-3.979,9.934-3.436C220.258,222.396,216.973,228.792,213.003,226.515z"/>
	</g>
</g>
</svg>
