<?xml version="1.0" encoding="utf-8"?>
<!-- Generator: Adobe Illustrator 13.0.0, SVG Export Plug-In . SVG Version: 6.00 Build 14948)  -->
<!DOCTYPE svg PUBLIC "-//W3C//DTD SVG 1.1//EN" "http://www.w3.org/Graphics/SVG/1.1/DTD/svg11.dtd">
<svg version="1.1" id="Layer_1" xmlns="http://www.w3.org/2000/svg" xmlns:xlink="http://www.w3.org/1999/xlink" x="0px" y="0px"
	 width="512px" height="512px" viewBox="0 0 512 512" enable-background="new 0 0 512 512" xml:space="preserve">
<path id="magnifier-icon" fill="#FFFFFF" d="M460.475,408.443L351.4,299.37c15.95-25.137,25.2-54.923,25.2-86.833
	C376.601,122.914,303.687,50,214.062,50c-89.623,0-162.537,72.914-162.537,162.537s72.914,162.537,162.537,162.537
	c30.326,0,58.732-8.355,83.055-22.876L406.919,462L460.475,408.443z M112.117,212.537c0-56.213,45.732-101.946,101.945-101.946
	S316.01,156.324,316.01,212.537s-45.733,101.945-101.947,101.945C157.849,314.482,112.117,268.75,112.117,212.537z"/>
</svg>
