<?xml version="1.0" encoding="utf-8"?>
<!-- Generator: Adobe Illustrator 13.0.0, SVG Export Plug-In . SVG Version: 6.00 Build 14948)  -->
<!DOCTYPE svg PUBLIC "-//W3C//DTD SVG 1.1//EN" "http://www.w3.org/Graphics/SVG/1.1/DTD/svg11.dtd">
<svg version="1.1" id="Layer_1" xmlns="http://www.w3.org/2000/svg" xmlns:xlink="http://www.w3.org/1999/xlink" x="0px" y="0px"
	 width="140px" height="72.691px" viewBox="0 0 140 72.691" enable-background="new 0 0 140 72.691" xml:space="preserve">
<path d="M134.415-0.353H5.184c-2.975,0-5.385,2.411-5.385,5.385v61.923c0,2.975,2.41,5.383,5.385,5.383h129.231
	c2.974,0,5.385-2.408,5.385-5.383V5.031C139.799,2.057,137.387-0.353,134.415-0.353z M64.415,58.34c0,1.783-1.447,3.23-3.231,3.23
	h-4.308c-1.784,0-3.231-1.447-3.231-3.23V21.185H42.876v37.157c0,1.783-1.446,3.229-3.229,3.229h-4.309
	c-1.784,0-3.231-1.445-3.231-3.229V21.185h-10.77v37.157c0,1.783-1.447,3.229-3.23,3.229h-4.308c-1.784,0-3.231-1.445-3.231-3.229
	V13.646c0-1.783,1.447-3.23,3.231-3.23h47.385c1.784,0,3.231,1.447,3.231,3.23V58.34z M129.031,58.34c0,1.783-1.447,3.23-3.23,3.23
	H78.415c-1.784,0-3.229-1.447-3.229-3.23V13.646c0-1.783,1.445-3.23,3.229-3.23h4.308c1.784,0,3.231,1.447,3.231,3.23v37.155h10.771
	V13.646c0-1.783,1.446-3.23,3.23-3.23h4.307c1.783,0,3.229,1.447,3.229,3.23v37.155h10.771V13.646c0-1.783,1.445-3.23,3.229-3.23
	h4.308c1.783,0,3.23,1.447,3.23,3.23V58.34H129.031z"/>
</svg>
