<?php echo '<?xml version="1.0" encoding="utf-8"?>' ?>
<!-- Generator: Adobe Illustrator 13.0.0, SVG Export Plug-In . SVG Version: 6.00 Build 14948)  -->
<!DOCTYPE svg PUBLIC "-//W3C//DTD SVG 1.1//EN" "http://www.w3.org/Graphics/SVG/1.1/DTD/svg11.dtd">
<svg version="1.1" id="Layer_1" xmlns="http://www.w3.org/2000/svg" xmlns:xlink="http://www.w3.org/1999/xlink" x="0px" y="0px"
	 width="200px" height="66.129px" viewBox="0 0 200 66.129" enable-background="new 0 0 200 66.129" xml:space="preserve">
<g>
	<g>
		<path fill="#FFFFFF" d="M54.592,41.18c-2.108,5.188-6.377,9.996-12.815,14.438c-6.435,4.445-12.529,6.666-18.282,6.666
			c-9.228,0-13.841-5.066-13.841-15.205c0-6.551,1.694-13,5.084-19.352c3.387-6.35,7.846-11.518,13.37-15.507
			c5.523-3.987,11.192-5.979,17-5.979c4.388,0,6.58,1.652,6.58,4.954c0,2.165-0.94,4.016-2.819,5.554s-3.929,2.307-6.151,2.307
			c-0.8,0-1.511-0.114-2.135-0.344c-0.684,0.972-1.025,1.881-1.025,2.736c0,0.854,0.398,1.552,1.193,2.091
			c0.8,0.543,1.825,0.811,3.076,0.811c2.678,0,5.255-0.796,7.734-2.391c2.476-1.595,4.17-3.558,5.081-5.894
			c0.455-1.251,0.684-2.392,0.684-3.417c0-2.792-1.396-5.083-4.186-6.878c-2.792-1.794-6.808-2.693-12.045-2.693
			c-5.241,0-10.554,1.427-15.937,4.273c-5.383,2.85-9.866,6.48-13.455,10.895c-3.588,4.415-6.437,9.197-8.545,14.354
			C1.052,37.748,0,42.686,0,47.414c0,12.479,6.691,18.715,20.076,18.715c5.753,0,11.392-1.133,16.919-3.379
			c5.523-2.25,10.106-5.266,13.752-9.053c3.646-3.785,5.469-6.963,5.469-9.525C56.217,42.916,55.675,41.922,54.592,41.18z
			 M136.611,22.554c0.453-1.025,1.207-2.02,2.263-2.989c1.056-0.967,2.147-1.453,3.292-1.453h0.338
			c1.086-0.681,1.622-1.465,1.622-2.349c0-0.884-0.313-1.611-0.935-2.181c-0.627-0.566-1.568-0.854-2.822-0.854
			c-1.256,0-2.563,0.757-3.932,2.266c-1.362,1.51-2.052,3.002-2.052,4.483C134.389,20.962,135.128,21.987,136.611,22.554z
			 M199.494,41.348c-0.178,0-0.374,0.207-0.604,0.604c-2.279,4.323-4.313,7.647-6.109,9.948c-1.79,2.312-3.955,4.394-6.487,6.235
			c-2.539,1.853-5.001,2.781-7.394,2.781c-4.047,0-6.067-2.396-6.067-7.181c0-2.221,0.542-4.784,1.628-7.686
			c1.133,0.625,2.902,0.938,5.296,0.938c4.101,0,7.657-0.972,10.681-2.906c3.017-1.938,4.527-4.5,4.527-7.688
			c0-1.881-0.771-3.486-2.311-4.828c-1.537-1.339-3.588-2.008-6.149-2.008c-5.692,0-10.681,2.479-14.948,7.433
			c-2.013,2.335-3.533,4.768-4.6,7.29c-0.669,1.108-1.426,2.364-2.283,3.774c-1.049,1.738-2.021,3.161-2.9,4.27
			c-0.887,1.111-1.996,2.168-3.336,3.162c-1.336,0.992-2.375,1.525-3.117,1.58c-1.139,0-1.704-0.826-1.704-2.479
			c0-1.646,0.469-3.801,1.409-6.446c0.936-2.647,1.791-4.758,2.563-6.326c0.767-1.563,1.937-3.883,3.504-6.959
			c1.563-3.075,2.773-4.926,3.632-5.555h-0.856l-4.36-0.084c-2.049,0-4.07,1.423-6.061,4.271c-0.229,0.057-0.572,0.083-1.03,0.083
			c-1.593,0-2.942-0.438-4.056-1.324c-1.113-0.879-1.67-2.092-1.67-3.63c0-0.682,0.063-1.197,0.177-1.538
			c-0.802-0.796-1.828-1.197-3.076-1.197c-1.255,0-2.235,0.458-2.948,1.368c-0.712,0.912-1.066,1.937-1.066,3.077
			c0,2.28,1.023,3.929,3.074,4.957c-0.06,0.168-0.5,1.024-1.326,2.563c-0.824,1.539-1.592,3.147-2.303,4.823
			c-0.063,0.151-0.111,0.283-0.17,0.429c-0.107,0.172-0.22,0.353-0.344,0.556c-0.771,1.254-1.682,2.733-2.738,4.444
			c-1.05,1.707-2.009,3.119-2.859,4.228c-0.854,1.11-1.952,2.168-3.291,3.162c-1.338,0.991-2.375,1.493-3.117,1.493
			c-1.08,0-1.623-0.825-1.623-2.479c0-1.651,0.473-3.787,1.412-6.403c0.939-2.621,1.777-4.703,2.521-6.24
			c0.735-1.532,1.862-3.813,3.379-6.834c1.502-3.018,2.713-4.868,3.625-5.549h-0.853l-4.274-0.087c-2.449,0-4.668,1.71-6.664,5.126
			c-2.086,3.691-3.685,7.231-4.849,10.639c-4.444,7.881-8.155,11.83-11.128,11.83c-1.023,0-1.538-0.74-1.538-2.219
			c0-2.848,1.369-7.396,4.103-13.629c2.736-6.234,5.043-10.125,6.922-11.662h-0.855l-4.27-0.087c-1.139,0-2.363,0.486-3.674,1.453
			c-1.313,0.968-2.279,2.108-2.906,3.417c-0.512-1.822-1.565-3.146-3.159-3.973c-1.599-0.826-3.304-1.239-5.126-1.239
			c-3.874,0-7.436,1.439-10.68,4.315c-3.248,2.876-5.738,6.362-7.475,10.462c-0.044,0.104-0.082,0.208-0.125,0.313
			c-0.706,1.146-1.516,2.461-2.438,3.963c-1.056,1.707-1.982,3.088-2.777,4.145c-0.8,1.055-2.066,2.289-3.803,3.715
			c-1.737,1.424-3.232,2.135-4.484,2.135c-1.254,0-1.881-0.854-1.881-2.563c-0.057-1.195,0.229-3.217,0.856-6.068
			c0.624-2.844,1.282-5.264,1.962-7.26l1.369-3.928c3.359-3.188,7.146-7.42,11.361-12.69c4.215-5.268,7.349-9.981,9.399-14.14
			c1.309-2.391,1.966-4.728,1.966-7.004c0-2.96-1.625-4.444-4.87-4.444c-3.248,0-6.27,1.651-9.059,4.957
			c-1.423,1.653-2.718,3.274-3.886,4.869c-1.169,1.596-2.379,3.73-3.63,6.408c-1.254,2.677-2.252,4.827-2.992,6.45
			c-0.742,1.622-1.621,3.887-2.647,6.793c-1.025,2.905-1.682,4.812-1.965,5.719c-3.818,10.656-5.724,18.117-5.724,22.386
			c0,4.33,1.593,6.494,4.783,6.494c4.159,0,8.202-2.164,12.135-6.494c1.162-1.302,2.543-3.174,4.136-5.603
			c-0.19,1.334-0.295,2.66-0.295,3.979c0,5.237,1.909,7.854,5.726,7.854c5.525,0,11.535-5.746,18.028-17.252
			c-1.195,3.414-1.796,6.894-1.796,10.42c0,4.729,1.538,7.093,4.613,7.093c3.905,0,8.59-4.033,14.051-12.076
			c-0.308,1.854-0.465,3.657-0.465,5.414c0,4.442,1.594,6.662,4.783,6.662c1.821,0,3.848-0.88,6.066-2.646
			c2.22-1.768,4.199-3.829,5.935-6.194c1.483-2.015,3.108-4.483,4.863-7.354c0.618-0.729,2.745-4.663,6.372-11.829
			c0.688,0.285,1.34,0.431,1.967,0.431c1.996,0,3.984-0.795,5.982-2.396c-2.449,3.815-4.301,7.772-5.557,11.879
			c-1.255,4.095-1.883,7.771-1.883,11.019c0,4.783,1.624,7.179,4.874,7.179c1.819,0,3.858-0.897,6.106-2.688
			c2.25-1.8,4.175-3.777,5.767-5.938c0.821-1.118,1.761-2.488,2.813-4.104c-0.043,0.567-0.08,1.137-0.08,1.715
			c0,3.812,1.117,6.646,3.336,8.496c2.22,1.853,5.138,2.78,8.756,2.78c3.619,0,7.22-1.313,10.809-3.932
			c1.422-1.08,2.876-2.535,4.357-4.361c1.479-1.819,2.66-3.411,3.548-4.78c0.88-1.369,1.78-2.822,2.69-4.354
			c0.91-1.539,1.36-2.865,1.36-3.974C200,41.91,199.831,41.348,199.494,41.348z M180.611,36.223c2.729-2.73,5.211-4.098,7.431-4.098
			c1.59,0,2.396,0.826,2.396,2.475c-0.23,2.455-1.526,4.729-3.892,6.838c-2.364,2.105-4.627,3.16-6.79,3.16
			c-2.166,0-3.244-0.563-3.244-1.711C176.512,41.18,177.872,38.959,180.611,36.223z M86.633,2.137h0.597
			c0.738,0,1.11,0.555,1.11,1.666c0,1.109-0.799,3.46-2.391,7.05c-2.85,5.864-8.175,13.385-15.978,22.554
			C77.602,12.558,83.156,2.137,86.633,2.137z M97.907,47.414c-1.595,2.51-3.389,4.688-5.382,6.539
			c-1.993,1.852-3.73,2.779-5.211,2.779c-1.369,0-2.051-0.887-2.051-2.652c0-4.102,1.765-8.756,5.298-13.967
			c3.531-5.211,7.177-7.817,10.935-7.817c2.104,0,3.443,0.91,4.016,2.731C103.975,37.707,101.441,41.836,97.907,47.414z"/>
	</g>
</g>
</svg>
