<?xml version="1.0" encoding="utf-8"?>
<!-- Generator: Adobe Illustrator 13.0.0, SVG Export Plug-In . SVG Version: 6.00 Build 14948)  -->
<!DOCTYPE svg PUBLIC "-//W3C//DTD SVG 1.1//EN" "http://www.w3.org/Graphics/SVG/1.1/DTD/svg11.dtd">
<svg version="1.1" id="Layer_1" xmlns="http://www.w3.org/2000/svg" xmlns:xlink="http://www.w3.org/1999/xlink" x="0px" y="0px"
	 width="400px" height="400px" viewBox="0 0 400 400" enable-background="new 0 0 400 400" xml:space="preserve">
<g>
	<path fill="#FFFFFF" d="M185.987,143.328c-0.553,3.944,0.751,6.036,3.394,6.782c-7.765,7.186-12.021-1.511-23.761,3.395
		C164.392,142.086,180.336,147.852,185.987,143.328"/>
	<path fill="#FFFFFF" d="M270.844,268.912c5.814-0.707,8.788,5.789,10.188,0c7.36-0.57,1.534,12.035,3.396,16.98
		C275.409,284.715,272.968,276.974,270.844,268.912"/>
	<path fill="#FFFFFF" d="M240.296,296.066c0.878-7.945,14.922-1.961,16.972,0C256.392,304.019,242.355,298.023,240.296,296.066"/>
	<path fill="#FFFFFF" d="M138.467,289.273c-0.876,9.947,7.678,10.434,6.792,20.371c30,1.383,44.061,3.967,71.276,10.184
		c10.709-16.447,46.521-7.795,54.31-27.158c3.938,2.859,9.102,4.484,16.979,3.396c-3.591-31.867,13.882-42.683,27.148-57.695
		c-10.036-30.695-23.996-57.473-47.521-74.678c-17.412-24.694,12.561,20.366,10.185,20.366
		c-23.389-5.284-20.836,15.366-37.343,16.97c-9.538-6.298-25.42-6.25-27.15-20.369c8.522,3.93,11.368,13.524,23.762,13.58
		c-12.222-17.401,1.384-9.768,13.566-16.974c-19.566-3.833-0.707-3.899,0-13.574c-15.48-9.402-30.632-19.148-37.328-37.34
		c11.021-4.935,38.489-11.16,47.522-6.789c-11.477,3.284-27.612,40.789-3.4,30.548c-25.306-7.189,10.049-20.678,6.792-37.334
		c-18.324,4.167-30.688,4.29-40.729-6.788c-11.196,5.77-16.965,0.192-23.764-6.789c-3.452-14.775,7.024-15.609,10.182-23.76
		c-23.266,2.929-30.415,15.348-44.128,20.364c17.053,4.925,2.693,16.063,13.581,27.151c-3.403-0.011-4.042,2.753-6.785,3.396
		c-18.301-7.704-38.11-6.758-30.553,6.792c-8.292-1.894-7.231-13.142-20.367-10.188c10.489,24.589,46.621,23.53,47.524,57.703
		H152.04c0.579,23.205-10.534,34.712-10.181,57.708c5.718,5.584,15.252,7.369,20.368,13.574
		c-22.688,12.387-32.239,37.91-40.735,64.488c12.15-1.429,9.559-17.604,10.188-30.539c21.424-12.521,30.313-37.582,57.696-44.138
		c-48.904,15.929-46.576-33.18-30.543-54.305c-0.506,8.416-0.634,16.469,6.783,16.969c2.059-7-5.476-23.581,6.796-20.361v20.361
		c11.082,0.896,7.19-13.17,16.964-13.576c2.851,7.338,8.797,11.583,6.789,23.764c13.295,1.981,8.667-13.963,16.976-16.976
		c15.729,14.038,18.376,30.006,16.97,50.913c0.626-9.194-10.154,6.599-10.179,6.793c-2.475,15.656,11.168,29.486,13.565,47.519
		c-15.063,20.146-43.944,10.34-61.085,0c-4.375,4.672-14.745,3.354-23.767,3.397c-1.763-5.03-5.021-8.555-6.787-13.586
		c8.747-4.817,19.208-7.955,20.368-20.356c-4.482-0.039-3.104-5.957-6.792-6.789C156.896,280.554,149.781,287.013,138.467,289.273"
		/>
	<path fill="#FFFFFF" d="M155.439,265.521c3.688,0.832,2.31,6.752,6.792,6.791c-1.159,12.401-11.621,15.539-20.366,20.356
		c1.764,5.031,5.023,8.556,6.785,13.586c9.021-0.043,19.391,1.271,23.767-3.397c17.142,10.338,46.021,20.145,61.085,0
		c-2.397-18.031-16.04-31.861-13.565-47.521c0.022-0.194,10.805-15.987,10.179-6.793c1.406-20.903-1.238-36.875-16.97-50.912
		c-8.309,3.012-3.681,18.957-16.976,16.975c2.007-12.181-3.938-16.425-6.789-23.763c-9.772,0.404-5.883,14.474-16.964,13.577
		v-20.362c-12.271-3.219-4.736,13.361-6.796,20.362c-7.417-0.502-7.289-8.554-6.783-16.97
		c-16.032,21.126-18.361,70.232,30.543,54.304c-27.385,6.558-36.272,31.617-57.696,44.14c-0.628,12.934,1.964,29.11-10.188,30.539
		c8.496-26.58,18.047-52.104,40.735-64.49c-5.115-6.203-14.649-7.988-20.366-13.572c-0.36-22.996,10.758-34.506,10.179-57.709
		h16.978c-0.903-34.173-37.035-33.114-47.524-57.703c13.136-2.953,12.075,8.294,20.369,10.188
		c-7.561-13.55,12.25-14.496,30.551-6.792c2.742-0.644,3.382-3.406,6.785-3.396c-10.888-11.087,3.472-22.228-13.581-27.151
		c13.713-5.018,20.862-17.437,44.128-20.364c-3.155,8.149-13.633,8.983-10.182,23.76c6.799,6.98,12.565,12.56,23.764,6.789
		c10.042,11.084,22.403,10.955,40.729,6.788c3.257,16.656-32.098,30.146-6.792,37.334c-24.212,10.241-8.074-27.264,3.4-30.548
		c-9.033-4.371-36.501,1.854-47.522,6.789c6.696,18.19,21.848,27.938,37.328,37.34c-0.707,9.675-19.566,9.741,0,13.574
		c-12.185,7.206-25.788-0.429-13.566,16.974c-12.394-0.056-15.237-9.648-23.762-13.58c1.73,14.118,17.612,14.07,27.15,20.37
		c16.508-1.603,13.954-22.254,37.343-16.971c2.376,0-27.597-45.062-10.185-20.366c23.523,17.205,37.483,43.984,47.521,74.677
		c-13.269,15.017-30.739,25.83-27.148,57.697c-7.88,1.088-13.042-0.537-16.979-3.396c-7.789,19.361-43.601,10.709-54.31,27.156
		c-27.217-6.215-41.276-8.801-71.274-10.182c0.884-9.939-7.67-10.424-6.792-20.371C149.781,287.013,156.896,280.554,155.439,265.521
		 M165.62,153.505c11.738-4.904,15.996,3.791,23.761-3.395c-2.643-0.746-3.938-2.838-3.394-6.782
		C180.336,147.852,164.392,142.086,165.62,153.505 M308.18,231.582c-7.919,1.033-14.613,7.238-16.977-3.408
		c23.166-11.813,1.875-35.856-13.567-40.722c1.583,0.5-2.172,6.65-3.393,6.788c3.646-0.422-15.62-9.111-13.579-3.395
		c-3.888,10.674,5.328,8.246,6.787,13.576c-8.496-0.43-10.626-6.478-13.579,3.396c16.306-1.494,15.239,16.43,23.764,13.567
		c-0.813,4.851-5.593,5.734-6.794,10.193C282.035,235.429,304.372,248.334,308.18,231.582 M233.502,238.369
		c0.391-6.424,11.229-2.354,10.19-10.195c-6.321,3.255-11.346-10.151-13.579,0c2.649,0.757,3.942,2.853,3.389,6.796
		C231.621,234.961,229.649,237.72,233.502,238.369 M294.609,245.152c-2.315,10.617-10.339,5.713-13.577,0
		c1.337,5.838-5.037,8.697,0,10.188C280.369,253.515,307.51,256.363,294.609,245.152 M284.428,285.892
		c-1.862-4.945,3.964-17.554-3.396-16.98c-1.398,5.789-4.372-0.707-10.188,0C272.968,276.974,275.409,284.715,284.428,285.892
		 M257.265,296.066c-2.05-1.961-16.094-7.945-16.972,0C242.355,298.023,256.392,304.019,257.265,296.066"/>
	<path fill="#FFFFFF" d="M270.844,231.582c1.2-4.459,5.98-5.346,6.793-10.192c-8.522,2.858-7.458-15.064-23.764-13.568
		c2.953-9.875,5.084-3.828,13.579-3.398c-1.459-5.327-10.675-2.899-6.786-13.575c-2.041-5.718,17.225,2.973,13.578,3.395
		c1.221-0.138,4.976-6.288,3.393-6.788c15.442,4.865,36.733,28.915,13.567,40.724c2.361,10.646,9.058,4.44,16.977,3.405
		C304.372,248.334,282.035,235.429,270.844,231.582"/>
	<path fill="#FFFFFF" d="M233.502,234.969c0.556-3.943-0.737-6.039-3.389-6.796c2.233-10.151,7.258,3.255,13.579,0
		c1.038,7.841-9.802,3.775-10.19,10.195C229.649,237.72,231.621,234.961,233.502,234.969"/>
	<path fill="#FFFFFF" d="M281.032,255.34c-5.037-1.487,1.337-4.35,0-10.188c3.238,5.713,11.262,10.617,13.577,0
		C307.51,256.363,280.369,253.515,281.032,255.34"/>
	<path fill="#FFFFFF" d="M133.289,101.321c10.595,3.458-3.297,17.345-7.816,7.82C126.435,104.898,133.244,106.49,133.289,101.321"/>
	<path fill="#FFFFFF" d="M258.398,238.158c-23.593-10.279-35.616-32.145-50.829-50.826c-5.646,4.783-5.93,14.923-11.731,19.557
		c-11.986-3.849,4.504-10.438,3.919-15.649c-9.03,9.093-20.808,0.969-19.556-11.727c-9.178,3.845-6.485,19.572-19.543,19.549
		c-0.677-9.795,8.76-9.489,11.732-15.64c-19.969,14.238-8.205-45.061-35.196-46.919c2.695-14.521,1.892-10.219,3.92-27.361
		c23.23,2.592,32.97-2.275,31.276-15.646c-23.124,13.444,3.988-15.969-15.643-19.546c18.627-3.521,23.649-20.665,43.008-23.456
		c-3.519,6.915-9.445,11.417-11.731,19.545c6.306,20.563,21.104,17.291,39.102,19.551c-10.349,9.989,5.349,7.758,15.643,7.818
		c5.863,4.866-24.967,6.091-35.197,7.818c2.429,27.552,25.215,34.737,43.008,46.915c-0.936,6.881-6.725,8.913-15.636,7.823
		c1.704,4.809,5.002,8.026,11.727,7.818c0.661,8.477-13.859,1.773-19.542,3.908c0.04,7.771,10.665,4.973,7.815,15.639
		c-12.25-3.393-21.602-9.688-27.372-19.546c-10.625,3.576,10.426,7.269,3.914,19.546c17.633-3.292,19.516,9.146,31.283,11.729
		 M148.925,136.503c5.686,6.047,20.017,3.447,31.275,3.911C183.926,114.581,158.227,131.525,148.925,136.503"/>
	<path fill="#FFFFFF" d="M102.014,109.141c9.696-11.959,15.916,12.488,31.272,7.816c0.823,6.689-6.667,10.125,0,11.729
		C122.355,130.822,115.941,110.38,102.014,109.141"/>
	<path fill="#FFFFFF" d="M141.113,171.694c3.144,2.071,6.34,4.079,11.721,3.913v19.545c-8.541-0.575-8.389-9.848-7.813-19.545
		c-2.207,6.979-14.368,39.395-7.827,19.545C136.684,185.517,136.611,176.313,141.113,171.694"/>
	<polygon fill="#FFFFFF" points="184.679,0.484 211.793,0.038 211.868,5.106 201.219,5.277 201.683,33.706 195.823,33.804 
		195.361,5.375 184.76,5.543 	"/>
	<path fill="#FFFFFF" d="M225.577,1.895l6.17,0.9l7.946,35.008l-6.224-0.91l-1.835-9.228l-13.227-1.926l-4.394,8.323l-5.991-0.872
		L225.577,1.895z M220.624,21.559l10.121,1.477l-2.892-14.979l-0.144-0.018L220.624,21.559z"/>
	<path fill="#FFFFFF" d="M254.116,7.332l15.356,5.432c2.821,1.004,4.854,2.452,6.114,4.357c1.257,1.903,1.409,4.165,0.476,6.792
		c-0.553,1.59-1.437,2.813-2.613,3.674c-1.188,0.856-2.604,1.348-4.271,1.449l-0.023,0.092c1.795,1.101,2.94,2.54,3.445,4.326
		c0.491,1.789,0.361,3.759-0.401,5.908c-0.436,1.234-1.069,2.315-1.889,3.234c-0.829,0.918-1.854,1.604-3.064,2.052
		c-1.223,0.45-2.647,0.643-4.287,0.576c-1.646-0.063-3.472-0.459-5.499-1.186l-14.398-5.128L254.116,7.332z M250.071,36.354
		l9.771,3.457c1.682,0.597,3.133,0.628,4.381,0.088c1.225-0.543,2.13-1.608,2.695-3.203c0.547-1.559,0.512-2.924-0.118-4.096
		c-0.628-1.166-1.789-2.052-3.464-2.648l-9.78-3.457L250.071,36.354z M254.963,22.513l9.032,3.19
		c1.329,0.469,2.562,0.485,3.72,0.045c1.145-0.438,1.969-1.366,2.466-2.779c0.565-1.595,0.565-2.854,0-3.784
		c-0.565-0.932-1.605-1.661-3.105-2.19l-9.021-3.199L254.963,22.513z"/>
	<polygon fill="#FFFFFF" points="290.516,21.792 295.604,24.714 281.433,49.362 296.188,57.851 293.668,62.244 273.816,50.831 	"/>
	<polygon fill="#FFFFFF" points="318.308,38.901 336.882,54.276 333.65,58.185 319.581,46.541 313.991,53.3 327.01,64.074 
		323.951,67.756 310.942,56.99 304.68,64.541 319.008,76.388 315.768,80.292 296.94,64.705 	"/>
	<polygon fill="#FFFFFF" points="353.219,71.545 369.182,93.466 365.086,96.448 358.821,87.838 335.84,104.574 332.382,99.837 
		355.363,83.098 349.123,74.528 	"/>
	<polygon fill="#FFFFFF" points="374.117,102.04 384.735,123.69 380.183,125.924 372.136,109.539 364.26,113.4 371.712,128.565 
		367.406,130.671 359.976,115.505 351.166,119.82 359.344,136.503 354.802,138.735 344.04,116.786 	"/>
	<polygon fill="#FFFFFF" points="388.927,134.658 390.548,140.645 370.7,161.837 370.72,161.927 394.552,155.499 396.005,160.886 
		363.663,169.619 362.052,163.636 381.863,142.5 381.827,142.363 358.049,148.781 356.594,143.388 	"/>
	<polygon fill="#FFFFFF" points="398.187,174.336 398.555,180.514 374.824,197.249 374.839,197.339 399.469,195.875 
		399.801,201.449 366.346,203.441 365.994,197.256 389.678,180.578 389.665,180.432 365.086,181.893 364.75,176.325 	"/>
	<polygon fill="#FFFFFF" points="398.949,213.088 398.47,218.927 365.092,216.263 365.552,210.416 	"/>
	<path fill="#FFFFFF" d="M374.715,229.652c-1.263-0.271-2.367-0.279-3.35-0.055c-0.981,0.237-1.843,0.684-2.568,1.323
		c-0.728,0.64-1.334,1.438-1.806,2.384c-0.479,0.93-0.821,1.975-1.084,3.145c-0.271,1.25-0.354,2.35-0.25,3.307
		c0.1,0.949,0.325,1.732,0.663,2.388c0.339,0.649,0.782,1.162,1.336,1.551c0.539,0.356,1.106,0.606,1.725,0.744
		c1.257,0.264,2.247,0.18,2.967-0.254c0.706-0.438,1.259-0.963,1.646-1.586c0.687-1.064,1.369-2.341,2.089-3.8
		c0.72-1.461,1.611-3.266,2.714-5.396c0.684-1.326,1.407-2.387,2.206-3.197c0.796-0.801,1.618-1.396,2.464-1.799
		c0.854-0.393,1.723-0.611,2.597-0.666c0.873-0.047,1.74,0.008,2.598,0.193c1.647,0.36,3.002,1.014,4.062,1.959
		c1.07,0.946,1.875,2.071,2.429,3.377c0.545,1.299,0.857,2.715,0.938,4.229c0.076,1.521-0.047,3.008-0.357,4.478
		c-0.381,1.717-0.942,3.27-1.71,4.692c-0.771,1.42-1.722,2.607-2.852,3.558c-1.134,0.961-2.42,1.643-3.863,2.035
		c-1.439,0.395-3.018,0.405-4.737,0.03l1.236-5.731c2.143,0.313,3.784-0.092,4.93-1.188c1.157-1.102,1.938-2.635,2.361-4.635
		c0.144-0.664,0.221-1.371,0.239-2.1c0.016-0.734-0.073-1.433-0.282-2.076c-0.19-0.652-0.519-1.23-0.995-1.724
		c-0.471-0.502-1.108-0.84-1.938-1.026c-1.163-0.248-2.148-0.082-2.961,0.504c-0.813,0.57-1.514,1.414-2.104,2.498
		c-0.057,0.108-0.282,0.569-0.697,1.356c-0.399,0.793-0.859,1.688-1.354,2.662c-0.508,0.98-0.988,1.938-1.462,2.881
		c-0.469,0.933-0.813,1.604-1.027,2.002c-0.566,1.011-1.232,1.841-1.98,2.509c-0.752,0.672-1.557,1.194-2.42,1.565
		c-0.859,0.377-1.751,0.605-2.67,0.683c-0.899,0.065-1.791,0.024-2.645-0.156c-1.847-0.408-3.324-1.119-4.469-2.146
		c-1.141-1.016-1.993-2.231-2.544-3.633c-0.563-1.408-0.879-2.932-0.922-4.565c-0.049-1.636,0.105-3.281,0.456-4.896
		c0.389-1.867,1.003-3.576,1.82-5.133c0.802-1.545,1.812-2.838,3.027-3.853c1.198-1.018,2.64-1.737,4.271-2.151
		c1.646-0.42,3.479-0.43,5.507-0.027L374.715,229.652z"/>
	<polygon fill="#FFFFFF" points="382.735,280.365 380.121,285.607 354.699,272.877 347.068,288.105 342.54,285.832 352.79,265.355 	
		"/>
	<polygon fill="#FFFFFF" points="367.206,309.156 352.901,328.572 348.842,325.576 359.658,310.875 352.591,305.672 
		342.575,319.277 338.719,316.431 348.736,302.834 340.838,297.027 329.826,311.988 325.736,308.988 340.236,289.302 	"/>
	<path fill="#FFFFFF" d="M338.541,343.437l-4.564,4.262l-32.33-15.607l4.586-4.305l8.362,4.32l9.761-9.152l-3.781-8.613l4.412-4.129
		L338.541,343.437z M326.234,327.304l-7.456,7l13.519,7.063l0.098-0.096L326.234,327.304z"/>
	<path fill="#FFFFFF" d="M274.057,349.302l3.204-1.966l2.813,2.882c0.403-2.335,1.088-4.214,2.056-5.619
		c0.971-1.396,2.313-2.646,4.042-3.715c2.137-1.313,4.287-2.099,6.468-2.351c2.165-0.27,4.259-0.078,6.268,0.566
		c2.008,0.625,3.895,1.662,5.632,3.078c1.741,1.43,3.243,3.168,4.512,5.207c1.249,2.03,2.114,4.135,2.604,6.334
		c0.492,2.196,0.582,4.336,0.237,6.424c-0.326,2.078-1.103,4.031-2.299,5.871c-1.195,1.848-2.855,3.422-4.985,4.729
		c-1.543,0.955-3.149,1.658-4.792,2.107c-1.655,0.444-3.274,0.61-4.872,0.467c-1.589-0.139-3.133-0.594-4.604-1.373
		c-1.471-0.783-2.8-1.914-3.968-3.395l4.872-3.009c0.706,0.851,1.507,1.494,2.38,1.925c0.869,0.436,1.79,0.684,2.753,0.756
		c0.961,0.071,1.924-0.031,2.897-0.304c0.976-0.271,1.907-0.678,2.823-1.233c1.513-0.945,2.635-2.06,3.364-3.353
		c0.729-1.299,1.121-2.664,1.171-4.116c0.066-1.453-0.139-2.937-0.615-4.447c-0.471-1.498-1.12-2.935-1.956-4.299
		c-0.852-1.355-1.828-2.586-2.968-3.679c-1.145-1.112-2.366-1.95-3.688-2.549c-1.328-0.598-2.742-0.865-4.222-0.795
		c-1.481,0.064-2.981,0.578-4.496,1.4c-1.293,0.762-2.318,1.614-3.084,2.588c-0.762,0.965-1.273,2-1.53,3.092
		c-0.27,1.109-0.26,2.24,0,3.443c0.257,1.209,0.748,2.403,1.453,3.621l7.59-4.681l2.339,3.793l-12.134,7.494L274.057,349.302z"/>
	<path fill="#FFFFFF" d="M279.704,383.402l-5.524,1.975l-6.552-18.387c-0.375-1.063-0.816-2.119-1.311-3.176
		c-0.498-1.055-1.127-1.92-1.921-2.613c-0.806-0.699-1.792-1.156-2.983-1.361c-1.182-0.217-2.676,0.013-4.474,0.654
		c-1.798,0.629-3.091,1.41-3.883,2.324c-0.78,0.912-1.264,1.893-1.438,2.926c-0.176,1.045-0.127,2.119,0.164,3.26
		c0.274,1.119,0.618,2.214,0.995,3.277l6.553,18.379l-5.524,1.979l-7.203-20.193c-0.729-2.031-1.042-3.914-0.961-5.641
		c0.091-1.72,0.521-3.287,1.285-4.711c0.774-1.421,1.862-2.671,3.277-3.732c1.414-1.066,3.089-1.953,5.028-2.643
		c1.951-0.693,3.802-1.074,5.579-1.144c1.762-0.065,3.409,0.197,4.896,0.818c1.493,0.619,2.814,1.553,3.974,2.84
		c1.154,1.285,2.094,2.945,2.813,4.979L279.704,383.402z"/>
	<polygon fill="#FFFFFF" points="240.837,395.646 216.992,399.257 216.231,394.238 234.27,391.51 232.965,382.84 216.266,385.363 
		215.541,380.635 232.252,378.105 230.794,368.406 212.418,371.187 211.663,366.179 235.827,362.517 	"/>
	<polygon fill="#FFFFFF" points="193.561,381.392 179.942,380.429 180.302,375.383 193.921,376.344 	"/>
	<polygon fill="#FFFFFF" points="152.53,394.287 129.457,387.312 130.917,382.453 148.389,387.74 150.928,379.342 134.761,374.461 
		136.148,369.869 152.314,374.763 155.151,365.379 137.369,359.996 138.839,355.15 162.231,362.222 	"/>
	<path fill="#FFFFFF" d="M110.603,378.664l-5.537-2.871l3.979-35.678l5.578,2.898l-1.294,9.315l11.87,6.146l6.873-6.41l5.371,2.791
		L110.603,378.664z M121.731,361.709l-9.08-4.707l-2.178,15.093l0.127,0.063L121.731,361.709z"/>
	<path fill="#FFFFFF" d="M96.541,344.381c0.797-1.008,1.3-2.004,1.515-2.987c0.215-0.984,0.189-1.947-0.063-2.89
		c-0.262-0.934-0.708-1.815-1.347-2.659c-0.637-0.839-1.421-1.617-2.357-2.354c-1.006-0.791-1.96-1.346-2.854-1.664
		c-0.899-0.33-1.719-0.486-2.448-0.467c-0.729,0.016-1.382,0.199-1.96,0.521c-0.571,0.328-1.049,0.742-1.44,1.23
		c-0.787,1.006-1.141,1.938-1.064,2.764c0.079,0.847,0.313,1.57,0.703,2.193c0.671,1.076,1.498,2.256,2.501,3.539
		c1,1.289,2.219,2.891,3.654,4.803c0.907,1.191,1.541,2.312,1.915,3.379c0.379,1.07,0.55,2.076,0.531,3.012
		c-0.018,0.937-0.197,1.808-0.531,2.623c-0.336,0.806-0.776,1.558-1.315,2.236c-1.043,1.328-2.215,2.264-3.54,2.814
		c-1.311,0.541-2.674,0.764-4.085,0.684c-1.416-0.063-2.82-0.402-4.218-0.998c-1.397-0.6-2.688-1.369-3.868-2.285
		c-1.376-1.074-2.541-2.276-3.481-3.584c-0.938-1.317-1.59-2.699-1.953-4.127c-0.364-1.438-0.402-2.889-0.129-4.365
		c0.277-1.477,0.959-2.901,2.039-4.274l4.616,3.612c-1.208,1.806-1.568,3.449-1.085,4.964c0.484,1.399,1.53,2.889,3.126,4.143
		c0.542,0.437,1.139,0.814,1.794,1.137c0.647,0.34,1.312,0.56,1.987,0.668c0.667,0.109,1.332,0.063,1.982-0.137
		c0.656-0.201,1.244-0.643,1.766-1.303c0.731-0.943,1.014-1.898,0.854-2.879c-0.161-0.986-0.607-1.98-1.333-2.978
		c-0.074-0.104-0.384-0.52-0.911-1.225c-0.535-0.723-1.135-1.514-1.796-2.392c-0.666-0.891-1.312-1.739-1.951-2.571
		c-0.637-0.83-1.087-1.433-1.353-1.81c-0.65-0.942-1.112-1.903-1.384-2.875c-0.276-0.969-0.396-1.922-0.354-2.864
		c0.043-0.939,0.233-1.839,0.563-2.687c0.326-0.854,0.763-1.619,1.3-2.32c1.163-1.473,2.448-2.504,3.873-3.067
		c1.429-0.578,2.893-0.818,4.395-0.707c1.504,0.108,3.006,0.504,4.507,1.178c1.495,0.668,2.896,1.521,4.198,2.543
		c1.502,1.174,2.776,2.471,3.813,3.883c1.04,1.41,1.755,2.884,2.145,4.414c0.381,1.533,0.405,3.138,0.058,4.791
		c-0.337,1.658-1.136,3.313-2.387,4.963L96.541,344.381z"/>
	<polygon fill="#FFFFFF" points="60.145,343.344 42.031,323.177 45.801,319.793 52.918,327.722 74.071,308.719 77.989,313.076 
		56.834,332.078 63.916,339.965 	"/>
	<polygon fill="#FFFFFF" points="27.942,302.25 25.184,297.068 50.292,283.734 42.303,268.689 46.774,266.316 57.518,286.527 	"/>
	<path fill="#FFFFFF" d="M10.621,264.297l-1.913-5.946l27.907-22.564l1.93,5.982l-7.465,5.707l4.107,12.729l9.403,0.271l1.86,5.764
		L10.621,264.297z M30.452,260.045l-3.144-9.725l-12.156,9.207l0.039,0.137L30.452,260.045z"/>
	<polygon fill="#FFFFFF" points="2.91,236.469 2.199,230.32 24.965,212.302 24.951,212.197 0.434,215.037 -0.201,209.482 
		33.08,205.646 33.785,211.806 11.059,229.765 11.077,229.904 35.547,227.099 36.188,232.633 	"/>
	<path fill="#FFFFFF" d="M12.207,174.092c-0.989,0.163-1.903,0.431-2.751,0.796c-0.85,0.362-1.602,0.868-2.257,1.501
		c-0.646,0.635-1.177,1.396-1.584,2.286c-0.409,0.89-0.671,1.942-0.771,3.16c-0.155,1.772,0.068,3.334,0.671,4.694
		c0.603,1.353,1.472,2.49,2.603,3.402c1.125,0.916,2.438,1.641,3.936,2.157c1.491,0.521,3.03,0.853,4.617,0.992
		c1.593,0.14,3.168,0.076,4.729-0.174c1.56-0.26,2.973-0.736,4.244-1.44c1.273-0.706,2.316-1.677,3.147-2.907
		c0.829-1.228,1.322-2.735,1.479-4.4c0.112-1.307-0.013-2.479-0.374-3.517c-0.366-1.038-0.916-1.946-1.646-2.732
		c-0.732-0.783-1.611-1.425-2.634-1.928c-1.024-0.497-2.14-0.858-3.344-1.089l0.497-5.702c1.98,0.297,3.772,0.888,5.356,1.76
		c1.586,0.877,2.93,1.995,4.022,3.339c1.086,1.354,1.88,2.899,2.394,4.64c0.506,1.738,0.671,3.625,0.5,5.646
		c-0.223,2.494-0.88,4.694-1.968,6.592c-1.093,1.895-2.495,3.461-4.203,4.694c-1.711,1.229-3.649,2.123-5.831,2.672
		c-2.188,0.548-4.478,0.712-6.878,0.501c-2.369-0.204-4.579-0.77-6.633-1.684c-2.053-0.917-3.818-2.13-5.285-3.642
		c-1.472-1.508-2.584-3.292-3.352-5.353c-0.761-2.063-1.037-4.338-0.818-6.83c0.169-1.868,0.579-3.606,1.238-5.217
		c0.655-1.604,1.526-2.993,2.62-4.174c1.092-1.176,2.37-2.091,3.845-2.747c1.466-0.656,3.113-1.002,4.94-1.033L12.207,174.092z"/>
	<path fill="#FFFFFF" d="M7.122,146.936l1.749-5.987l35.763-3.009l-1.756,6.038l-9.39,0.53l-3.748,12.838l7.635,5.499l-1.691,5.809
		L7.122,146.936z M25.912,154.568l2.862-9.815l-15.23,0.783l-0.043,0.136L25.912,154.568z"/>
	<path fill="#FFFFFF" d="M38.052,126.473c1.146,0.584,2.218,0.886,3.227,0.907c1.006,0.021,1.938-0.188,2.819-0.618
		c0.865-0.431,1.652-1.046,2.35-1.827c0.693-0.787,1.313-1.709,1.856-2.771c0.579-1.139,0.942-2.177,1.093-3.125
		c0.145-0.942,0.134-1.77-0.025-2.486c-0.164-0.718-0.458-1.32-0.888-1.822c-0.431-0.499-0.924-0.891-1.481-1.172
		c-1.143-0.583-2.119-0.756-2.925-0.521c-0.805,0.239-1.476,0.608-2.012,1.104c-0.926,0.861-1.925,1.911-2.99,3.137
		c-1.066,1.236-2.406,2.742-4.017,4.516c-0.985,1.112-1.962,1.953-2.942,2.528c-0.975,0.572-1.924,0.941-2.848,1.101
		c-0.931,0.161-1.818,0.157-2.68-0.02c-0.856-0.175-1.679-0.462-2.459-0.856c-1.502-0.766-2.646-1.74-3.428-2.932
		c-0.778-1.188-1.271-2.479-1.472-3.883c-0.201-1.402-0.139-2.843,0.177-4.333c0.318-1.483,0.819-2.898,1.501-4.236
		c0.794-1.558,1.747-2.931,2.856-4.097c1.103-1.177,2.325-2.081,3.667-2.716c1.345-0.63,2.762-0.956,4.26-0.964
		c1.496-0.013,3.027,0.385,4.581,1.174l-2.662,5.228c-1.991-0.843-3.683-0.873-5.071-0.109c-1.393,0.771-2.546,2.051-3.474,3.863
		c-0.313,0.616-0.566,1.272-0.771,1.979c-0.199,0.703-0.293,1.396-0.267,2.081c0.023,0.678,0.2,1.313,0.521,1.918
		c0.319,0.603,0.86,1.1,1.611,1.48c1.063,0.542,2.057,0.638,2.996,0.289c0.928-0.354,1.819-0.979,2.667-1.879
		c0.081-0.1,0.422-0.478,1.021-1.139c0.599-0.659,1.269-1.396,1.997-2.226c0.734-0.816,1.451-1.617,2.151-2.4
		c0.697-0.787,1.199-1.349,1.508-1.679c0.81-0.824,1.658-1.453,2.56-1.913c0.895-0.452,1.813-0.75,2.744-0.894
		c0.929-0.136,1.845-0.129,2.748,0.03c0.903,0.163,1.74,0.438,2.521,0.836c1.667,0.853,2.93,1.922,3.766,3.208
		c0.83,1.289,1.346,2.68,1.533,4.181c0.182,1.491,0.085,3.046-0.289,4.646c-0.379,1.595-0.939,3.134-1.69,4.61
		c-0.866,1.703-1.892,3.195-3.076,4.485c-1.188,1.293-2.494,2.281-3.924,2.954c-1.436,0.673-2.995,1.001-4.689,0.981
		c-1.691-0.021-3.46-0.484-5.317-1.396L38.052,126.473z"/>
	<polygon fill="#FFFFFF" points="34.113,87.502 37.733,82.886 48.223,91.102 57.622,79.099 47.139,70.883 50.756,66.265 
		77.124,86.922 73.505,91.535 61.615,82.223 52.209,94.227 64.099,103.546 60.484,108.156 	"/>
	<polygon fill="#FFFFFF" points="59.263,57.956 63.49,53.894 86.697,78.046 82.472,82.114 	"/>
	<path fill="#FFFFFF" d="M72.143,45.76l12.952-9.391c2.989-2.17,5.694-3.146,8.129-2.937c2.429,0.208,4.48,1.469,6.147,3.77
		c0.939,1.292,1.523,2.499,1.76,3.626c0.24,1.121,0.287,2.126,0.157,3.014c-0.13,0.886-0.354,1.619-0.689,2.205
		c-0.327,0.591-0.58,1-0.752,1.244l0.061,0.074c0.441-0.239,0.966-0.433,1.58-0.575c0.616-0.133,1.289-0.125,2.017,0.024
		c0.726,0.145,1.477,0.48,2.26,1c0.778,0.515,1.557,1.301,2.322,2.364c1.159,1.597,2.325,2.96,3.519,4.093
		c1.182,1.128,2.231,1.788,3.142,1.978l-5.094,3.688c-0.775-0.324-1.452-0.818-2.027-1.48c-0.576-0.669-1.104-1.325-1.582-1.984
		c-0.899-1.235-1.751-2.251-2.552-3.043c-0.806-0.792-1.626-1.329-2.465-1.642c-0.833-0.295-1.702-0.337-2.594-0.107
		c-0.905,0.229-1.897,0.734-2.989,1.521l-6.984,5.063l8.088,11.173l-4.741,3.441L72.143,45.76z M85.839,54.664l7.788-5.646
		c1.519-1.104,2.408-2.298,2.673-3.586c0.266-1.292-0.128-2.657-1.176-4.102c-0.624-0.859-1.258-1.475-1.907-1.834
		c-0.651-0.358-1.301-0.534-1.97-0.518c-0.664,0.02-1.315,0.185-1.958,0.494c-0.642,0.313-1.271,0.688-1.879,1.125l-7.707,5.595
		L85.839,54.664z"/>
	<polygon fill="#FFFFFF" points="104.875,23.811 126.708,13.571 128.862,18.16 112.34,25.906 116.059,33.853 131.352,26.681 
		133.383,31.014 118.091,38.184 122.252,47.061 139.078,39.177 141.228,43.762 119.093,54.14 	"/>
	<polygon fill="#FFFFFF" points="154.259,24.062 167.602,21.156 168.672,26.106 155.34,29.012 	"/>
</g>
</svg>
